<svg width="263" height="109" viewBox="0 0 263 109" fill="none" xmlns="http://www.w3.org/2000/svg">
<mask id="mask0_1_7751" style="mask-type:luminance" maskUnits="userSpaceOnUse" x="49" y="0" width="214" height="108">
<path d="M262.475 0H49.6204V107.774H262.475V0Z" fill="white"/>
</mask>
<g mask="url(#mask0_1_7751)">
<path d="M53.3937 50.4537C53.3937 47.1244 53.8182 44.202 54.6707 41.683C55.5302 39.1571 56.8213 37.1082 58.5438 35.5365C60.2278 33.9578 62.2486 32.8281 64.6061 32.1545C66.9637 31.4739 69.5914 31.1301 72.4928 31.1301C75.1029 31.1301 77.3272 31.516 79.1725 32.2808C81.0144 33.0492 82.4282 34.0876 83.4105 35.3962C84.3999 36.7083 84.898 38.1677 84.898 39.7745C84.898 40.7393 84.5928 41.5252 83.9859 42.1321C83.3754 42.7425 82.5861 43.0442 81.6143 43.0442C80.6495 43.0442 79.8637 42.7425 79.2567 42.1321C78.6463 41.5252 78.3446 40.7393 78.3446 39.7745C78.3446 38.8027 78.6463 38.0134 79.2567 37.4029C79.8637 36.796 80.6495 36.4908 81.6143 36.4908C82.6527 36.4908 83.4421 36.9048 83.9859 37.7257C83.4035 35.9786 82.1405 34.5332 80.1969 33.3895C78.2498 32.2387 75.6818 31.6634 72.4928 31.6634C69.6651 31.6634 67.1953 32.3089 65.0833 33.6C62.9783 34.891 61.3399 36.9083 60.1717 39.6482C59.0104 42.3812 58.4316 45.907 58.4316 50.2292C58.4316 54.7759 58.9789 58.4456 60.0734 61.2312C61.168 64.0203 62.6871 66.0515 64.6342 67.3215C66.5778 68.5951 68.8441 69.23 71.4262 69.23C73.3137 69.23 74.8679 69.0827 76.0852 68.781C77.2991 68.4723 78.4639 67.9776 79.5795 67.2935V54.5233C79.5795 53.4849 79.4707 52.7201 79.2567 52.2219C79.0392 51.7167 78.5551 51.3869 77.7973 51.2256C77.0465 51.0677 75.8537 50.987 74.2188 50.987V50.4537H88.2239V50.987C87.1854 50.987 86.4136 51.0677 85.9084 51.2256C85.4102 51.3869 85.0875 51.7167 84.9401 52.2219C84.7998 52.7201 84.7296 53.4849 84.7296 54.5233L84.6735 69.4967H84.1402L81.7827 67.0268C80.4145 67.925 78.9199 68.6091 77.2921 69.0757C75.6642 69.5318 73.7066 69.7633 71.4262 69.7633C67.7776 69.7633 64.5991 69.0757 61.8977 67.7004C59.1929 66.3252 57.0984 64.2062 55.6109 61.3434C54.1304 58.4807 53.3937 54.8531 53.3937 50.4537Z" fill="#6D123F"/>
<path d="M91.1166 29.6847C92.762 29.6847 94.1547 29.597 95.2984 29.4181C96.4386 29.2322 97.6174 28.9094 98.8348 28.4498H99.3681V65.1464C99.3681 66.1498 99.4452 66.9111 99.6066 67.4338C99.775 67.9496 100.115 68.2899 100.631 68.4583C101.154 68.6196 101.915 68.6968 102.918 68.6968V69.2301H91.1166V68.6968C92.1445 68.6968 92.9128 68.6196 93.418 68.4583C93.9232 68.2899 94.253 67.9496 94.4144 67.4338C94.5722 66.9111 94.6529 66.1498 94.6529 65.1464V33.7122C94.6529 32.6387 94.5757 31.8599 94.4284 31.3828C94.2881 30.8986 93.9653 30.5829 93.4601 30.4425C92.9619 30.2952 92.1831 30.218 91.1166 30.218V29.6847Z" fill="#6D123F"/>
<path d="M116.978 41.8655C118.802 41.8655 120.43 41.9848 121.861 42.2163C123.293 42.4408 124.506 42.8583 125.51 43.4653C128.081 44.8966 129.369 47.3173 129.369 50.7204V65.1464C129.369 66.1498 129.446 66.9111 129.607 67.4338C129.776 67.9495 130.116 68.2898 130.632 68.4582C131.155 68.6196 131.916 68.6968 132.919 68.6968V69.2301H124.654V62.6766C123.97 65.0833 122.749 66.8655 120.991 68.0232C119.24 69.1845 117.237 69.7633 114.985 69.7633C112.375 69.7633 110.372 69.1845 108.979 68.0232C107.582 66.8655 106.888 65.1885 106.888 62.9994C106.888 59.7823 108.319 57.4563 111.182 56.0249C114.045 54.5935 118.535 53.8638 124.654 53.8357V49.5416C124.654 47.2121 123.987 45.4404 122.661 44.223C121.342 43.0092 119.447 42.3987 116.978 42.3987C114.683 42.3987 112.94 42.7496 111.743 43.4512C110.543 44.1459 109.751 45.0089 109.358 46.0473C109.824 45.479 110.431 45.1913 111.182 45.1913C112.041 45.1913 112.691 45.4439 113.133 45.9491C113.582 46.4473 113.806 47.0858 113.806 47.8717C113.806 48.5944 113.599 49.2048 113.189 49.71C112.775 50.2082 112.108 50.4537 111.182 50.4537C110.284 50.4537 109.61 50.2117 109.161 49.724C108.719 49.2399 108.502 48.6224 108.502 47.8717C108.502 46.2649 109.151 44.8615 110.452 43.6617C111.761 42.4654 113.936 41.8655 116.978 41.8655ZM124.654 58.172V54.3129C119.826 54.3514 116.381 55.0356 114.325 56.3617C112.266 57.6808 111.238 59.8419 111.238 62.845C111.238 64.5956 111.663 65.9674 112.515 66.9567C113.375 67.939 114.736 68.4302 116.599 68.4302C117.992 68.4302 119.307 68.0864 120.542 67.3917C121.777 66.6901 122.766 65.5885 123.517 64.0799C124.275 62.5749 124.654 60.6067 124.654 58.172Z" fill="#6D123F"/>
<path d="M135.443 43.1004C137.088 43.1004 138.481 43.0127 139.625 42.8338C140.765 42.6478 141.944 42.3251 143.161 41.8655H143.694V46.4262C144.122 45.0615 144.877 43.9634 145.954 43.1285C147.027 42.2865 148.511 41.8655 150.402 41.8655C152.627 41.8655 154.332 42.3777 155.51 43.3951C156.689 44.416 157.436 45.7491 157.756 47.3945C158.121 45.7491 158.843 44.416 159.931 43.3951C161.025 42.3777 162.643 41.8655 164.786 41.8655C167.509 41.8655 169.449 42.6092 170.61 44.0967C171.778 45.5772 172.364 47.4051 172.364 49.5837V65.1464C172.364 66.1498 172.441 66.9111 172.603 67.4338C172.761 67.9495 173.097 68.2898 173.613 68.4582C174.136 68.6196 174.897 68.6968 175.9 68.6968V69.2301H167.691V48.7838C167.691 47.2121 167.347 45.8895 166.667 44.8124C165.993 43.7389 164.814 43.1986 163.13 43.1986C161.874 43.1986 160.864 43.5319 160.099 44.195C159.331 44.8616 158.784 45.7316 158.457 46.8051C158.138 47.8717 157.98 49.0504 157.98 50.3415V65.1464C157.98 66.1498 158.057 66.9111 158.219 67.4338C158.377 67.9495 158.713 68.2898 159.229 68.4582C159.752 68.6196 160.513 68.6968 161.517 68.6968V69.2301H153.307V48.7838C153.307 47.2121 152.974 45.8895 152.311 44.8124C151.655 43.7389 150.486 43.1986 148.803 43.1986C147.547 43.1986 146.543 43.5319 145.785 44.195C145.035 44.8616 144.498 45.7316 144.172 46.8051C143.852 47.8717 143.694 49.0504 143.694 50.3415V65.1464C143.694 66.1498 143.772 66.9111 143.933 67.4338C144.101 67.9495 144.442 68.2898 144.957 68.4582C145.48 68.6196 146.241 68.6968 147.245 68.6968V69.2301H135.443V68.6968C136.471 68.6968 137.239 68.6196 137.744 68.4582C138.25 68.2898 138.579 67.9495 138.741 67.4338C138.899 66.9111 138.979 66.1498 138.979 65.1464V47.17C138.979 46.1035 138.902 45.3246 138.755 44.8265C138.614 44.3213 138.292 43.9985 137.787 43.8582C137.288 43.7108 136.51 43.6337 135.443 43.6337V43.1004Z" fill="#6D123F"/>
<path d="M192.48 41.8655C196.557 41.8655 199.669 43.0022 201.812 45.2755C203.952 47.5419 205.026 51.0537 205.026 55.8144C205.026 60.5786 203.952 64.0939 201.812 66.3673C199.669 68.6337 196.557 69.7633 192.48 69.7633C188.4 69.7633 185.285 68.6337 183.134 66.3673C180.991 64.0939 179.921 60.5786 179.921 55.8144C179.921 51.0537 180.991 47.5419 183.134 45.2755C185.285 43.0022 188.4 41.8655 192.48 41.8655ZM192.48 42.3987C190.796 42.3987 189.365 42.8303 188.186 43.6898C187.007 44.5528 186.113 45.9561 185.506 47.8997C184.895 49.8468 184.594 52.485 184.594 55.8144C184.594 59.1473 184.895 61.7855 185.506 63.7291C186.113 65.6762 187.007 67.0795 188.186 67.939C189.365 68.8021 190.796 69.2301 192.48 69.2301C194.192 69.2301 195.627 68.8021 196.788 67.939C197.957 67.0795 198.837 65.6762 199.427 63.7291C200.016 61.7855 200.311 59.1473 200.311 55.8144C200.311 52.485 200.016 49.8468 199.427 47.8997C198.837 45.9561 197.957 44.5528 196.788 43.6898C195.627 42.8303 194.192 42.3987 192.48 42.3987Z" fill="#6D123F"/>
<path d="M209.059 43.1004C210.704 43.1004 212.097 43.0127 213.241 42.8338C214.381 42.6478 215.56 42.3251 216.777 41.8655H217.31V47.2261C218.349 43.6547 220.766 41.8655 224.566 41.8655C226.565 41.8655 228.193 42.4128 229.449 43.5074C230.702 44.5949 231.33 46.1386 231.33 48.1383C231.33 49.1417 231.024 49.8749 230.417 50.3415C229.807 50.8116 229.144 51.0431 228.425 51.0431C227.713 51.0431 227.056 50.8186 226.46 50.3695C225.871 49.9205 225.576 49.1978 225.576 48.1944C225.576 47.1946 225.871 46.4613 226.46 45.9912C227.056 45.5246 227.713 45.2896 228.425 45.2896C229.386 45.2896 230.102 45.6895 230.572 46.4824C230.253 45.1177 229.565 44.0967 228.509 43.4232C227.449 42.7425 226.137 42.3987 224.566 42.3987C222.169 42.3987 220.359 43.1706 219.135 44.7142C217.917 46.2508 217.31 48.4821 217.31 51.408V65.1464C217.31 66.1498 217.388 66.9111 217.549 67.4338C217.717 67.9495 218.047 68.2898 218.545 68.4582C219.051 68.6196 219.801 68.6968 220.805 68.6968V69.2301H209.059V68.6968C210.087 68.6968 210.855 68.6196 211.36 68.4582C211.866 68.2898 212.195 67.9495 212.357 67.4338C212.515 66.9111 212.595 66.1498 212.595 65.1464V47.17C212.595 46.1035 212.518 45.3246 212.371 44.8265C212.231 44.3213 211.908 43.9985 211.403 43.8582C210.904 43.7108 210.126 43.6337 209.059 43.6337V43.1004Z" fill="#6D123F"/>
<path d="M244.47 41.8655C246.294 41.8655 247.922 41.9848 249.354 42.2163C250.785 42.4408 251.999 42.8583 253.002 43.4653C255.574 44.8966 256.861 47.3173 256.861 50.7204V65.1464C256.861 66.1498 256.938 66.9111 257.1 67.4338C257.268 67.9495 257.609 68.2898 258.124 68.4582C258.647 68.6196 259.408 68.6968 260.412 68.6968V69.2301H252.146V62.6766C251.462 65.0833 250.241 66.8655 248.484 68.0232C246.733 69.1845 244.73 69.7633 242.477 69.7633C239.867 69.7633 237.864 69.1845 236.471 68.0232C235.075 66.8655 234.38 65.1885 234.38 62.9994C234.38 59.7823 235.812 57.4563 238.674 56.0249C241.537 54.5935 246.028 53.8638 252.146 53.8357V49.5416C252.146 47.2121 251.48 45.4404 250.153 44.223C248.834 43.0092 246.94 42.3987 244.47 42.3987C242.176 42.3987 240.432 42.7496 239.236 43.4512C238.036 44.1459 237.243 45.0089 236.85 46.0473C237.317 45.479 237.924 45.1913 238.674 45.1913C239.534 45.1913 240.183 45.4439 240.625 45.9491C241.074 46.4473 241.299 47.0858 241.299 47.8717C241.299 48.5944 241.092 49.2048 240.681 49.71C240.267 50.2082 239.601 50.4537 238.674 50.4537C237.776 50.4537 237.103 50.2117 236.654 49.724C236.212 49.2399 235.994 48.6224 235.994 47.8717C235.994 46.2649 236.643 44.8615 237.945 43.6617C239.253 42.4654 241.428 41.8655 244.47 41.8655ZM252.146 58.172V54.3129C247.319 54.3514 243.874 55.0356 241.818 56.3617C239.758 57.6808 238.731 59.8419 238.731 62.845C238.731 64.5956 239.155 65.9674 240.008 66.9567C240.867 67.939 242.228 68.4302 244.091 68.4302C245.484 68.4302 246.8 68.0864 248.034 67.3917C249.269 66.6901 250.259 65.5885 251.009 64.0799C251.767 62.5749 252.146 60.6067 252.146 58.172Z" fill="#6D123F"/>
</g>
<mask id="mask1_1_7751" style="mask-type:luminance" maskUnits="userSpaceOnUse" x="-1" y="0" width="57" height="109">
<path d="M-0.00012207 0.675537H55.0904V108.45H-0.00012207V0.675537Z" fill="white"/>
</mask>
<g mask="url(#mask1_1_7751)">
<path d="M41.9173 3.70669C45.6115 4.7697 48.8707 7.13428 51.1441 10.2286C52.1439 11.5758 52.9754 13.0492 53.642 14.5894C54.0945 15.6208 54.4699 16.6908 54.7962 17.7784C54.2349 14.4105 52.9298 11.0811 50.8389 8.3306C46.1623 2.03324 37.4232 -0.548854 30.1049 2.37004C25.4284 4.18031 21.9482 8.2043 21.0571 13.165C20.8606 14.214 20.7729 15.2805 20.7799 16.347C20.7975 22.9671 23.3795 29.3031 26.6493 34.9479C27.2001 35.8952 27.7719 36.8284 28.3613 37.751C24.4075 33.0359 20.7694 28.1033 18.1557 22.4549C16.3033 18.2099 15.4438 12.8879 17.7838 8.67441C18.7416 6.96939 20.3063 5.66431 22.1727 5.0679C20.6957 5.35558 19.3099 6.10285 18.2469 7.17287C17.1559 8.24991 16.377 9.62165 15.8859 11.0706C15.507 12.2073 15.2789 13.3755 15.1842 14.5543C13.6721 15.7927 9.13944 19.957 9.26223 25.3598C9.31836 27.6577 9.50781 29.5908 9.2061 31.1906C7.18884 30.8888 5.81008 29.0365 5.81008 29.0365C6.56787 31.3133 7.79928 32.1553 8.83422 32.436C8.529 33.1306 8.0624 33.7481 7.36074 34.2919C4.83478 36.2425 1.23178 37.6668 0.909015 38.9439C0.730092 39.642 0.916031 40.3998 2.172 41.0067C3.21395 41.5154 3.61039 42.4346 4.30854 42.81C4.30854 42.81 3.63495 43.9747 2.43512 44.3852C1.23178 44.7992 1.94396 46.5638 2.88418 47.0129C3.82089 47.462 4.65937 47.9251 5.02423 48.4759C5.02423 48.4759 2.92277 48.2513 2.65965 49.5634C2.39652 50.879 4.21031 51.9806 4.38572 52.8296C4.60323 53.8997 3.73318 55.1802 3.37183 56.5449C2.7684 58.8148 4.45939 61.0109 7.53616 61.1618C10.6129 61.3091 17.4786 61.2916 19.0959 61.5723C23.6006 62.3616 30.2803 68.2906 31.7784 77.8226C33.2799 87.3546 29.3015 91.7821 29.3015 91.7821C29.3015 91.7821 41.4858 83.927 39.3843 70.5184C37.2829 57.1062 24.5232 48.553 18.4715 35.3935C13.9458 25.5598 14.4685 18.9221 15.1281 15.9506C15.1316 18.894 15.8788 21.8585 17.019 24.5494C18.7837 28.7172 21.1693 32.6009 23.783 36.2811C28.9402 43.5432 35.0411 49.9844 40.1596 57.2395C42.3383 60.3549 44.324 63.6211 45.7133 67.1469C48.9233 75.3037 48.1655 84.9234 43.5662 92.3995C39.9983 98.2899 34.0763 102.595 27.2562 103.78C24.0812 104.352 20.7869 104.3 17.6154 103.749C12.2408 102.816 7.10464 99.8932 4.3787 95.0553C1.9194 90.8348 1.57559 84.9444 4.95055 81.1169C6.13986 79.7662 7.73964 78.7418 9.52535 78.412C13.2792 77.6682 17.3172 80.2503 17.2962 84.2884C17.2962 85.2532 17.0576 86.2214 16.6682 87.1301C17.1664 86.267 17.5102 85.3058 17.6119 84.3059C17.9838 81.0643 15.5561 78.1805 12.5004 77.3455C10.9673 76.8999 9.28679 76.9315 7.75367 77.4051C4.11558 78.5243 1.41421 81.801 0.519595 85.4426C-0.813551 90.691 1.04935 96.3779 4.59271 100.353C7.40986 103.559 11.3005 105.749 15.3842 106.861C29.0454 110.499 41.4647 104.542 47.6463 93.5818C46.0606 98.2233 43.5557 102.57 39.9807 105.97C39.1037 106.801 38.1599 107.576 37.1601 108.296C38.2897 107.804 39.3703 107.187 40.3947 106.478C41.0332 106.04 41.6577 105.545 42.2401 105.04C44.4959 103.079 46.3553 100.686 47.8217 98.0794C52.0247 90.4805 53.1157 81.3414 51.316 72.8479C50.9231 70.4026 50.2495 68.0029 49.3022 65.712C47.7235 61.9126 45.5098 58.4148 43.082 55.1311C42.3558 54.1452 41.6051 53.1769 40.8367 52.2192C36.6163 46.1779 32.1187 40.3226 28.5613 33.8639C25.4143 28.1559 22.8393 21.7708 23.155 15.1472C23.7269 5.69238 33.4729 1.20178 41.9173 3.70669Z" fill="#6D123F"/>
</g>
<mask id="mask2_1_7751" style="mask-type:luminance" maskUnits="userSpaceOnUse" x="89" y="74" width="139" height="12">
<path d="M227.443 74.8308H89.133V85.6082H227.443V74.8308Z" fill="white"/>
</mask>
<g mask="url(#mask2_1_7751)">
<mask id="mask3_1_7751" style="mask-type:luminance" maskUnits="userSpaceOnUse" x="89" y="76" width="7" height="7">
<path d="M89.4234 76.627H95.4226V82.9138H89.4234V76.627Z" fill="white"/>
</mask>
<g mask="url(#mask3_1_7751)">
<path d="M95.2617 80.6217C95.0547 81.1549 94.7179 81.5829 94.2513 81.8987C93.7742 82.2355 93.248 82.4039 92.6796 82.4039C91.9113 82.4039 91.2553 82.1197 90.715 81.5478C90.1817 80.997 89.9151 80.334 89.9151 79.5551C89.9151 79.1622 89.9853 78.7938 90.1256 78.4465C90.2659 78.1027 90.4624 77.801 90.715 77.5484C91.2553 76.9801 91.9113 76.6924 92.6796 76.6924C93.248 76.6924 93.7672 76.8538 94.2373 77.1695C94.7039 77.4993 95.0407 77.9273 95.2477 78.4606H94.6162C94.3145 77.9098 93.8724 77.5449 93.283 77.366C93.0866 77.3098 92.8621 77.2818 92.6095 77.2818C92.3463 77.2818 92.0832 77.3449 91.8236 77.4642C91.55 77.587 91.3184 77.7519 91.1219 77.9554C90.701 78.3974 90.4905 78.9307 90.4905 79.5551C90.4905 80.1656 90.701 80.6918 91.1219 81.1409C91.55 81.5899 92.0692 81.8145 92.6796 81.8145C93.1006 81.8145 93.483 81.7092 93.8303 81.4917C94.1742 81.2672 94.4408 80.9795 94.6302 80.6217H95.2617Z" fill="#6D123F"/>
</g>
<path d="M105.535 79.5271C105.535 78.9026 105.314 78.3623 104.875 77.9133C104.426 77.4747 103.882 77.2537 103.247 77.2537C102.619 77.2537 102.086 77.4747 101.648 77.9133C101.199 78.3623 100.974 78.9026 100.974 79.5271C100.974 80.1551 101.199 80.6918 101.648 81.1409C102.086 81.5899 102.619 81.8145 103.247 81.8145C103.882 81.8145 104.426 81.5899 104.875 81.1409C105.314 80.6918 105.535 80.1551 105.535 79.5271ZM106.11 79.5271C106.11 79.92 106.033 80.2919 105.886 80.6357C105.735 80.983 105.535 81.2882 105.282 81.5478C105.019 81.811 104.71 82.0109 104.356 82.1513C104.009 82.3126 103.64 82.3898 103.247 82.3898C102.854 82.3898 102.49 82.3126 102.153 82.1513C101.795 82.0109 101.493 81.811 101.241 81.5478C100.978 81.2882 100.771 80.983 100.623 80.6357C100.472 80.2919 100.399 79.92 100.399 79.5271C100.399 79.1341 100.472 78.7658 100.623 78.4185C100.771 78.0746 100.978 77.7694 101.241 77.5063C101.493 77.2537 101.795 77.0537 102.153 76.9029C102.49 76.7555 102.854 76.6783 103.247 76.6783C103.64 76.6783 104.009 76.7555 104.356 76.9029C104.71 77.0537 105.019 77.2537 105.282 77.5063C105.535 77.7694 105.735 78.0746 105.886 78.4185C106.033 78.7658 106.11 79.1341 106.11 79.5271Z" fill="#6D123F"/>
<path d="M113.167 79.6955C112.034 79.4359 111.469 78.9517 111.469 78.2501C111.469 77.7273 111.652 77.3344 112.016 77.0713C112.381 76.8117 112.806 76.6783 113.293 76.6783C114.378 76.6783 115.02 77.0853 115.216 77.8992H114.599C114.486 77.4151 114.051 77.1695 113.293 77.1695C112.76 77.1695 112.385 77.3309 112.171 77.6466C112.087 77.7694 112.045 77.9203 112.045 78.0957C112.045 78.443 112.23 78.7096 112.606 78.8956C112.781 78.9798 113.153 79.0991 113.714 79.2464C114.283 79.3973 114.697 79.5622 114.949 79.7376C115.304 79.9902 115.483 80.341 115.483 80.79C115.483 81.3514 115.262 81.7794 114.823 82.0671C114.448 82.3126 113.988 82.4319 113.448 82.4319C112.213 82.4319 111.501 81.9618 111.315 81.0146H111.988C112.09 81.604 112.578 81.8987 113.448 81.8987C114.065 81.8987 114.5 81.7303 114.753 81.3935C114.844 81.2531 114.893 81.0672 114.893 80.8321C114.893 80.6076 114.802 80.4217 114.627 80.2708C114.364 80.0673 113.876 79.8744 113.167 79.6955Z" fill="#6D123F"/>
<path d="M125.963 82.3197L125.093 78.3623L123.423 82.6424L121.753 78.3623L120.897 82.3197H120.308L121.599 76.3977L123.423 81.1549L125.248 76.3977L126.539 82.3197H125.963Z" fill="#6D123F"/>
<path d="M132.66 80.2708H134.667L133.67 77.7168L132.66 80.2708ZM136.098 82.3197H135.481L134.891 80.8041H132.449L131.846 82.3197H131.229L133.67 76.3837L136.098 82.3197Z" fill="#6D123F"/>
<path d="M140.88 77.2818V76.7485H144.135V77.2818H142.788V82.3057H142.227V77.2818H140.88Z" fill="#6D123F"/>
<path d="M150.015 82.3197H149.454V76.7626H150.015V82.3197Z" fill="#6D123F"/>
<path d="M160.875 80.6218C160.668 81.155 160.332 81.583 159.865 81.8988C159.388 82.2356 158.862 82.404 158.293 82.404C157.525 82.404 156.869 82.1198 156.329 81.548C155.795 80.9972 155.529 80.3341 155.529 79.5553C155.529 79.1623 155.599 78.794 155.739 78.4466C155.88 78.1028 156.076 77.8011 156.329 77.5485C156.869 76.9802 157.525 76.6925 158.293 76.6925C158.862 76.6925 159.381 76.8539 159.851 77.1696C160.317 77.4994 160.654 77.9274 160.861 78.4607H160.23C159.928 77.9099 159.486 77.545 158.897 77.3661C158.7 77.31 158.476 77.2819 158.223 77.2819C157.96 77.2819 157.697 77.345 157.437 77.4643C157.164 77.5871 156.932 77.752 156.736 77.9555C156.315 78.3975 156.104 78.9308 156.104 79.5553C156.104 80.1657 156.315 80.6919 156.736 81.141C157.164 81.5901 157.683 81.8146 158.293 81.8146C158.714 81.8146 159.097 81.7093 159.444 81.4918C159.788 81.2673 160.054 80.9796 160.244 80.6218H160.875Z" fill="#6D123F"/>
<path d="M176.625 80.762C176.625 80.9971 176.572 81.2181 176.47 81.4216C176.365 81.6286 176.225 81.797 176.049 81.9268C175.713 82.1899 175.264 82.3197 174.702 82.3197H173.004V76.7626H174.506C175.309 76.7626 175.839 77.0152 176.091 77.5204C176.176 77.6993 176.218 77.8817 176.218 78.0677C176.218 78.2571 176.204 78.4009 176.176 78.5027C176.148 78.6079 176.106 78.7097 176.049 78.8114C175.916 79.0184 175.755 79.1693 175.558 79.2605C175.885 79.3447 176.148 79.5201 176.344 79.7797C176.53 80.0533 176.625 80.3796 176.625 80.762ZM175.642 78.1519C175.642 77.5905 175.264 77.3099 174.506 77.3099H173.566V79.05H174.66C174.958 79.05 175.197 78.9763 175.376 78.8254C175.551 78.6781 175.642 78.4536 175.642 78.1519ZM176.049 80.6638C176.049 80.4954 176.021 80.3515 175.965 80.2288C175.899 80.1095 175.814 80.0007 175.713 79.906C175.495 79.7095 175.242 79.6113 174.955 79.6113H173.566V81.7724H174.857C175.211 81.7724 175.495 81.6707 175.713 81.4637C175.937 81.2602 176.049 80.9936 176.049 80.6638Z" fill="#6D123F"/>
<path d="M185.231 82.3197H181.933V76.7626H185.231V77.2958H182.495V79.2745H185.147V79.8078H182.495V81.7864H185.231V82.3197Z" fill="#6D123F"/>
<path d="M191.888 80.2708H193.895L192.899 77.7168L191.888 80.2708ZM195.326 82.3197H194.709L194.12 80.8041H191.678L191.074 82.3197H190.457L192.899 76.3837L195.326 82.3197Z" fill="#6D123F"/>
<path d="M204.57 80.4814C204.57 81.0813 204.373 81.5549 203.981 81.8987C203.616 82.2285 203.125 82.3899 202.507 82.3899C201.879 82.3899 201.384 82.2285 201.02 81.8987C200.627 81.5549 200.43 81.0813 200.43 80.4814V76.7626H201.006V80.5655C201.006 80.9865 201.153 81.3093 201.455 81.5338C201.714 81.7233 202.065 81.8145 202.507 81.8145C203.181 81.8145 203.637 81.59 203.882 81.1409C203.956 80.983 203.995 80.7901 203.995 80.5655V76.7626H204.57V80.4814Z" fill="#6D123F"/>
<path d="M209.757 77.2817V76.7484H213.013V77.2817H211.666V82.3055H211.104V77.2817H209.757Z" fill="#6D123F"/>
<path d="M220.482 79.7095V82.3197H219.907V79.7095L217.802 76.7626H218.531L220.187 79.1482L221.843 76.7626H222.573L220.482 79.7095Z" fill="#6D123F"/>
</g>
</svg>
