<svg xmlns="http://www.w3.org/2000/svg" xmlns:xlink="http://www.w3.org/1999/xlink" width="500" zoomAndPan="magnify" viewBox="0 0 375 374.999991" height="500" preserveAspectRatio="xMidYMid meet" version="1.0"><defs><g/><clipPath id="5a4e7295ea"><rect x="0" width="237" y="0" height="120"/></clipPath><clipPath id="fb2e9adcac"><path d="M 234 162 L 241 162 L 241 167 L 234 167 Z M 234 162 " clip-rule="nonzero"/></clipPath><clipPath id="e21d1b377e"><path d="M 233.628906 164.890625 L 239.929688 161.222656 L 241.679688 164.226562 L 235.375 167.898438 Z M 233.628906 164.890625 " clip-rule="nonzero"/></clipPath><clipPath id="cf023694b7"><path d="M 236.773438 163.0625 C 235.035156 164.074219 234.019531 165.566406 234.503906 166.394531 C 234.984375 167.222656 236.785156 167.078125 238.523438 166.066406 C 240.261719 165.054688 241.277344 163.558594 240.796875 162.730469 C 240.3125 161.902344 238.511719 162.046875 236.773438 163.0625 Z M 236.773438 163.0625 " clip-rule="nonzero"/></clipPath><clipPath id="987a900ddd"><path d="M 0 0 L 7 0 L 7 5 L 0 5 Z M 0 0 " clip-rule="nonzero"/></clipPath><clipPath id="96b26368df"><path d="M -0.371094 2.890625 L 5.929688 -0.777344 L 7.679688 2.226562 L 1.375 5.898438 Z M -0.371094 2.890625 " clip-rule="nonzero"/></clipPath><clipPath id="2ad1443f4b"><path d="M 2.773438 1.0625 C 1.035156 2.074219 0.0195312 3.566406 0.503906 4.394531 C 0.984375 5.222656 2.785156 5.078125 4.523438 4.066406 C 6.261719 3.054688 7.277344 1.558594 6.796875 0.730469 C 6.3125 -0.0976562 4.511719 0.046875 2.773438 1.0625 Z M 2.773438 1.0625 " clip-rule="nonzero"/></clipPath><clipPath id="5db3746186"><rect x="0" width="7" y="0" height="5"/></clipPath><clipPath id="a5b3af1217"><path d="M 55 130 L 116.339844 130 L 116.339844 250 L 55 250 Z M 55 130 " clip-rule="nonzero"/></clipPath><clipPath id="aefa6700f0"><path d="M 0.078125 2 L 5 2 L 5 9 L 0.078125 9 Z M 0.078125 2 " clip-rule="nonzero"/></clipPath><clipPath id="67ffc558fc"><rect x="0" width="131" y="0" height="12"/></clipPath></defs><rect x="-37.5" width="450" fill="#ffffff" y="-37.499999" height="449.999989" fill-opacity="1"/><rect x="-37.5" width="450" fill="#ffffff" y="-37.499999" height="449.999989" fill-opacity="1"/><g transform="matrix(1, 0, 0, 1, 98, 117)"><g clip-path="url(#5a4e7295ea)"><g fill="#6d123f" fill-opacity="1"><g transform="translate(1.093103, 77.083245)"><g><path d="M 3.109375 -20.90625 C 3.109375 -24.613281 3.582031 -27.867188 4.53125 -30.671875 C 5.488281 -33.484375 6.925781 -35.765625 8.84375 -37.515625 C 10.71875 -39.273438 12.96875 -40.53125 15.59375 -41.28125 C 18.21875 -42.039062 21.144531 -42.421875 24.375 -42.421875 C 27.28125 -42.421875 29.757812 -41.992188 31.8125 -41.140625 C 33.863281 -40.285156 35.4375 -39.128906 36.53125 -37.671875 C 37.632812 -36.210938 38.1875 -34.585938 38.1875 -32.796875 C 38.1875 -31.722656 37.847656 -30.847656 37.171875 -30.171875 C 36.492188 -29.492188 35.613281 -29.15625 34.53125 -29.15625 C 33.457031 -29.15625 32.582031 -29.492188 31.90625 -30.171875 C 31.226562 -30.847656 30.890625 -31.722656 30.890625 -32.796875 C 30.890625 -33.878906 31.226562 -34.757812 31.90625 -35.4375 C 32.582031 -36.113281 33.457031 -36.453125 34.53125 -36.453125 C 35.6875 -36.453125 36.566406 -35.992188 37.171875 -35.078125 C 36.523438 -37.023438 35.117188 -38.632812 32.953125 -39.90625 C 30.785156 -41.1875 27.925781 -41.828125 24.375 -41.828125 C 21.226562 -41.828125 18.476562 -41.109375 16.125 -39.671875 C 13.78125 -38.234375 11.957031 -35.988281 10.65625 -32.9375 C 9.363281 -29.894531 8.71875 -25.96875 8.71875 -21.15625 C 8.71875 -16.09375 9.328125 -12.007812 10.546875 -8.90625 C 11.765625 -5.800781 13.457031 -3.539062 15.625 -2.125 C 17.789062 -0.707031 20.3125 0 23.1875 0 C 25.289062 0 27.019531 -0.164062 28.375 -0.5 C 29.726562 -0.84375 31.023438 -1.394531 32.265625 -2.15625 L 32.265625 -16.375 C 32.265625 -17.53125 32.144531 -18.382812 31.90625 -18.9375 C 31.664062 -19.5 31.125 -19.867188 30.28125 -20.046875 C 29.445312 -20.222656 28.117188 -20.3125 26.296875 -20.3125 L 26.296875 -20.90625 L 41.890625 -20.90625 L 41.890625 -20.3125 C 40.734375 -20.3125 39.875 -20.222656 39.3125 -20.046875 C 38.757812 -19.867188 38.398438 -19.5 38.234375 -18.9375 C 38.078125 -18.382812 38 -17.53125 38 -16.375 L 37.9375 0.296875 L 37.34375 0.296875 L 34.71875 -2.453125 C 33.195312 -1.453125 31.53125 -0.691406 29.71875 -0.171875 C 27.90625 0.335938 25.726562 0.59375 23.1875 0.59375 C 19.125 0.59375 15.585938 -0.171875 12.578125 -1.703125 C 9.566406 -3.234375 7.234375 -5.59375 5.578125 -8.78125 C 3.929688 -11.96875 3.109375 -16.007812 3.109375 -20.90625 Z M 3.109375 -20.90625 "/></g></g></g><g fill="#6d123f" fill-opacity="1"><g transform="translate(44.707746, 77.083245)"><g><path d="M 1.5 -44.03125 C 3.332031 -44.03125 4.882812 -44.128906 6.15625 -44.328125 C 7.425781 -44.535156 8.738281 -44.894531 10.09375 -45.40625 L 10.6875 -45.40625 L 10.6875 -4.546875 C 10.6875 -3.429688 10.773438 -2.582031 10.953125 -2 C 11.140625 -1.425781 11.519531 -1.046875 12.09375 -0.859375 C 12.675781 -0.679688 13.523438 -0.59375 14.640625 -0.59375 L 14.640625 0 L 1.5 0 L 1.5 -0.59375 C 2.644531 -0.59375 3.5 -0.679688 4.0625 -0.859375 C 4.625 -1.046875 4.992188 -1.425781 5.171875 -2 C 5.347656 -2.582031 5.4375 -3.429688 5.4375 -4.546875 L 5.4375 -39.546875 C 5.4375 -40.742188 5.351562 -41.609375 5.1875 -42.140625 C 5.03125 -42.679688 4.671875 -43.03125 4.109375 -43.1875 C 3.554688 -43.351562 2.6875 -43.4375 1.5 -43.4375 Z M 1.5 -44.03125 "/></g></g></g><g fill="#6d123f" fill-opacity="1"><g transform="translate(60.719697, 77.083245)"><g><path d="M 14.28125 -30.46875 C 16.3125 -30.46875 18.125 -30.335938 19.71875 -30.078125 C 21.3125 -29.828125 22.664062 -29.363281 23.78125 -28.6875 C 26.644531 -27.09375 28.078125 -24.398438 28.078125 -20.609375 L 28.078125 -4.546875 C 28.078125 -3.429688 28.164062 -2.582031 28.34375 -2 C 28.53125 -1.425781 28.910156 -1.046875 29.484375 -0.859375 C 30.066406 -0.679688 30.914062 -0.59375 32.03125 -0.59375 L 32.03125 0 L 22.828125 0 L 22.828125 -7.296875 C 22.066406 -4.617188 20.707031 -2.632812 18.75 -1.34375 C 16.800781 -0.0507812 14.570312 0.59375 12.0625 0.59375 C 9.15625 0.59375 6.925781 -0.0507812 5.375 -1.34375 C 3.820312 -2.632812 3.046875 -4.5 3.046875 -6.9375 C 3.046875 -10.519531 4.640625 -13.109375 7.828125 -14.703125 C 11.015625 -16.296875 16.015625 -17.109375 22.828125 -17.140625 L 22.828125 -21.921875 C 22.828125 -24.515625 22.085938 -26.488281 20.609375 -27.84375 C 19.140625 -29.195312 17.03125 -29.875 14.28125 -29.875 C 11.726562 -29.875 9.785156 -29.484375 8.453125 -28.703125 C 7.117188 -27.929688 6.234375 -26.96875 5.796875 -25.8125 C 6.316406 -26.445312 6.992188 -26.765625 7.828125 -26.765625 C 8.785156 -26.765625 9.507812 -26.484375 10 -25.921875 C 10.5 -25.367188 10.75 -24.65625 10.75 -23.78125 C 10.75 -22.976562 10.519531 -22.296875 10.0625 -21.734375 C 9.601562 -21.179688 8.859375 -20.90625 7.828125 -20.90625 C 6.828125 -20.90625 6.078125 -21.175781 5.578125 -21.71875 C 5.085938 -22.257812 4.84375 -22.945312 4.84375 -23.78125 C 4.84375 -25.570312 5.566406 -27.132812 7.015625 -28.46875 C 8.472656 -29.800781 10.894531 -30.46875 14.28125 -30.46875 Z M 22.828125 -12.3125 L 22.828125 -16.609375 C 17.453125 -16.566406 13.617188 -15.804688 11.328125 -14.328125 C 9.035156 -12.859375 7.890625 -10.453125 7.890625 -7.109375 C 7.890625 -5.160156 8.363281 -3.632812 9.3125 -2.53125 C 10.269531 -1.4375 11.785156 -0.890625 13.859375 -0.890625 C 15.410156 -0.890625 16.875 -1.273438 18.25 -2.046875 C 19.625 -2.828125 20.726562 -4.054688 21.5625 -5.734375 C 22.40625 -7.410156 22.828125 -9.601562 22.828125 -12.3125 Z M 22.828125 -12.3125 "/></g></g></g><g fill="#6d123f" fill-opacity="1"><g transform="translate(94.058013, 77.083245)"><g><path d="M 1.5 -29.09375 C 3.332031 -29.09375 4.882812 -29.191406 6.15625 -29.390625 C 7.425781 -29.597656 8.738281 -29.957031 10.09375 -30.46875 L 10.6875 -30.46875 L 10.6875 -25.390625 C 11.164062 -26.910156 12.003906 -28.132812 13.203125 -29.0625 C 14.398438 -30 16.050781 -30.46875 18.15625 -30.46875 C 20.632812 -30.46875 22.53125 -29.898438 23.84375 -28.765625 C 25.15625 -27.628906 25.988281 -26.144531 26.34375 -24.3125 C 26.75 -26.144531 27.554688 -27.628906 28.765625 -28.765625 C 29.984375 -29.898438 31.785156 -30.46875 34.171875 -30.46875 C 37.203125 -30.46875 39.363281 -29.640625 40.65625 -27.984375 C 41.957031 -26.335938 42.609375 -24.300781 42.609375 -21.875 L 42.609375 -4.546875 C 42.609375 -3.429688 42.695312 -2.582031 42.875 -2 C 43.050781 -1.425781 43.425781 -1.046875 44 -0.859375 C 44.582031 -0.679688 45.429688 -0.59375 46.546875 -0.59375 L 46.546875 0 L 37.40625 0 L 37.40625 -22.765625 C 37.40625 -24.515625 37.023438 -25.988281 36.265625 -27.1875 C 35.515625 -28.382812 34.203125 -28.984375 32.328125 -28.984375 C 30.929688 -28.984375 29.804688 -28.613281 28.953125 -27.875 C 28.097656 -27.132812 27.488281 -26.164062 27.125 -24.96875 C 26.769531 -23.78125 26.59375 -22.46875 26.59375 -21.03125 L 26.59375 -4.546875 C 26.59375 -3.429688 26.679688 -2.582031 26.859375 -2 C 27.035156 -1.425781 27.410156 -1.046875 27.984375 -0.859375 C 28.566406 -0.679688 29.414062 -0.59375 30.53125 -0.59375 L 30.53125 0 L 21.390625 0 L 21.390625 -22.765625 C 21.390625 -24.515625 21.019531 -25.988281 20.28125 -27.1875 C 19.550781 -28.382812 18.25 -28.984375 16.375 -28.984375 C 14.976562 -28.984375 13.859375 -28.613281 13.015625 -27.875 C 12.179688 -27.132812 11.582031 -26.164062 11.21875 -24.96875 C 10.863281 -23.78125 10.6875 -22.46875 10.6875 -21.03125 L 10.6875 -4.546875 C 10.6875 -3.429688 10.773438 -2.582031 10.953125 -2 C 11.140625 -1.425781 11.519531 -1.046875 12.09375 -0.859375 C 12.675781 -0.679688 13.523438 -0.59375 14.640625 -0.59375 L 14.640625 0 L 1.5 0 L 1.5 -0.59375 C 2.644531 -0.59375 3.5 -0.679688 4.0625 -0.859375 C 4.625 -1.046875 4.992188 -1.425781 5.171875 -2 C 5.347656 -2.582031 5.4375 -3.429688 5.4375 -4.546875 L 5.4375 -24.5625 C 5.4375 -25.75 5.351562 -26.617188 5.1875 -27.171875 C 5.03125 -27.734375 4.671875 -28.09375 4.109375 -28.25 C 3.554688 -28.414062 2.6875 -28.5 1.5 -28.5 Z M 1.5 -29.09375 "/></g></g></g><g fill="#6d123f" fill-opacity="1"><g transform="translate(141.97437, 77.083245)"><g><path d="M 17.09375 -30.46875 C 21.632812 -30.46875 25.097656 -29.203125 27.484375 -26.671875 C 29.867188 -24.148438 31.0625 -20.238281 31.0625 -14.9375 C 31.0625 -9.632812 29.867188 -5.71875 27.484375 -3.1875 C 25.097656 -0.664062 21.632812 0.59375 17.09375 0.59375 C 12.550781 0.59375 9.082031 -0.664062 6.6875 -3.1875 C 4.300781 -5.71875 3.109375 -9.632812 3.109375 -14.9375 C 3.109375 -20.238281 4.300781 -24.148438 6.6875 -26.671875 C 9.082031 -29.203125 12.550781 -30.46875 17.09375 -30.46875 Z M 17.09375 -29.875 C 15.21875 -29.875 13.625 -29.394531 12.3125 -28.4375 C 11 -27.476562 10.003906 -25.914062 9.328125 -23.75 C 8.648438 -21.582031 8.3125 -18.644531 8.3125 -14.9375 C 8.3125 -11.226562 8.648438 -8.289062 9.328125 -6.125 C 10.003906 -3.957031 11 -2.394531 12.3125 -1.4375 C 13.625 -0.476562 15.21875 0 17.09375 0 C 19 0 20.597656 -0.476562 21.890625 -1.4375 C 23.191406 -2.394531 24.171875 -3.957031 24.828125 -6.125 C 25.484375 -8.289062 25.8125 -11.226562 25.8125 -14.9375 C 25.8125 -18.644531 25.484375 -21.582031 24.828125 -23.75 C 24.171875 -25.914062 23.191406 -27.476562 21.890625 -28.4375 C 20.597656 -29.394531 19 -29.875 17.09375 -29.875 Z M 17.09375 -29.875 "/></g></g></g><g fill="#6d123f" fill-opacity="1"><g transform="translate(176.029642, 77.083245)"><g><path d="M 1.5 -29.09375 C 3.332031 -29.09375 4.882812 -29.191406 6.15625 -29.390625 C 7.425781 -29.597656 8.738281 -29.957031 10.09375 -30.46875 L 10.6875 -30.46875 L 10.6875 -24.5 C 11.84375 -28.476562 14.535156 -30.46875 18.765625 -30.46875 C 20.992188 -30.46875 22.804688 -29.859375 24.203125 -28.640625 C 25.597656 -27.429688 26.296875 -25.710938 26.296875 -23.484375 C 26.296875 -22.367188 25.957031 -21.550781 25.28125 -21.03125 C 24.601562 -20.507812 23.863281 -20.25 23.0625 -20.25 C 22.269531 -20.25 21.539062 -20.5 20.875 -21 C 20.21875 -21.5 19.890625 -22.304688 19.890625 -23.421875 C 19.890625 -24.535156 20.21875 -25.351562 20.875 -25.875 C 21.539062 -26.394531 22.269531 -26.65625 23.0625 -26.65625 C 24.132812 -26.65625 24.929688 -26.210938 25.453125 -25.328125 C 25.097656 -26.847656 24.332031 -27.984375 23.15625 -28.734375 C 21.976562 -29.492188 20.515625 -29.875 18.765625 -29.875 C 16.097656 -29.875 14.082031 -29.015625 12.71875 -27.296875 C 11.363281 -25.585938 10.6875 -23.101562 10.6875 -19.84375 L 10.6875 -4.546875 C 10.6875 -3.429688 10.773438 -2.582031 10.953125 -2 C 11.140625 -1.425781 11.507812 -1.046875 12.0625 -0.859375 C 12.625 -0.679688 13.460938 -0.59375 14.578125 -0.59375 L 14.578125 0 L 1.5 0 L 1.5 -0.59375 C 2.644531 -0.59375 3.5 -0.679688 4.0625 -0.859375 C 4.625 -1.046875 4.992188 -1.425781 5.171875 -2 C 5.347656 -2.582031 5.4375 -3.429688 5.4375 -4.546875 L 5.4375 -24.5625 C 5.4375 -25.75 5.351562 -26.617188 5.1875 -27.171875 C 5.03125 -27.734375 4.671875 -28.09375 4.109375 -28.25 C 3.554688 -28.414062 2.6875 -28.5 1.5 -28.5 Z M 1.5 -29.09375 "/></g></g></g><g fill="#6d123f" fill-opacity="1"><g transform="translate(202.676389, 77.083245)"><g><path d="M 14.28125 -30.46875 C 16.3125 -30.46875 18.125 -30.335938 19.71875 -30.078125 C 21.3125 -29.828125 22.664062 -29.363281 23.78125 -28.6875 C 26.644531 -27.09375 28.078125 -24.398438 28.078125 -20.609375 L 28.078125 -4.546875 C 28.078125 -3.429688 28.164062 -2.582031 28.34375 -2 C 28.53125 -1.425781 28.910156 -1.046875 29.484375 -0.859375 C 30.066406 -0.679688 30.914062 -0.59375 32.03125 -0.59375 L 32.03125 0 L 22.828125 0 L 22.828125 -7.296875 C 22.066406 -4.617188 20.707031 -2.632812 18.75 -1.34375 C 16.800781 -0.0507812 14.570312 0.59375 12.0625 0.59375 C 9.15625 0.59375 6.925781 -0.0507812 5.375 -1.34375 C 3.820312 -2.632812 3.046875 -4.5 3.046875 -6.9375 C 3.046875 -10.519531 4.640625 -13.109375 7.828125 -14.703125 C 11.015625 -16.296875 16.015625 -17.109375 22.828125 -17.140625 L 22.828125 -21.921875 C 22.828125 -24.515625 22.085938 -26.488281 20.609375 -27.84375 C 19.140625 -29.195312 17.03125 -29.875 14.28125 -29.875 C 11.726562 -29.875 9.785156 -29.484375 8.453125 -28.703125 C 7.117188 -27.929688 6.234375 -26.96875 5.796875 -25.8125 C 6.316406 -26.445312 6.992188 -26.765625 7.828125 -26.765625 C 8.785156 -26.765625 9.507812 -26.484375 10 -25.921875 C 10.5 -25.367188 10.75 -24.65625 10.75 -23.78125 C 10.75 -22.976562 10.519531 -22.296875 10.0625 -21.734375 C 9.601562 -21.179688 8.859375 -20.90625 7.828125 -20.90625 C 6.828125 -20.90625 6.078125 -21.175781 5.578125 -21.71875 C 5.085938 -22.257812 4.84375 -22.945312 4.84375 -23.78125 C 4.84375 -25.570312 5.566406 -27.132812 7.015625 -28.46875 C 8.472656 -29.800781 10.894531 -30.46875 14.28125 -30.46875 Z M 22.828125 -12.3125 L 22.828125 -16.609375 C 17.453125 -16.566406 13.617188 -15.804688 11.328125 -14.328125 C 9.035156 -12.859375 7.890625 -10.453125 7.890625 -7.109375 C 7.890625 -5.160156 8.363281 -3.632812 9.3125 -2.53125 C 10.269531 -1.4375 11.785156 -0.890625 13.859375 -0.890625 C 15.410156 -0.890625 16.875 -1.273438 18.25 -2.046875 C 19.625 -2.828125 20.726562 -4.054688 21.5625 -5.734375 C 22.40625 -7.410156 22.828125 -9.601562 22.828125 -12.3125 Z M 22.828125 -12.3125 "/></g></g></g></g></g><g clip-path="url(#fb2e9adcac)"><g clip-path="url(#e21d1b377e)"><g clip-path="url(#cf023694b7)"><g transform="matrix(1, 0, 0, 1, 234, 162)"><g clip-path="url(#5db3746186)"><g clip-path="url(#987a900ddd)"><g clip-path="url(#96b26368df)"><g clip-path="url(#2ad1443f4b)"><path fill="#f8f9f0" d="M -0.371094 2.890625 L 5.917969 -0.769531 L 7.664062 2.234375 L 1.375 5.898438 Z M -0.371094 2.890625 " fill-opacity="1" fill-rule="nonzero"/></g></g></g></g></g></g></g></g><g clip-path="url(#a5b3af1217)"><path fill="#6d123f" d="M 101.671875 133.375 C 105.785156 134.558594 109.414062 137.191406 111.945312 140.636719 C 113.058594 142.136719 113.984375 143.777344 114.726562 145.492188 C 115.230469 146.640625 115.648438 147.832031 116.011719 149.042969 C 115.386719 145.292969 113.933594 141.585938 111.605469 138.523438 C 106.398438 131.511719 96.667969 128.636719 88.519531 131.886719 C 83.3125 133.902344 79.4375 138.382812 78.445312 143.90625 C 78.226562 145.074219 78.128906 146.261719 78.136719 147.449219 C 78.15625 154.820312 81.03125 161.875 84.671875 168.160156 C 85.285156 169.214844 85.921875 170.253906 86.578125 171.28125 C 82.175781 166.03125 78.125 160.539062 75.214844 154.25 C 73.152344 149.523438 72.195312 143.597656 74.800781 138.90625 C 75.867188 137.007812 77.609375 135.554688 79.6875 134.890625 C 78.042969 135.210938 76.5 136.042969 75.316406 137.234375 C 74.101562 138.433594 73.234375 139.960938 72.6875 141.574219 C 72.265625 142.839844 72.011719 144.140625 71.90625 145.453125 C 70.222656 146.832031 65.175781 151.46875 65.3125 157.484375 C 65.375 160.042969 65.585938 162.195312 65.25 163.976562 C 63.003906 163.640625 61.46875 161.578125 61.46875 161.578125 C 62.3125 164.113281 63.683594 165.050781 64.835938 165.363281 C 64.496094 166.136719 63.976562 166.824219 63.195312 167.429688 C 60.382812 169.601562 56.371094 171.1875 56.011719 172.609375 C 55.8125 173.386719 56.019531 174.230469 57.417969 174.90625 C 58.578125 175.472656 59.019531 176.496094 59.796875 176.914062 C 59.796875 176.914062 59.046875 178.210938 57.710938 178.667969 C 56.371094 179.128906 57.164062 181.09375 58.210938 181.59375 C 59.253906 182.09375 60.1875 182.609375 60.59375 183.222656 C 60.59375 183.222656 58.253906 182.972656 57.960938 184.433594 C 57.667969 185.898438 59.6875 187.125 59.882812 188.070312 C 60.125 189.261719 59.15625 190.6875 58.753906 192.207031 C 58.082031 194.734375 59.964844 197.179688 63.390625 197.347656 C 66.816406 197.511719 74.460938 197.492188 76.261719 197.804688 C 81.277344 198.683594 88.714844 205.285156 90.382812 215.898438 C 92.054688 226.511719 87.625 231.441406 87.625 231.441406 C 87.625 231.441406 101.191406 222.695312 98.851562 207.765625 C 96.511719 192.832031 82.304688 183.308594 75.566406 168.65625 C 70.527344 157.707031 71.109375 150.316406 71.84375 147.007812 C 71.847656 150.285156 72.679688 153.585938 73.949219 156.582031 C 75.914062 161.222656 78.570312 165.546875 81.480469 169.644531 C 87.222656 177.730469 94.015625 184.902344 99.714844 192.980469 C 102.140625 196.449219 104.351562 200.085938 105.898438 204.011719 C 109.472656 213.09375 108.628906 223.804688 103.507812 232.128906 C 99.535156 238.6875 92.941406 243.480469 85.347656 244.800781 C 81.8125 245.4375 78.144531 245.378906 74.613281 244.765625 C 68.628906 243.726562 62.910156 240.472656 59.875 235.085938 C 57.136719 230.386719 56.753906 223.828125 60.511719 219.566406 C 61.835938 218.0625 63.617188 216.921875 65.605469 216.554688 C 69.785156 215.726562 74.28125 218.601562 74.257812 223.097656 C 74.257812 224.171875 73.992188 225.25 73.558594 226.261719 C 74.113281 225.300781 74.496094 224.230469 74.609375 223.117188 C 75.023438 219.507812 72.320312 216.296875 68.917969 215.367188 C 67.210938 214.871094 65.339844 214.90625 63.632812 215.433594 C 59.582031 216.679688 56.574219 220.328125 55.578125 224.382812 C 54.09375 230.226562 56.167969 236.558594 60.113281 240.984375 C 63.25 244.554688 67.582031 246.992188 72.128906 248.230469 C 87.339844 252.28125 101.167969 245.648438 108.050781 233.445312 C 106.285156 238.613281 103.496094 243.453125 99.515625 247.238281 C 98.539062 248.164062 97.488281 249.027344 96.375 249.828125 C 97.632812 249.28125 98.835938 248.59375 99.976562 247.804688 C 100.6875 247.316406 101.382812 246.765625 102.03125 246.203125 C 104.542969 244.019531 106.613281 241.355469 108.246094 238.453125 C 112.925781 229.992188 114.140625 219.816406 112.136719 210.359375 C 111.699219 207.636719 110.949219 204.964844 109.894531 202.414062 C 108.136719 198.183594 105.671875 194.289062 102.96875 190.632812 C 102.160156 189.535156 101.324219 188.457031 100.46875 187.390625 C 95.769531 180.664062 90.761719 174.144531 86.800781 166.953125 C 83.296875 160.597656 80.429688 153.488281 80.78125 146.113281 C 81.417969 135.585938 92.269531 130.585938 101.671875 133.375 Z M 101.671875 133.375 " fill-opacity="1" fill-rule="nonzero"/></g><g transform="matrix(1, 0, 0, 1, 154, 207)"><g clip-path="url(#67ffc558fc)"><g clip-path="url(#aefa6700f0)"><g fill="#6d123f" fill-opacity="1"><g transform="translate(0.220735, 8.338369)"><g><path d="M 4.71875 -1.734375 C 4.71875 -1.472656 4.660156 -1.226562 4.546875 -1 C 4.429688 -0.769531 4.273438 -0.582031 4.078125 -0.4375 C 3.703125 -0.144531 3.203125 0 2.578125 0 L 0.6875 0 L 0.6875 -6.1875 L 2.359375 -6.1875 C 3.253906 -6.1875 3.84375 -5.90625 4.125 -5.34375 C 4.21875 -5.144531 4.265625 -4.941406 4.265625 -4.734375 C 4.265625 -4.523438 4.25 -4.363281 4.21875 -4.25 C 4.1875 -4.132812 4.140625 -4.019531 4.078125 -3.90625 C 3.929688 -3.675781 3.75 -3.507812 3.53125 -3.40625 C 3.894531 -3.3125 4.1875 -3.117188 4.40625 -2.828125 C 4.613281 -2.523438 4.71875 -2.160156 4.71875 -1.734375 Z M 3.625 -4.640625 C 3.625 -5.265625 3.203125 -5.578125 2.359375 -5.578125 L 1.3125 -5.578125 L 1.3125 -3.640625 L 2.53125 -3.640625 C 2.863281 -3.640625 3.128906 -3.722656 3.328125 -3.890625 C 3.523438 -4.054688 3.625 -4.304688 3.625 -4.640625 Z M 4.078125 -1.84375 C 4.078125 -2.03125 4.046875 -2.191406 3.984375 -2.328125 C 3.910156 -2.460938 3.816406 -2.582031 3.703125 -2.6875 C 3.460938 -2.90625 3.179688 -3.015625 2.859375 -3.015625 L 1.3125 -3.015625 L 1.3125 -0.609375 L 2.75 -0.609375 C 3.144531 -0.609375 3.460938 -0.722656 3.703125 -0.953125 C 3.953125 -1.179688 4.078125 -1.476562 4.078125 -1.84375 Z M 4.078125 -1.84375 "/></g></g></g></g><g fill="#6d123f" fill-opacity="1"><g transform="translate(10.166006, 8.338369)"><g><path d="M 4.359375 0 L 0.6875 0 L 0.6875 -6.1875 L 4.359375 -6.1875 L 4.359375 -5.59375 L 1.3125 -5.59375 L 1.3125 -3.390625 L 4.265625 -3.390625 L 4.265625 -2.796875 L 1.3125 -2.796875 L 1.3125 -0.59375 L 4.359375 -0.59375 Z M 4.359375 0 "/></g></g></g><g fill="#6d123f" fill-opacity="1"><g transform="translate(20.247559, 8.338369)"><g><path d="M 1.6875 -2.28125 L 3.921875 -2.28125 L 2.8125 -5.125 Z M 5.515625 0 L 4.828125 0 L 4.171875 -1.6875 L 1.453125 -1.6875 L 0.78125 0 L 0.09375 0 L 2.8125 -6.609375 Z M 5.515625 0 "/></g></g></g><g fill="#6d123f" fill-opacity="1"><g transform="translate(30.901477, 8.338369)"><g><path d="M 5.15625 -2.046875 C 5.15625 -1.378906 4.9375 -0.851562 4.5 -0.46875 C 4.09375 -0.101562 3.546875 0.078125 2.859375 0.078125 C 2.160156 0.078125 1.609375 -0.101562 1.203125 -0.46875 C 0.765625 -0.851562 0.546875 -1.378906 0.546875 -2.046875 L 0.546875 -6.1875 L 1.1875 -6.1875 L 1.1875 -1.953125 C 1.1875 -1.484375 1.351562 -1.125 1.6875 -0.875 C 1.976562 -0.664062 2.367188 -0.5625 2.859375 -0.5625 C 3.609375 -0.5625 4.117188 -0.8125 4.390625 -1.3125 C 4.472656 -1.488281 4.515625 -1.703125 4.515625 -1.953125 L 4.515625 -6.1875 L 5.15625 -6.1875 Z M 5.15625 -2.046875 "/></g></g></g><g fill="#6d123f" fill-opacity="1"><g transform="translate(41.646246, 8.338369)"><g><path d="M 0.1875 -5.609375 L 0.1875 -6.203125 L 3.8125 -6.203125 L 3.8125 -5.609375 L 2.3125 -5.609375 L 2.3125 -0.015625 L 1.6875 -0.015625 L 1.6875 -5.609375 Z M 0.1875 -5.609375 "/></g></g></g><g fill="#6d123f" fill-opacity="1"><g transform="translate(50.692092, 8.338369)"><g><path d="M 3.078125 -2.90625 L 3.078125 0 L 2.4375 0 L 2.4375 -2.90625 L 0.09375 -6.1875 L 0.90625 -6.1875 L 2.75 -3.53125 L 4.59375 -6.1875 L 5.40625 -6.1875 Z M 3.078125 -2.90625 "/></g></g></g><g fill="#6d123f" fill-opacity="1"><g transform="translate(61.236986, 8.338369)"><g/></g></g><g fill="#6d123f" fill-opacity="1"><g transform="translate(68.738353, 8.338369)"><g><path d="M 2.390625 -3.140625 C 2.035156 -2.878906 1.796875 -2.6875 1.671875 -2.5625 C 1.367188 -2.257812 1.21875 -1.984375 1.21875 -1.734375 C 1.21875 -1.421875 1.332031 -1.144531 1.5625 -0.90625 C 1.769531 -0.664062 2.03125 -0.546875 2.34375 -0.546875 C 2.675781 -0.546875 3.046875 -0.738281 3.453125 -1.125 C 3.554688 -1.21875 3.65625 -1.3125 3.75 -1.40625 Z M 2.34375 -4.15625 C 2.414062 -4.070312 2.484375 -3.992188 2.546875 -3.921875 C 2.640625 -3.984375 2.738281 -4.050781 2.84375 -4.125 C 2.9375 -4.195312 3.023438 -4.273438 3.109375 -4.359375 C 3.304688 -4.546875 3.40625 -4.753906 3.40625 -4.984375 C 3.40625 -5.203125 3.328125 -5.378906 3.171875 -5.515625 C 3.023438 -5.640625 2.859375 -5.707031 2.671875 -5.71875 C 2.484375 -5.726562 2.316406 -5.671875 2.171875 -5.546875 C 2.015625 -5.421875 1.9375 -5.226562 1.9375 -4.96875 C 1.9375 -4.695312 2.070312 -4.425781 2.34375 -4.15625 Z M 5.40625 -2.40625 C 5.320312 -2.28125 5.050781 -1.941406 4.59375 -1.390625 L 5.65625 0 L 4.8125 0.015625 L 4.140625 -0.859375 C 3.835938 -0.554688 3.597656 -0.347656 3.421875 -0.234375 C 3.046875 -0.00390625 2.71875 0.109375 2.4375 0.109375 C 2.15625 0.109375 1.90625 0.0625 1.6875 -0.03125 C 1.457031 -0.113281 1.265625 -0.238281 1.109375 -0.40625 C 0.765625 -0.738281 0.59375 -1.164062 0.59375 -1.6875 C 0.59375 -2.28125 0.882812 -2.796875 1.46875 -3.234375 C 1.644531 -3.347656 1.820312 -3.472656 2 -3.609375 C 1.5625 -4.109375 1.34375 -4.554688 1.34375 -4.953125 C 1.34375 -5.328125 1.460938 -5.644531 1.703125 -5.90625 C 1.953125 -6.15625 2.273438 -6.28125 2.671875 -6.28125 C 3.054688 -6.28125 3.375 -6.160156 3.625 -5.921875 C 3.863281 -5.679688 3.984375 -5.375 3.984375 -5 C 3.984375 -4.59375 3.75 -4.195312 3.28125 -3.8125 C 3.15625 -3.695312 3.035156 -3.597656 2.921875 -3.515625 L 4.1875 -1.875 C 4.3125 -2.019531 4.429688 -2.164062 4.546875 -2.3125 L 4.890625 -2.75 Z M 5.40625 -2.40625 "/></g></g></g><g fill="#6d123f" fill-opacity="1"><g transform="translate(80.046401, 8.338369)"><g/></g></g><g fill="#6d123f" fill-opacity="1"><g transform="translate(87.547768, 8.338369)"><g><path d="M 6.359375 -1.890625 C 6.128906 -1.296875 5.753906 -0.820312 5.234375 -0.46875 C 4.703125 -0.09375 4.117188 0.09375 3.484375 0.09375 C 2.628906 0.09375 1.898438 -0.222656 1.296875 -0.859375 C 0.703125 -1.472656 0.40625 -2.210938 0.40625 -3.078125 C 0.40625 -3.515625 0.484375 -3.925781 0.640625 -4.3125 C 0.796875 -4.695312 1.015625 -5.03125 1.296875 -5.3125 C 1.898438 -5.945312 2.628906 -6.265625 3.484375 -6.265625 C 4.117188 -6.265625 4.695312 -6.085938 5.21875 -5.734375 C 5.738281 -5.367188 6.113281 -4.890625 6.34375 -4.296875 L 5.640625 -4.296875 C 5.304688 -4.910156 4.8125 -5.316406 4.15625 -5.515625 C 3.9375 -5.578125 3.6875 -5.609375 3.40625 -5.609375 C 3.113281 -5.609375 2.820312 -5.539062 2.53125 -5.40625 C 2.226562 -5.269531 1.96875 -5.085938 1.75 -4.859375 C 1.28125 -4.367188 1.046875 -3.773438 1.046875 -3.078125 C 1.046875 -2.398438 1.28125 -1.8125 1.75 -1.3125 C 2.226562 -0.8125 2.804688 -0.5625 3.484375 -0.5625 C 3.953125 -0.5625 4.378906 -0.679688 4.765625 -0.921875 C 5.148438 -1.171875 5.445312 -1.492188 5.65625 -1.890625 Z M 6.359375 -1.890625 "/></g></g></g><g fill="#6d123f" fill-opacity="1"><g transform="translate(99.219231, 8.338369)"><g><path d="M 1.6875 -2.28125 L 3.921875 -2.28125 L 2.8125 -5.125 Z M 5.515625 0 L 4.828125 0 L 4.171875 -1.6875 L 1.453125 -1.6875 L 0.78125 0 L 0.09375 0 L 2.8125 -6.609375 Z M 5.515625 0 "/></g></g></g><g fill="#6d123f" fill-opacity="1"><g transform="translate(109.873149, 8.338369)"><g><path d="M 1.3125 -3.0625 L 2.75 -3.0625 C 3.113281 -3.0625 3.410156 -3.179688 3.640625 -3.421875 C 3.867188 -3.671875 3.984375 -3.976562 3.984375 -4.34375 C 3.984375 -4.695312 3.875 -4.992188 3.65625 -5.234375 C 3.425781 -5.460938 3.125 -5.578125 2.75 -5.578125 L 1.3125 -5.578125 Z M 4.625 -4.3125 C 4.625 -3.78125 4.4375 -3.332031 4.0625 -2.96875 C 3.71875 -2.65625 3.304688 -2.484375 2.828125 -2.453125 L 4.734375 0 L 3.875 0 L 2.0625 -2.453125 L 1.3125 -2.453125 L 1.3125 0 L 0.6875 0 L 0.6875 -6.1875 L 2.671875 -6.1875 C 3.210938 -6.1875 3.675781 -6.015625 4.0625 -5.671875 C 4.4375 -5.304688 4.625 -4.851562 4.625 -4.3125 Z M 4.625 -4.3125 "/></g></g></g><g fill="#6d123f" fill-opacity="1"><g transform="translate(119.863851, 8.338369)"><g><path d="M 4.359375 0 L 0.6875 0 L 0.6875 -6.1875 L 4.359375 -6.1875 L 4.359375 -5.59375 L 1.3125 -5.59375 L 1.3125 -3.390625 L 4.265625 -3.390625 L 4.265625 -2.796875 L 1.3125 -2.796875 L 1.3125 -0.59375 L 4.359375 -0.59375 Z M 4.359375 0 "/></g></g></g></g></g></svg>