<svg width="374" height="178" viewBox="0 0 374 178" fill="none" xmlns="http://www.w3.org/2000/svg">
<g clip-path="url(#clip0_56407_22496)">
<mask id="mask0_56407_22496" style="mask-type:luminance" maskUnits="userSpaceOnUse" x="74" y="0" width="316" height="160">
<path d="M390 0H74V160H390V0Z" fill="white"/>
</mask>
<g mask="url(#mask0_56407_22496)">
<path d="M79.6035 74.9027C79.6035 69.96 80.2073 65.6214 81.4196 61.8818C82.6418 58.1318 84.4778 55.0902 86.9274 52.7568C89.3221 50.4131 92.1957 48.736 95.5483 47.736C98.9009 46.7256 102.638 46.2152 106.763 46.2152C110.475 46.2152 113.638 46.7881 116.262 47.9235C118.882 49.0641 120.892 50.6058 122.289 52.5485C123.696 54.4964 124.404 56.6631 124.404 59.0485C124.404 60.4808 123.97 61.6475 123.107 62.5485C122.239 63.4548 121.117 63.9027 119.734 63.9027C118.363 63.9027 117.245 63.4548 116.382 62.5485C115.514 61.6475 115.085 60.4808 115.085 59.0485C115.085 57.6058 115.514 56.4339 116.382 55.5277C117.245 54.6266 118.363 54.1735 119.734 54.1735C121.211 54.1735 122.334 54.7881 123.107 56.0068C122.279 53.4131 120.483 51.2673 117.719 49.5693C114.95 47.861 111.298 47.0068 106.763 47.0068C102.742 47.0068 99.2301 47.9652 96.2268 49.8818C93.2334 51.7985 90.9035 54.7933 89.2422 58.861C87.5909 62.9183 86.7677 68.1527 86.7677 74.5693C86.7677 81.3193 87.546 86.7673 89.1025 90.9027C90.6591 95.0433 92.8193 98.0589 95.5882 99.9443C98.3521 101.835 101.575 102.778 105.247 102.778C107.931 102.778 110.141 102.559 111.872 102.111C113.598 101.653 115.254 100.918 116.842 99.9027V80.9443C116.842 79.4027 116.686 78.2673 116.382 77.5277C116.072 76.7777 115.385 76.2881 114.307 76.0485C113.239 75.8141 111.543 75.6943 109.218 75.6943V74.9027H129.134V75.6943C127.657 75.6943 126.559 75.8141 125.841 76.0485C125.133 76.2881 124.674 76.7777 124.464 77.5277C124.265 78.2673 124.165 79.4027 124.165 80.9443L124.085 103.174H123.326L119.974 99.5068C118.028 100.84 115.903 101.856 113.588 102.549C111.273 103.226 108.49 103.569 105.247 103.569C100.058 103.569 95.5383 102.549 91.6968 100.507C87.8503 98.4652 84.8719 95.3193 82.7566 91.0693C80.6512 86.8193 79.6035 81.4339 79.6035 74.9027Z" fill="#6D123F"/>
<path d="M133.252 44.0693C135.592 44.0693 137.573 43.9391 139.199 43.6735C140.82 43.3975 142.496 42.9183 144.228 42.236H144.986V96.7152C144.986 98.2047 145.096 99.335 145.326 100.111C145.566 100.877 146.049 101.382 146.782 101.632C147.525 101.871 148.609 101.986 150.035 101.986V102.778H133.252V101.986C134.714 101.986 135.807 101.871 136.525 101.632C137.243 101.382 137.713 100.877 137.942 100.111C138.167 99.335 138.281 98.2047 138.281 96.7152V50.0485C138.281 48.4547 138.172 47.2985 137.962 46.5902C137.763 45.8714 137.304 45.4027 136.585 45.1943C135.877 44.9756 134.769 44.861 133.252 44.861V44.0693Z" fill="#6D123F"/>
<path d="M170.024 62.1527C172.618 62.1527 174.933 62.3298 176.968 62.6735C179.004 63.0068 180.73 63.6266 182.156 64.5277C185.814 66.6527 187.645 70.2464 187.645 75.2985V96.7152C187.645 98.2048 187.754 99.335 187.984 100.111C188.224 100.877 188.707 101.382 189.441 101.632C190.184 101.871 191.267 101.986 192.693 101.986V102.778H180.94V93.0485C179.967 96.6214 178.23 99.2673 175.731 100.986C173.241 102.71 170.393 103.569 167.189 103.569C163.478 103.569 160.629 102.71 158.649 100.986C156.663 99.2673 155.676 96.7777 155.676 93.5277C155.676 88.7516 157.711 85.2985 161.782 83.1735C165.853 81.0485 172.238 79.9652 180.94 79.9235V73.5485C180.94 70.0902 179.992 67.46 178.106 65.6527C176.23 63.8506 173.535 62.9443 170.024 62.9443C166.76 62.9443 164.281 63.4652 162.58 64.5068C160.874 65.5381 159.747 66.8193 159.187 68.361C159.851 67.5173 160.714 67.0902 161.782 67.0902C163.005 67.0902 163.927 67.4652 164.555 68.2152C165.194 68.9548 165.513 69.9027 165.513 71.0693C165.513 72.1423 165.219 73.0485 164.636 73.7985C164.047 74.5381 163.099 74.9027 161.782 74.9027C160.504 74.9027 159.547 74.5433 158.909 73.8193C158.279 73.1006 157.97 72.1839 157.97 71.0693C157.97 68.6839 158.893 66.6006 160.744 64.8193C162.605 63.0433 165.698 62.1527 170.024 62.1527ZM180.94 86.361V80.6318C174.075 80.6891 169.175 81.7048 166.252 83.6735C163.324 85.6318 161.862 88.8402 161.862 93.2985C161.862 95.8975 162.465 97.9339 163.678 99.4027C164.9 100.861 166.836 101.59 169.485 101.59C171.465 101.59 173.336 101.08 175.092 100.049C176.849 99.0068 178.255 97.3714 179.323 95.1318C180.401 92.8975 180.94 89.9756 180.94 86.361Z" fill="#6D123F"/>
<path d="M196.279 63.986C198.619 63.986 200.6 63.8558 202.227 63.5902C203.848 63.3141 205.524 62.835 207.256 62.1527H208.013V68.9235C208.623 66.8975 209.694 65.2673 211.226 64.0277C212.753 62.7777 214.863 62.1527 217.553 62.1527C220.716 62.1527 223.14 62.9131 224.816 64.4235C226.493 65.9391 227.555 67.9183 228.009 70.361C228.528 67.9183 229.556 65.9391 231.102 64.4235C232.659 62.9131 234.959 62.1527 238.007 62.1527C241.878 62.1527 244.638 63.2568 246.289 65.4652C247.95 67.6631 248.784 70.3766 248.784 73.611V96.7152C248.784 98.2048 248.893 99.335 249.123 100.111C249.347 100.877 249.826 101.382 250.56 101.632C251.303 101.871 252.385 101.986 253.812 101.986V102.778H242.138V72.4235C242.138 70.0902 241.649 68.1266 240.681 66.5277C239.723 64.9339 238.047 64.1318 235.652 64.1318C233.867 64.1318 232.43 64.6266 231.342 65.611C230.25 66.6006 229.471 67.8923 229.007 69.486C228.553 71.0693 228.329 72.8193 228.329 74.736V96.7152C228.329 98.2048 228.438 99.335 228.668 100.111C228.892 100.877 229.371 101.382 230.105 101.632C230.848 101.871 231.931 101.986 233.358 101.986V102.778H221.683V72.4235C221.683 70.0902 221.209 68.1266 220.267 66.5277C219.334 64.9339 217.673 64.1318 215.278 64.1318C213.491 64.1318 212.064 64.6266 210.987 65.611C209.92 66.6006 209.156 67.8923 208.692 69.486C208.238 71.0693 208.013 72.8193 208.013 74.736V96.7152C208.013 98.2048 208.123 99.335 208.352 100.111C208.592 100.877 209.077 101.382 209.809 101.632C210.553 101.871 211.635 101.986 213.062 101.986V102.778H196.279V101.986C197.741 101.986 198.834 101.871 199.552 101.632C200.271 101.382 200.739 100.877 200.969 100.111C201.193 99.335 201.308 98.2048 201.308 96.7152V70.0277C201.308 68.4443 201.199 67.2881 200.989 66.5485C200.79 65.7985 200.33 65.3193 199.612 65.111C198.904 64.8923 197.797 64.7777 196.279 64.7777V63.986Z" fill="#6D123F"/>
<path d="M277.394 62.1527C283.191 62.1527 287.616 63.8402 290.664 67.2152C293.708 70.5798 295.234 75.7933 295.234 82.861C295.234 89.9339 293.708 95.1527 290.664 98.5277C287.616 101.892 283.191 103.569 277.394 103.569C271.592 103.569 267.162 101.892 264.103 98.5277C261.055 95.1527 259.533 89.9339 259.533 82.861C259.533 75.7933 261.055 70.5798 264.103 67.2152C267.162 63.8402 271.592 62.1527 277.394 62.1527ZM277.394 62.9443C274.999 62.9443 272.964 63.585 271.287 64.861C269.611 66.1423 268.339 68.2256 267.476 71.111C266.608 74.0016 266.179 77.9183 266.179 82.861C266.179 87.8089 266.608 91.7256 267.476 94.611C268.339 97.5016 269.611 99.585 271.287 100.861C272.964 102.142 274.999 102.778 277.394 102.778C279.829 102.778 281.869 102.142 283.52 100.861C285.181 99.585 286.434 97.5016 287.272 94.611C288.111 91.7256 288.529 87.8089 288.529 82.861C288.529 77.9183 288.111 74.0016 287.272 71.111C286.434 68.2256 285.181 66.1423 283.52 64.861C281.869 63.585 279.829 62.9443 277.394 62.9443Z" fill="#6D123F"/>
<path d="M300.973 63.986C303.313 63.986 305.293 63.8558 306.919 63.5902C308.541 63.3141 310.217 62.835 311.948 62.1527H312.707V70.111C314.184 64.8089 317.621 62.1527 323.024 62.1527C325.868 62.1527 328.182 62.9652 329.969 64.5902C331.749 66.2048 332.643 68.4964 332.643 71.4652C332.643 72.9548 332.208 74.0433 331.345 74.736C330.477 75.4339 329.535 75.7777 328.512 75.7777C327.499 75.7777 326.566 75.4443 325.718 74.7777C324.879 74.111 324.461 73.0381 324.461 71.5485C324.461 70.0641 324.879 68.9756 325.718 68.2777C326.566 67.585 327.499 67.236 328.512 67.236C329.879 67.236 330.897 67.8298 331.565 69.0068C331.111 66.9808 330.133 65.4652 328.631 64.4652C327.125 63.4548 325.259 62.9443 323.024 62.9443C319.617 62.9443 317.042 64.0902 315.301 66.3818C313.57 68.6631 312.707 71.9756 312.707 76.3193V96.7152C312.707 98.2048 312.817 99.335 313.046 100.111C313.285 100.877 313.755 101.382 314.462 101.632C315.181 101.871 316.249 101.986 317.676 101.986V102.778H300.973V101.986C302.434 101.986 303.527 101.871 304.246 101.632C304.964 101.382 305.433 100.877 305.662 100.111C305.887 99.335 306.002 98.2048 306.002 96.7152V70.0277C306.002 68.4443 305.891 67.2881 305.683 66.5485C305.482 65.7985 305.024 65.3193 304.305 65.111C303.597 64.8923 302.489 64.7777 300.973 64.7777V63.986Z" fill="#6D123F"/>
<path d="M351.33 62.1527C353.924 62.1527 356.24 62.3298 358.275 62.6735C360.311 63.0068 362.037 63.6266 363.464 64.5277C367.12 66.6527 368.952 70.2464 368.952 75.2985V96.7152C368.952 98.2048 369.061 99.335 369.291 100.111C369.53 100.877 370.014 101.382 370.748 101.632C371.491 101.871 372.573 101.986 374.001 101.986V102.778H362.247V93.0485C361.273 96.6214 359.538 99.2673 357.038 100.986C354.548 102.71 351.699 103.569 348.497 103.569C344.785 103.569 341.937 102.71 339.956 100.986C337.97 99.2673 336.982 96.7777 336.982 93.5277C336.982 88.7516 339.018 85.2985 343.089 83.1735C347.16 81.0485 353.546 79.9652 362.247 79.9235V73.5485C362.247 70.0902 361.298 67.46 359.413 65.6527C357.537 63.8506 354.843 62.9443 351.33 62.9443C348.068 62.9443 345.588 63.4652 343.887 64.5068C342.181 65.5381 341.053 66.8193 340.495 68.361C341.158 67.5173 342.021 67.0902 343.089 67.0902C344.311 67.0902 345.234 67.4652 345.863 68.2152C346.501 68.9548 346.821 69.9027 346.821 71.0693C346.821 72.1423 346.526 73.0485 345.942 73.7985C345.353 74.5381 344.406 74.9027 343.089 74.9027C341.812 74.9027 340.854 74.5433 340.215 73.8193C339.587 73.1006 339.278 72.1839 339.278 71.0693C339.278 68.6839 340.2 66.6006 342.052 64.8193C343.912 63.0433 347.005 62.1527 351.33 62.1527ZM362.247 86.361V80.6318C355.381 80.6891 350.483 81.7048 347.559 83.6735C344.63 85.6318 343.168 88.8402 343.168 93.2985C343.168 95.8975 343.772 97.9339 344.985 99.4027C346.207 100.861 348.143 101.59 350.792 101.59C352.772 101.59 354.643 101.08 356.4 100.049C358.155 99.0068 359.563 97.3714 360.63 95.1318C361.707 92.8975 362.247 89.9756 362.247 86.361Z" fill="#6D123F"/>
</g>
<mask id="mask1_56407_22496" style="mask-type:luminance" maskUnits="userSpaceOnUse" x="10" y="18" width="82" height="160">
<path d="M10 18H91.7865V178H10V18Z" fill="white"/>
</mask>
<g mask="url(#mask1_56407_22496)">
<path d="M72.2285 22.5C77.7129 24.0782 82.5514 27.5886 85.9264 32.1823C87.4108 34.1823 88.6452 36.3698 89.6348 38.6563C90.3066 40.1875 90.8639 41.7761 91.3483 43.3907C90.515 38.3907 88.5775 33.4479 85.4733 29.3646C78.5306 20.0157 65.5566 16.1823 54.692 20.5157C47.7493 23.2032 42.5827 29.1771 41.2598 36.5417C40.9681 38.099 40.8379 39.6823 40.8483 41.2657C40.8743 51.0938 44.7077 60.5 49.5618 68.8802C50.3795 70.2865 51.2285 71.6719 52.1035 73.0417C46.2337 66.0417 40.8327 58.7188 36.9525 50.3334C34.2025 44.0313 32.9264 36.1302 36.4004 29.875C37.8223 27.3438 40.1452 25.4063 42.916 24.5209C40.7233 24.9479 38.666 26.0573 37.0879 27.6459C35.4681 29.2448 34.3118 31.2813 33.5827 33.4323C33.0202 35.1198 32.6816 36.8542 32.541 38.6042C30.2962 40.4427 23.567 46.625 23.7493 54.6459C23.8327 58.0573 24.1139 60.9271 23.666 63.3021C20.6712 62.8542 18.6243 60.1042 18.6243 60.1042C19.7493 63.4844 21.5775 64.7344 23.1139 65.1511C22.6608 66.1823 21.9681 67.099 20.9264 67.9063C17.1764 70.8021 11.8275 72.9167 11.3483 74.8125C11.0827 75.849 11.3587 76.974 13.2233 77.875C14.7702 78.6302 15.3587 79.9948 16.3952 80.5521C16.3952 80.5521 15.3952 82.2813 13.6139 82.8907C11.8275 83.5052 12.8848 86.125 14.2806 86.7917C15.6712 87.4584 16.916 88.1459 17.4577 88.9636C17.4577 88.9636 14.3379 88.6302 13.9473 90.5782C13.5566 92.5313 16.2493 94.1667 16.5098 95.4271C16.8327 97.0157 15.541 98.9167 15.0046 100.943C14.1087 104.313 16.6191 107.573 21.1868 107.797C25.7545 108.016 35.9473 107.99 38.3483 108.407C45.0358 109.578 54.9525 118.381 57.1764 132.532C59.4056 146.683 53.4993 153.256 53.4993 153.256C53.4993 153.256 71.5879 141.594 68.4681 121.688C65.3483 101.776 46.4056 89.0782 37.4212 69.5417C30.7025 54.9427 31.4785 45.0886 32.4577 40.6771C32.4629 45.0469 33.5723 49.448 35.265 53.4427C37.8848 59.6302 41.4264 65.3959 45.3066 70.8594C52.9629 81.6407 62.0202 91.2032 69.6191 101.974C72.8535 106.599 75.8014 111.448 77.8639 116.683C82.6295 128.792 81.5045 143.073 74.6764 154.172C69.3795 162.917 60.5879 169.308 50.4629 171.068C45.7493 171.917 40.8587 171.839 36.1504 171.021C28.1712 169.636 20.5462 165.297 16.4993 158.115C12.8483 151.849 12.3379 143.104 17.3483 137.422C19.1139 135.417 21.4889 133.896 24.14 133.407C29.7129 132.302 35.7077 136.136 35.6764 142.131C35.6764 143.563 35.3223 145 34.7441 146.349C35.4837 145.068 35.9941 143.641 36.1452 142.157C36.6973 137.344 33.0931 133.063 28.5566 131.823C26.2806 131.162 23.7858 131.209 21.5098 131.912C16.1087 133.573 12.0983 138.438 10.7702 143.844C8.791 151.636 11.5566 160.078 16.8171 165.979C20.9993 170.74 26.7754 173.99 32.8379 175.641C53.1191 181.042 71.5566 172.198 80.7337 155.927C78.3795 162.818 74.6608 169.271 69.3535 174.318C68.0514 175.552 66.6504 176.703 65.166 177.771C66.8431 177.042 68.4473 176.125 69.9681 175.073C70.916 174.422 71.8431 173.688 72.7077 172.938C76.0566 170.026 78.817 166.474 80.9941 162.604C87.2337 151.323 88.8535 137.756 86.1816 125.146C85.5983 121.516 84.5983 117.953 83.192 114.552C80.8483 108.912 77.5618 103.719 73.9577 98.8438C72.8795 97.3802 71.765 95.9427 70.6243 94.5209C64.3587 85.5521 57.6816 76.8594 52.4004 67.2709C47.7285 58.7969 43.9056 49.3177 44.3743 39.4844C45.2233 25.448 59.692 18.7813 72.2285 22.5Z" fill="#6D123F"/>
</g>
<mask id="mask2_56407_22496" style="mask-type:luminance" maskUnits="userSpaceOnUse" x="145" y="113" width="175" height="16">
<path d="M319.667 113H145V129H319.667V113Z" fill="white"/>
</mask>
<g mask="url(#mask2_56407_22496)">
<mask id="mask3_56407_22496" style="mask-type:luminance" maskUnits="userSpaceOnUse" x="145" y="115" width="7" height="10">
<path d="M145.104 115.667H151.666V125H145.104V115.667Z" fill="white"/>
</mask>
<g mask="url(#mask3_56407_22496)">
<path d="M151.586 121.805C151.586 122.154 151.508 122.482 151.357 122.784C151.201 123.092 150.992 123.342 150.732 123.534C150.232 123.925 149.565 124.118 148.732 124.118H146.211V115.868H148.44C149.633 115.868 150.419 116.243 150.794 116.993C150.919 117.258 150.982 117.529 150.982 117.805C150.982 118.087 150.961 118.3 150.919 118.451C150.878 118.607 150.815 118.758 150.732 118.909C150.534 119.217 150.294 119.441 150.003 119.576C150.487 119.701 150.878 119.962 151.169 120.347C151.445 120.753 151.586 121.238 151.586 121.805ZM150.128 117.93C150.128 117.097 149.565 116.68 148.44 116.68H147.044V119.264H148.669C149.112 119.264 149.466 119.154 149.732 118.93C149.992 118.712 150.128 118.378 150.128 117.93ZM150.732 121.659C150.732 121.409 150.69 121.196 150.607 121.014C150.508 120.837 150.383 120.675 150.232 120.534C149.909 120.243 149.534 120.097 149.107 120.097H147.044V123.305H148.961C149.487 123.305 149.909 123.154 150.232 122.847C150.565 122.545 150.732 122.149 150.732 121.659Z" fill="#6D123F"/>
</g>
<path d="M164.367 124.118H159.471V115.868H164.367V116.659H160.304V119.597H164.242V120.389H160.304V123.326H164.367V124.118Z" fill="#6D123F"/>
<path d="M174.246 121.076H177.225L175.746 117.284L174.246 121.076ZM179.35 124.118H178.434L177.559 121.868H173.934L173.038 124.118H172.121L175.746 115.305L179.35 124.118Z" fill="#6D123F"/>
<path d="M193.076 121.389C193.076 122.279 192.784 122.982 192.201 123.493C191.659 123.982 190.93 124.222 190.013 124.222C189.081 124.222 188.346 123.982 187.805 123.493C187.221 122.982 186.93 122.279 186.93 121.389V115.868H187.784V121.514C187.784 122.139 188.003 122.618 188.451 122.951C188.836 123.232 189.357 123.368 190.013 123.368C191.013 123.368 191.69 123.034 192.055 122.368C192.164 122.133 192.221 121.847 192.221 121.514V115.868H193.076V121.389Z" fill="#6D123F"/>
<path d="M200.777 116.639V115.847H205.611V116.639H203.611V124.097H202.777V116.639H200.777Z" fill="#6D123F"/>
<path d="M216.692 120.243V124.118H215.838V120.243L212.713 115.868H213.796L216.255 119.409L218.713 115.868H219.796L216.692 120.243Z" fill="#6D123F"/>
<path d="M239.837 119.93C239.363 120.279 239.046 120.534 238.879 120.701C238.473 121.107 238.275 121.472 238.275 121.805C238.275 122.222 238.426 122.592 238.733 122.909C239.009 123.232 239.358 123.389 239.775 123.389C240.217 123.389 240.712 123.133 241.254 122.618C241.389 122.493 241.525 122.368 241.65 122.243L239.837 119.93ZM239.775 118.576C239.868 118.691 239.962 118.795 240.046 118.889C240.171 118.805 240.301 118.717 240.441 118.618C240.566 118.524 240.681 118.42 240.796 118.305C241.056 118.055 241.191 117.779 241.191 117.472C241.191 117.18 241.087 116.946 240.879 116.764C240.681 116.597 240.462 116.508 240.212 116.493C239.962 116.482 239.738 116.555 239.546 116.722C239.337 116.889 239.233 117.149 239.233 117.493C239.233 117.857 239.41 118.217 239.775 118.576ZM243.858 120.909C243.743 121.076 243.384 121.529 242.775 122.264L244.191 124.118L243.066 124.139L242.171 122.972C241.764 123.378 241.447 123.654 241.212 123.805C240.712 124.113 240.275 124.264 239.9 124.264C239.525 124.264 239.191 124.201 238.9 124.076C238.592 123.967 238.337 123.8 238.129 123.576C237.671 123.133 237.441 122.566 237.441 121.868C237.441 121.076 237.827 120.389 238.608 119.805C238.842 119.654 239.077 119.488 239.316 119.305C238.733 118.639 238.441 118.045 238.441 117.514C238.441 117.014 238.598 116.592 238.921 116.243C239.254 115.909 239.681 115.743 240.212 115.743C240.723 115.743 241.15 115.904 241.483 116.222C241.801 116.545 241.962 116.951 241.962 117.451C241.962 117.993 241.65 118.524 241.025 119.034C240.858 119.191 240.697 119.321 240.546 119.43L242.233 121.618C242.4 121.425 242.556 121.232 242.712 121.034L243.171 120.451L243.858 120.909Z" fill="#6D123F"/>
<path d="M270.208 121.597C269.901 122.389 269.401 123.024 268.708 123.493C268 123.993 267.218 124.243 266.375 124.243C265.234 124.243 264.26 123.821 263.458 122.972C262.666 122.154 262.27 121.17 262.27 120.014C262.27 119.43 262.375 118.883 262.583 118.368C262.791 117.857 263.083 117.41 263.458 117.035C264.26 116.191 265.234 115.764 266.375 115.764C267.218 115.764 267.989 116.003 268.687 116.472C269.38 116.962 269.88 117.597 270.187 118.389H269.25C268.802 117.571 268.145 117.029 267.27 116.764C266.979 116.68 266.645 116.639 266.27 116.639C265.88 116.639 265.489 116.732 265.104 116.91C264.698 117.092 264.354 117.337 264.062 117.639C263.437 118.295 263.125 119.087 263.125 120.014C263.125 120.92 263.437 121.701 264.062 122.368C264.698 123.035 265.468 123.368 266.375 123.368C267 123.368 267.567 123.212 268.083 122.889C268.593 122.555 268.989 122.128 269.27 121.597H270.208Z" fill="#6D123F"/>
<path d="M279.541 121.076H282.52L281.041 117.284L279.541 121.076ZM284.645 124.118H283.729L282.854 121.868H279.229L278.333 124.118H277.416L281.041 115.305L284.645 124.118Z" fill="#6D123F"/>
<path d="M293.247 120.034H295.164C295.648 120.034 296.044 119.878 296.352 119.555C296.654 119.222 296.81 118.816 296.81 118.326C296.81 117.857 296.664 117.462 296.372 117.139C296.065 116.837 295.664 116.68 295.164 116.68H293.247V120.034ZM297.664 118.368C297.664 119.076 297.414 119.675 296.914 120.159C296.456 120.576 295.904 120.805 295.268 120.847L297.81 124.118H296.664L294.247 120.847H293.247V124.118H292.414V115.868H295.06C295.779 115.868 296.398 116.097 296.914 116.555C297.414 117.045 297.664 117.649 297.664 118.368Z" fill="#6D123F"/>
<path d="M310.63 124.118H305.734V115.868H310.63V116.659H306.568V119.597H310.505V120.389H306.568V123.326H310.63V124.118Z" fill="#6D123F"/>
</g>
</g>
<defs>
<clipPath id="clip0_56407_22496">
<rect width="374" height="178" fill="white"/>
</clipPath>
</defs>
</svg>
