<svg width="229" height="301" viewBox="0 0 229 301" fill="none" xmlns="http://www.w3.org/2000/svg">
<path d="M145.369 28.3445C140.425 31.0319 135.632 33.6549 132.389 37.4239C125.472 45.4671 126.965 57.217 127.856 64.2163C129.333 75.8097 134.079 83.7086 143.584 99.4963C153.343 115.72 159.052 120.278 162.599 122.698C166.89 125.615 172.24 129.247 179.508 129.575C193.997 130.225 204.617 117.186 208.968 111.855C212.702 107.279 224.427 92.8916 222.108 73.056C219.742 52.8457 204.489 41.4409 198.216 36.7528C198.216 36.7528 184.327 26.3755 164.252 24.1685C162.593 23.9844 159.668 23.6892 155.941 24.3165C153.546 24.7181 150.466 25.5693 145.369 28.3445Z" fill="#F0E7EC"/>
<path d="M120.589 58.5197C121.314 64.1079 123.021 69.3612 126.761 73.7676L126.46 74.2174C125.966 74.0021 125.27 73.9351 125.006 73.5523C123.802 71.8299 122.485 70.1267 121.638 68.2177C119.813 64.1222 118.966 59.7493 119.023 55.2376C119.032 54.6491 119.545 54.0654 119.827 53.4817C120.283 53.9458 120.928 54.3333 121.154 54.8931C121.953 56.8499 122.452 58.9503 123.355 60.8545C125.312 64.9786 128.487 67.7488 132.857 69.0454C138.733 70.7869 143.818 73.892 148.099 78.3511C148.193 78.4468 148.32 78.5042 148.696 78.753C148.489 71.2414 145.305 65.0408 141.828 58.9407C142.788 57.9216 143.31 58.778 143.795 59.3713C147.318 63.6677 150.347 68.2895 152.54 73.4375C154.289 77.5425 155.127 81.8294 154.496 86.3602C153.396 79.906 151.495 73.7533 147.817 68.2368C147.915 68.5957 148.005 68.9641 148.118 69.3181C148.235 69.6865 148.372 70.0453 148.508 70.409C149.576 73.2461 150.216 76.1598 149.844 79.2123C149.783 79.7099 149.36 80.1644 149.106 80.638C148.71 80.351 148.245 80.1261 147.925 79.7721C144.1 75.4996 139.359 72.6002 133.972 71.1362C127.372 69.3372 123.059 65.3423 120.758 58.9072C120.711 58.778 120.646 58.6536 120.589 58.5293V58.5197Z" fill="#9D4671"/>
<path d="M71.9803 300.776C71.2379 299.197 70.4055 297.652 69.7765 296.025C68.5375 292.806 67.4971 289.506 66.2013 286.311C65.5817 284.785 65.7284 283.42 66.2249 281.979C66.5229 281.114 66.7593 280.229 67.0998 279.388C67.1944 279.155 67.5538 279.031 67.795 278.855C67.8943 279.136 68.1213 279.445 68.0646 279.692C67.847 280.724 67.4356 281.722 67.3032 282.764C67.1802 283.724 67.0998 284.794 67.393 285.683C68.6368 289.459 70.0177 293.191 71.3656 296.929C71.6635 297.761 72.0182 298.569 72.3445 299.392L72.8174 299.411C73.0255 298.94 73.3849 298.479 73.4228 297.994C73.6687 294.837 73.4606 291.727 71.9614 288.855C71.3561 287.695 71.3135 286.577 71.8101 285.389C72.5479 283.615 73.314 281.851 73.9761 280.049C74.1983 279.454 74.2693 278.741 74.2031 278.104C73.9051 275.232 73.4795 272.379 73.2147 269.507C73.0208 267.41 74.0612 265.874 75.8394 265.289C75.8772 265.37 75.9623 265.503 75.9387 265.532C73.6166 268.018 74.5199 270.967 74.8793 273.762C75.3806 277.624 76.0711 281.461 76.7379 285.298C77.0406 287.048 77.2629 287.138 79.1829 286.744C78.9465 284.238 78.6816 281.718 78.4877 279.193C78.3742 277.757 78.3411 276.306 78.3648 274.866C78.3695 274.504 78.7147 274.148 78.9039 273.791C79.0458 273.848 79.1876 273.9 79.3248 273.957C79.6416 277.248 79.9538 280.538 80.2848 283.829C80.3794 284.785 80.5118 285.74 80.6537 286.691C80.7908 287.614 81.2874 288.061 82.2569 287.814C82.5785 287.733 82.9142 287.685 83.2358 287.604C85.3498 287.057 85.2363 287.067 84.9762 284.903C84.6026 281.803 84.4039 278.679 84.1769 275.56C84.1486 275.175 84.4134 274.771 84.5411 274.371C84.7161 274.376 84.8958 274.385 85.0708 274.39C85.2032 275.241 85.3545 276.092 85.468 276.948C85.8605 279.949 86.1443 282.968 86.6503 285.95C86.953 287.718 87.5205 287.823 88.7737 286.63C91.0627 284.457 93.3469 282.283 95.6311 280.115C94.8602 279.497 94.8555 279.483 93.2381 280.348C92.453 280.767 91.6916 281.237 90.7789 281.765C90.6796 281.256 90.5803 280.905 90.5519 280.548C90.3722 278.342 90.3107 276.126 90.0128 273.934C89.7763 272.184 90.235 270.772 91.5167 269.659C92.453 268.846 93.5313 268.204 94.5244 267.448C96.2364 266.145 98.0382 264.928 99.613 263.463C101.94 261.304 103.42 258.604 103.434 255.342C103.439 253.725 103.633 252.455 105.662 252.265C105.463 251.961 105.392 251.799 105.274 251.68C102.597 248.998 99.8921 246.34 97.2437 243.625C96.5674 242.931 95.9148 242.693 94.9548 242.864C92.4767 243.307 90.6559 244.686 89.327 246.745C88.769 247.605 88.1022 247.933 87.1138 248.047C83.3162 248.494 79.5471 249.098 75.6928 248.471C73.8105 248.166 72.6424 247.391 71.8621 245.551C68.2443 237.054 65.9979 228.162 64.2954 219.123C62.678 210.526 61.141 201.905 59.831 193.251C58.4549 184.188 57.684 175.049 59.1359 165.919C59.7128 162.291 60.5499 158.61 61.9308 155.23C65.4399 146.637 72.4249 142.705 81.2921 141.854C83.5574 141.635 85.8747 142.006 88.1684 142.039C91.6585 142.092 95.1487 142.087 98.6341 142.111C100.81 142.13 102.427 141.126 103.448 139.262C104.158 137.964 104.725 136.576 105.231 135.178C106.206 132.472 106.22 132.477 109.043 133.152C112.666 134.018 116.293 134.911 119.958 135.563C124.115 136.3 128.319 136.471 132.533 135.843C133.488 135.701 133.758 135.335 133.796 134.369C133.881 132.168 134.141 129.976 134.34 127.632C128.258 129.182 122.483 128.055 117.139 125.012C111.852 122.002 108.476 117.023 105.137 112.073L104.792 112.254C105.222 113.652 105.61 115.064 106.087 116.443C107.544 120.627 109.875 124.203 113.422 126.909C113.649 127.085 113.867 127.275 114.075 127.475C115.021 128.378 114.869 128.787 113.711 129.296C106.291 132.539 100.691 129.581 95.8202 124.065C95.6169 123.832 95.4797 123.542 95.1534 123.438C96.8417 126.31 98.9131 128.806 102.138 130.637C101.382 131.017 100.895 131.383 100.356 131.507C94.0137 132.962 88.2346 131.816 83.0845 127.712C82.4933 127.242 81.7036 126.866 80.9705 126.776C78.431 126.467 76.4116 125.159 74.2598 123.4C74.4159 123.965 74.5105 124.236 74.5625 124.517C74.7658 125.554 74.2362 126.058 73.2809 125.587C72.3067 125.102 71.4223 124.417 70.5379 123.77C66.2533 120.656 64.1157 116.305 63.7468 111.117C63.5624 108.55 63.8178 105.939 64.0117 103.357C64.0684 102.577 64.5981 101.836 65.071 101.127C64.2481 106.995 64.6075 112.696 67.4025 117.927C68.4713 119.924 70.3535 121.479 71.8621 123.238L72.2073 122.957C72.2215 122.824 72.2546 122.686 72.2499 122.553C72.2405 121.907 72.2263 121.255 72.2121 120.608C72.8221 120.894 73.4653 121.122 74.0328 121.474C75.9718 122.672 77.8824 123.923 79.8166 125.13C80.0342 125.268 80.3463 125.259 80.8618 125.368C80.2139 124.351 79.6937 123.528 79.1687 122.71L79.3579 122.43C79.7457 122.653 80.195 122.81 80.5165 123.11C81.3631 123.889 82.1623 124.721 82.971 125.544C87.3408 130.009 92.8172 130.851 99.0503 130.489C95.3284 126.847 92.2591 123.024 90.8215 118.278C89.4122 113.623 87.3692 109.068 87.8468 103.933C88.0076 104.47 88.2299 104.993 88.3244 105.54C89.5777 112.805 92.4909 119.229 97.8443 124.379C100.606 127.032 103.841 128.835 107.728 129.177C109.469 129.329 111.133 128.987 112.628 128.05C112.604 127.888 112.623 127.755 112.571 127.717C107.019 123.618 104.673 117.665 103.004 111.255C99.3718 97.3421 100.649 83.6525 104.891 70.1435C106.792 64.0951 109.081 58.1751 111.242 52.2123C111.379 51.8414 111.947 51.6275 112.316 51.3374C112.618 51.8129 113.134 52.2646 113.191 52.7687C113.375 54.4329 113.191 56.159 113.522 57.79C114.609 63.1584 116.875 67.9942 120.497 72.1358C120.62 72.2785 120.734 72.4354 120.823 72.6018C120.861 72.6684 120.828 72.7777 120.828 72.8681C117.636 72.0978 112.562 63.1108 111.512 56.2588C111.304 56.5394 111.114 56.7153 111.034 56.9293C107.605 66.1255 104.484 75.412 103.094 85.1883C102.162 91.7645 102.058 98.3312 103.283 104.884C103.354 105.259 103.411 105.654 103.557 106.001C107.728 115.906 113.782 123.842 124.881 126.39C128.669 127.261 132.448 127.327 136.184 125.601C135.872 128.34 135.564 130.86 135.314 133.385C135.224 134.308 135.025 135.292 136.316 135.753C136.614 135.858 136.799 136.756 136.761 137.265C136.628 138.991 136.425 140.717 136.137 142.424C135.938 143.604 136.392 144.279 137.432 144.65C141.599 146.129 145.869 146.276 150.163 145.458C150.783 145.339 151.478 144.512 151.757 143.851C153.2 140.394 154.486 136.871 155.89 133.395C156.302 132.377 156.746 131.298 157.465 130.518C157.985 129.952 158.993 129.843 159.773 129.515C160.213 129.329 160.733 129.215 161.055 128.901C162.715 127.303 164.261 125.587 165.959 124.037C168.489 121.731 171.208 122.458 172.358 125.672C172.566 126.257 172.707 126.875 172.812 127.489C173.01 128.668 173.119 129.786 174.467 130.408C174.987 130.646 175.252 131.564 175.521 132.22C177.195 136.248 178.86 140.28 180.473 144.331C181.215 146.2 181.858 148.116 182.502 150.023C182.975 151.43 182.79 152.824 181.996 154.046C179.716 157.545 177.413 161.026 175.044 164.464C173.63 166.523 172.126 168.525 170.579 170.484C167.605 174.25 165.685 178.505 164.602 183.156C164.412 183.969 164.422 184.882 164.554 185.714C165.713 193.17 167.08 200.597 168.026 208.082C168.342 210.583 167.955 213.312 167.278 215.766C166.361 219.08 164.866 222.232 163.59 225.442C163.088 226.697 162.19 227.539 160.903 228.072C154.765 230.62 148.645 233.207 142.545 235.851C141.831 236.16 141.083 236.802 140.724 237.487C138.426 241.866 136.226 246.302 134.004 250.72C133.904 250.919 133.833 251.138 133.701 251.471C134.089 251.514 134.354 251.571 134.623 251.571C141.944 251.514 149.265 251.438 156.59 251.395C164.152 251.352 171.544 250.073 178.827 248.181C183.802 246.892 185.618 242.869 186.28 238.238C187.406 230.368 186.479 222.565 185.013 214.834C182.672 202.504 180.199 190.198 177.791 177.882C177.673 177.269 177.522 176.632 177.583 176.028C177.626 175.633 178.033 175.277 178.278 174.901C178.543 175.224 178.969 175.514 179.045 175.876C179.825 179.689 180.558 183.517 181.291 187.34C183.088 196.689 185.013 206.018 186.626 215.4C187.817 222.323 188.725 229.308 187.978 236.374C187.638 239.607 186.928 242.703 185.103 245.494C183.854 247.401 182.265 248.685 180.085 249.303C171.894 251.628 163.571 252.931 155.034 252.883C148.002 252.845 140.965 252.974 133.933 253.092C133.257 253.102 132.325 253.397 131.951 253.896C126.787 260.772 121.183 260.91 113.881 257.738C111.81 256.839 109.994 255.318 108.102 254.015C107.293 253.459 106.499 253.054 105.605 253.625C105.241 253.858 104.796 254.367 104.806 254.738C104.933 259.692 102.417 263.254 98.8327 266.188C97.168 267.548 95.2906 268.646 93.5218 269.873C93.0111 270.225 92.5192 270.61 92.0511 271.014C91.1052 271.832 90.8404 272.754 91.1762 274.067C91.616 275.764 91.7058 277.552 91.9659 279.416C92.4672 279.197 92.9638 278.865 93.4982 278.774C94.3211 278.632 95.2196 278.47 96.0047 278.655C97.1775 278.936 97.3903 280.172 96.5107 281.009C94.0468 283.358 91.6018 285.731 89.0622 287.999C88.5846 288.427 87.563 288.746 87.0476 288.522C86.1301 288.118 85.4727 288.218 84.5553 288.513C82.9852 289.017 81.3063 289.906 79.6842 288.413C79.4099 288.161 78.7667 288.284 78.2938 288.289C76.7852 288.308 75.8583 287.633 75.5603 286.107C75.305 284.799 75.0118 283.496 74.7186 282.127C73.0775 283.957 72.51 286.972 73.3424 289.05C74.4868 291.908 75.1915 294.856 74.5483 297.927C74.3355 298.936 73.6167 299.834 73.1295 300.785H71.9803V300.776ZM118.752 222.185C117.854 221.02 117.045 220.002 116.274 218.966C106.74 206.146 98.9462 192.376 93.1813 177.397C91.0343 171.825 88.1116 166.523 85.2268 161.278C83.023 157.274 79.5187 154.569 75.0874 153.275C69.2611 151.568 65.0568 153.537 62.5409 159.057C60.6208 163.27 60.3891 167.702 60.9093 172.21C61.5808 178.087 63.5955 183.608 65.5439 189.138C69.7387 201.02 76.1941 211.695 82.9615 222.213C89.2514 231.995 96.279 241.157 104.706 249.179C108.636 252.921 113.016 256.003 118.284 257.538C123.571 259.079 128.542 257.025 131.313 252.26C132.278 250.601 133.266 248.941 134.079 247.206C139.65 235.333 145.264 223.483 150.688 211.548C155.455 201.058 160.497 190.673 164.053 179.666C165.264 175.914 167.217 172.614 169.558 169.447C173.266 164.431 176.723 159.224 180.298 154.107C181.404 152.524 181.608 150.803 181.002 149.024C180.492 147.531 179.929 146.033 179.182 144.65C177.125 140.831 175.233 136.961 174.197 132.719C174.131 132.453 173.932 132.225 173.795 131.978C173.824 133.185 174.263 134.246 174.486 135.354C174.935 137.546 175.294 139.762 175.616 141.977C175.673 142.377 175.37 142.833 175.28 143.123C174.24 139.804 173.213 136.533 172.201 133.257C172.06 132.8 171.989 132.32 171.904 131.849C171.525 129.824 171.331 127.741 170.721 125.787C170.106 123.809 168.579 123.485 167.051 124.864C165.519 126.243 164.148 127.798 162.625 129.186C161.447 130.256 160.941 131.412 161.409 133.005C161.575 133.575 161.49 134.251 161.4 134.859C161.126 136.761 160.747 138.654 160.506 140.56C160.256 142.572 160.118 144.597 159.929 146.618L160.421 146.78C161.925 145.135 163.32 143.366 164.966 141.882C166.938 140.104 167.728 138.254 166.659 135.648C166.224 134.583 166.318 133.3 166.172 132.116L166.82 131.93C167.127 132.515 167.543 133.071 167.723 133.694C168.082 134.94 168.461 136.21 168.536 137.489C168.588 138.421 168.432 139.576 167.907 140.285C166.285 142.481 164.483 144.55 162.667 146.595C161.759 147.617 160.676 148.482 159.508 149.571C158.492 147.788 158.345 146.095 158.572 144.388C159.002 141.145 159.541 137.921 160.033 134.688C160.246 133.285 160.114 131.963 159.073 130.48C158.51 131.398 157.985 132.03 157.706 132.753C155.758 137.822 153.833 142.895 151.96 147.992C150.835 151.059 150.726 154.155 151.71 157.331C152.788 160.817 153.691 164.359 154.628 167.887C154.784 168.477 154.793 169.124 154.76 169.742C154.557 173.589 153.488 177.222 151.946 180.721C147.321 191.23 140.771 200.416 132.949 208.728C129.397 212.504 125.903 216.336 122.36 220.121C116.487 226.398 114.122 233.958 114.226 242.432C114.231 242.912 114.184 243.392 114.16 243.873L113.522 243.749C112.628 235.998 113.564 228.652 118.757 222.204L118.752 222.185Z" fill="#9D4671"/>
<path d="M55.5 105.559C56.3065 101.495 57.9665 97.826 60.4425 94.5416C60.7302 94.1617 61.098 93.8491 61.4329 93.5077L61.7583 93.7529C61.4942 94.229 61.2301 94.7099 60.9613 95.186C58.9946 98.6579 57.3063 102.236 57.0705 106.338C56.8111 110.858 58.4334 114.609 61.5885 117.701C61.9988 118.105 62.6968 118.191 63.2203 118.494C63.541 118.677 63.7862 118.999 64.0645 119.259C63.7579 119.504 63.3665 120.019 63.159 119.947C62.0696 119.581 60.8198 119.307 60.0133 118.557C57.7732 116.479 56.4527 113.786 55.8396 110.752C55.7405 110.281 55.6132 109.819 55.5 109.358V105.559Z" fill="#9D4671"/>
<path d="M176.912 131.385C179.638 126.432 178.32 121.905 176.246 117.55C174.328 113.52 172.547 109.461 172.027 105C171.664 101.892 171.432 98.7397 171.479 95.607C171.616 86.2519 171.432 76.9446 168.98 67.8331C167.109 60.8848 164.289 54.4284 159.144 49.2805C157.486 47.6234 155.657 46.0953 153.715 44.7916C144.2 38.3925 133.906 33.7699 122.704 31.3439C117.323 30.1787 111.984 30.2504 106.764 32.2465C103.414 33.5311 100.787 35.6132 99.1999 38.9512C99.0015 39.3667 98.3873 39.8299 97.9526 39.8394C93.5825 39.9397 89.7746 41.5872 86.2218 43.9941C85.8155 44.2663 85.4045 44.5289 84.762 44.9444C86.0423 41.6493 93.9416 38.0057 97.9432 38.6504C101.401 31.5158 107.765 29.6152 114.918 29.2236C120.299 28.9323 125.449 30.1357 130.509 31.8645C137.265 34.1758 143.737 37.1127 149.988 40.5987C160.873 46.6635 167.605 55.8372 170.653 67.9763C172.963 77.1691 173.374 86.5098 173.175 95.9031C173.02 103.458 174.47 110.583 177.9 117.307C179.728 120.883 180.083 124.68 179.279 128.591C179.034 129.79 178.571 130.893 176.912 131.389V131.385Z" fill="#9D4671"/>
<path d="M131.017 115.665C130.633 115.5 129.92 115.432 129.473 114.96C127.984 113.379 126.562 111.69 125.168 109.978C124.5 109.159 124.595 108.3 125.457 107.765C127.289 106.634 129.076 105.309 131.003 104.501C134.203 103.159 137.845 107.003 137.561 111.246C137.525 111.752 137.276 112.361 136.969 112.702C135.349 114.516 133.431 115.449 131.017 115.665ZM130.769 108.977L130.638 109.733L133.855 110.45L133.955 109.767C132.894 109.506 131.829 109.244 130.769 108.977Z" fill="#9D4671"/>
<path d="M181.818 122.098C181.685 121.472 181.633 120.818 181.414 120.225C180.341 117.331 179.444 114.348 178.071 111.6C176.342 108.133 175.288 104.524 174.704 100.745C174.628 100.261 174.861 99.7337 174.951 99.2256H175.345C175.469 99.4844 175.654 99.7385 175.701 100.016C176.513 104.547 178.119 108.763 180.237 112.88C181.467 115.275 181.828 118.117 182.516 120.775C182.616 121.166 182.374 121.646 182.293 122.088L181.818 122.098Z" fill="#9D4671"/>
<path d="M182.967 119.239L182.54 114.95C183.348 116.264 183.44 117.708 182.967 119.239Z" fill="#9D4671"/>
<path d="M49.2928 142.052C49.3865 141.023 49.3802 139.374 48.6679 137.578C48.2493 136.53 47.7431 135.207 46.7933 135.022C45.5124 134.772 44.1252 136.735 43.6691 137.578C41.1446 142.206 46.5122 149.754 47.4182 151C49.6927 149.92 54.1479 147.37 55.5413 142.691C55.7288 142.065 56.4723 139.566 55.5413 138.856C54.1791 137.821 50.1551 141.298 49.2928 142.052Z" fill="#D8B5C6"/>
<path d="M43.4937 51C43.3114 51.0123 44.2147 54.898 42.481 57.7347C41.0106 60.1388 38.1185 61.0286 36 61.4082C36.8587 61.547 39.0096 62.0204 40.8608 63.8572C43.6922 66.6653 43.5301 70.4 43.4937 71C43.5018 70.0531 43.6476 67.849 45.1139 65.6939C47.4795 62.2163 51.3641 61.6898 52 61.6123C50.3716 61.6816 48.0425 61.5061 46.3291 59.9796C43.1089 57.1143 43.7205 50.9837 43.4937 51Z" fill="#F0E7EC"/>
<path d="M15.9937 185C15.8114 185.012 16.7147 188.898 14.981 191.735C13.5106 194.139 10.6185 195.029 8.5 195.408C9.35873 195.547 11.5096 196.02 13.3608 197.857C16.1922 200.665 16.0301 204.4 15.9937 205C16.0018 204.053 16.1476 201.849 17.6139 199.694C19.9795 196.216 23.8641 195.69 24.5 195.612C22.8716 195.682 20.5425 195.506 18.8291 193.98C15.6089 191.114 16.2205 184.984 15.9937 185Z" fill="#F0E7EC"/>
<path d="M7.99367 122C7.81139 122.012 8.71468 125.898 6.98101 128.735C5.51063 131.139 2.61848 132.029 0.5 132.408C1.35873 132.547 3.50962 133.02 5.36076 134.857C8.19215 137.665 8.03013 141.4 7.99367 142C8.00177 141.053 8.1476 138.849 9.61392 136.694C11.9795 133.216 15.8641 132.69 16.5 132.612C14.8716 132.682 12.5425 132.506 10.8291 130.98C7.60886 128.114 8.22051 121.984 7.99367 122Z" fill="#F0E7EC"/>
<path d="M133.994 3.2545e-05C133.811 0.0122774 134.715 3.89799 132.981 6.73472C131.511 9.13879 128.618 10.0286 126.5 10.4082C127.359 10.547 129.51 11.0204 131.361 12.8572C134.192 15.6653 134.03 19.4 133.994 20C134.002 19.0531 134.148 16.849 135.614 14.6939C137.979 11.2163 141.864 10.6898 142.5 10.6123C140.872 10.6816 138.543 10.5061 136.829 8.97961C133.609 6.11431 134.221 -0.016294 133.994 3.2545e-05Z" fill="#F0E7EC"/>
<path d="M202.589 160C202.441 160.01 203.174 163.118 201.766 165.388C200.571 167.311 198.221 168.023 196.5 168.327C197.198 168.438 198.945 168.816 200.449 170.286C202.75 172.532 202.618 175.52 202.589 176C202.595 175.242 202.714 173.479 203.905 171.755C205.827 168.973 208.983 168.552 209.5 168.49C208.177 168.545 206.285 168.405 204.892 167.184C202.276 164.891 202.773 159.987 202.589 160Z" fill="#F0E7EC"/>
<path d="M202.793 238.052C202.886 237.023 202.88 235.374 202.168 233.578C201.749 232.53 201.243 231.207 200.293 231.022C199.012 230.772 197.625 232.735 197.169 233.578C194.645 238.206 200.012 245.754 200.918 247C203.193 245.92 207.648 243.37 209.041 238.691C209.229 238.065 209.972 235.566 209.041 234.856C207.679 233.821 203.655 237.298 202.793 238.052Z" fill="#D8B5C6"/>
<path d="M215.793 133.052C215.886 132.023 215.88 130.374 215.168 128.578C214.749 127.53 214.243 126.207 213.293 126.022C212.012 125.772 210.625 127.735 210.169 128.578C207.645 133.206 213.012 140.754 213.918 142C216.193 140.92 220.648 138.37 222.041 133.691C222.229 133.065 222.972 130.566 222.041 129.856C220.679 128.821 216.655 132.298 215.793 133.052Z" fill="#D8B5C6"/>
<path d="M42.7928 246.052C42.8865 245.023 42.8802 243.374 42.1679 241.578C41.7493 240.53 41.2431 239.207 40.2933 239.022C39.0124 238.772 37.6252 240.735 37.1691 241.578C34.6446 246.206 40.0122 253.754 40.9182 255C43.1927 253.92 47.6479 251.37 49.0413 246.691C49.2288 246.065 49.9723 243.566 49.0413 242.856C47.6791 241.821 43.6551 245.298 42.7928 246.052Z" fill="#D8B5C6"/>
</svg>
