<svg width="235" height="273" viewBox="0 0 235 273" fill="none" xmlns="http://www.w3.org/2000/svg">
<path d="M62.4805 171.993C44.0518 168.442 33.7143 171.11 29.2216 172.544C25.1324 173.856 3.94485 180.638 0.869769 195.702C-2.34708 211.45 16.2452 226.304 24.8598 233.197C56.1559 258.208 92.6207 252.098 100.101 250.841C109.512 249.264 122.488 246.893 128.453 236.505C132.553 229.37 131.506 221.64 131.179 219.412C127.177 192.372 86.4596 176.624 62.4805 171.993Z" fill="#F0E7EC"/>
<path d="M229.778 196.21C229.62 196.389 229.368 196.547 229.315 196.747C227.81 203.199 224.507 208.817 221.213 214.457C215.216 224.745 207.724 233.853 199.201 242.128C196.455 244.795 193.488 247.199 189.584 247.8C187.658 248.095 185.649 248.042 183.702 247.873C181.419 247.673 179.304 247.831 177.273 249.033C176.126 249.708 174.948 250.161 174.232 251.468C173.622 252.564 171.96 252.775 170.623 251.7C168.298 249.834 165.604 249.94 162.921 249.486C155.23 248.19 147.748 249.697 140.204 250.656C138.678 250.846 137.121 250.888 135.574 250.857C134.48 250.836 133.67 250.256 133.502 249.001C132.47 249.075 131.513 249.223 130.555 249.202C127.557 249.149 126.357 247.62 126.789 244.395C118.192 244.669 109.638 244.353 101.094 243.678V243.246C101.525 243.193 101.957 243.098 102.388 243.109C109.532 243.172 116.677 243.256 123.821 243.33C125.116 243.341 126.41 243.309 127.704 243.256C127.978 243.256 128.304 243.151 128.514 242.982C132.176 240.062 136.49 238.555 140.878 237.205C141.267 237.089 141.646 236.921 142.098 236.752C141.719 235.561 141.12 234.686 139.867 234.623C137.942 234.517 136.016 234.528 134.091 234.486C132.418 234.444 130.734 234.549 129.093 234.317C127.725 234.127 127.462 233.231 128.483 232.293C129.345 231.492 130.429 230.807 131.545 230.427C136.29 228.804 141.172 228.625 146.096 229.457C146.959 229.605 147.822 229.732 148.969 229.911C148.632 229.426 148.474 229.099 148.232 228.867C146.17 226.833 144.076 224.819 142.024 222.774C141.267 222.015 140.593 221.161 139.836 220.413C139.562 220.149 139.152 219.96 138.773 219.886C133.933 219.053 129.103 218.125 124.242 217.461C117.003 216.47 109.743 215.595 102.483 214.784C95.5487 214.004 88.5831 213.803 81.5018 214.109C81.5649 218.094 79.0607 220.813 77.0194 223.776C75.1149 226.538 73.2315 229.32 71.327 232.093C70.6325 233.105 70.8851 233.737 71.8847 234.433C76.4091 237.595 81.5228 239.314 86.7733 240.716C89.6879 241.496 92.6236 242.213 95.5487 242.972C95.8854 243.056 96.2116 243.182 96.5378 243.298L96.5062 243.615C96.1169 243.636 95.717 243.731 95.3488 243.667C88.8146 242.476 82.2909 241.211 76.2303 238.376C74.1469 237.406 72.2424 236.078 70.2748 234.865C69.2752 234.254 69.1384 233.411 69.6961 232.377C70.3905 231.081 71.0008 229.753 71.7374 228.266C67.9389 227.476 64.9822 225.283 61.7414 222.932C62.1834 225.684 61.3627 227.771 59.7107 229.721C61.2574 229.141 61.4363 228.867 62.8673 225.526C63.0567 225.968 63.4039 226.411 63.4144 226.854C63.446 228.287 61.773 230.448 60.3736 230.701C59.5739 230.838 58.7111 230.617 57.7536 230.554C57.8799 230.375 58.0061 230.174 58.164 229.974C58.8163 229.11 59.616 228.308 60.1 227.36C61.51 224.63 61.1312 222.142 58.9321 220.002C56.491 217.609 55.3967 214.847 56.0806 211.442C56.3016 210.335 56.3542 209.186 56.5751 208.069C58.7216 197.654 60.826 187.228 63.1198 176.835C63.688 174.273 64.7087 171.764 65.8871 169.413C68.444 164.29 68.7596 158.977 68.0441 153.422C67.4865 149.132 67.1077 144.81 66.8972 140.488C66.7289 137.02 68.2335 134.184 71.1376 132.223C72.7054 131.169 74.3468 130.231 75.9988 129.324C76.7564 128.913 77.1983 128.544 76.9773 127.596C76.7248 126.468 77.1036 125.529 78.1032 124.876C79.429 124.001 80.7021 123.021 82.091 122.251C84.8899 120.701 87.3099 118.72 89.3617 116.274C91.161 114.134 93.1181 112.31 96.0327 111.836C96.2958 111.794 96.7061 111.161 96.6535 110.877C96.1169 108.073 95.5592 105.269 94.8542 102.496C94.7069 101.895 94.0861 101.221 93.5074 100.947C87.2994 97.9424 82.817 93.1777 79.3448 87.3377C79.2711 87.2112 79.1449 87.1058 79.0502 86.9899L78.6924 87.0531C79.1238 93.3885 79.5552 99.7134 79.9866 106.049L79.8814 106.123C79.671 105.564 79.3553 105.016 79.2711 104.446C78.7345 100.62 78.0506 96.7934 77.798 92.9458C77.4298 87.3167 77.1878 81.6664 77.2719 76.0268C77.3982 67.0138 77.9243 58.0114 80.7547 49.3464C81.2282 47.8916 81.9122 46.4475 82.7329 45.1614C84.0376 43.1164 84.8268 43.011 86.8996 44.2127C88.5305 45.1614 90.1509 46.1523 91.8029 47.0694C96.8534 49.8629 102.388 51.3176 107.933 52.6775C111.216 53.4786 113.247 55.3234 113.815 58.6228C114.772 64.2203 115.73 69.8073 116.498 75.4364C117.498 82.7311 118.287 90.0574 119.202 97.3626C119.791 102.075 120.328 106.808 121.138 111.488C121.475 113.438 122.275 115.367 123.19 117.149C125.484 121.64 129.44 123.516 134.428 122.599C135.901 122.325 137.363 121.882 138.784 121.376C141.604 120.375 144.445 120.174 147.338 120.881C148.601 121.186 149.653 120.986 150.81 120.343C152.41 119.447 154.146 118.741 155.871 118.119C157.934 117.37 160.417 118.161 161.764 119.9C162.826 121.26 163.731 122.746 164.857 124.043C165.804 125.139 166.804 126.404 168.066 126.984C172.822 129.187 176.831 132.423 180.84 135.702C190.121 143.271 197.96 152.21 205.535 161.423C210.954 168.022 216.594 174.442 222.002 181.051C224.096 183.613 225.874 186.448 227.674 189.231C228.389 190.338 228.757 191.677 229.315 192.9C229.42 193.121 229.652 193.29 229.82 193.48V196.262L229.778 196.21ZM96.4641 116.97L96.1695 116.801C94.8227 118.277 93.4548 119.732 92.1396 121.239C90.0878 123.6 88.278 126.12 87.4678 129.219C85.9526 135.006 86.1631 140.709 88.3411 146.317C91.9817 155.688 96.9797 164.354 102.03 172.998C102.093 173.113 102.241 173.177 102.546 173.44C101.82 168.285 102.241 163.468 103.851 158.767C105.439 154.139 107.533 149.796 110.574 146.623C108.954 150.249 106.944 154.255 105.366 158.429C103.609 163.11 103.104 169.909 104.04 171.775C114.425 151.619 129.935 135.986 147.591 121.987C144.834 121.439 142.445 121.429 140.067 122.283C138.689 122.778 137.279 123.242 135.848 123.516C128.388 124.96 124.042 122.356 121.433 116.316C121.001 115.315 120.538 114.292 120.349 113.228C119.697 109.675 119.139 106.102 118.602 102.538C118.287 100.399 118.087 98.2481 117.803 95.8025C111.91 102.707 105.04 105.395 96.3273 102.096C96.4115 102.623 96.4641 102.981 96.5272 103.329C97.0428 106.228 97.6321 109.116 98.074 112.026C98.7474 116.569 96.8324 120.501 94.97 124.423C94.9174 124.528 94.7175 124.56 94.286 124.77C95.0752 121.987 95.7802 119.479 96.4957 116.959L96.4641 116.97ZM103.63 102.401C106.681 102.349 109.154 101.748 111.248 100.093C112.9 98.7963 114.457 97.3837 116.077 96.0555C117.277 95.0751 117.624 93.8629 117.413 92.3555C116.509 85.6511 115.709 78.9257 114.762 72.2213C114.11 67.6041 113.331 63.0081 112.51 58.412C112.068 55.9348 110.522 54.4063 108.007 53.9319C107.27 53.7949 106.534 53.584 105.808 53.3943C99.2735 51.7498 92.8866 49.7575 87.2573 45.8466C84.8794 44.1916 84.3112 44.3813 83.0591 47.0483C82.8276 47.5438 82.6066 48.0498 82.4698 48.5768C81.7017 51.4968 80.7758 54.3957 80.2497 57.3684C78.8187 65.3904 78.5346 73.5179 78.7766 81.6453C78.8292 83.4796 79.6184 85.4297 80.5338 87.0742C82.3541 90.3104 84.7741 93.1355 87.6256 95.5495C92.3816 99.5763 97.8109 101.99 103.63 102.412V102.401ZM180.714 203.462C173.969 199.594 167.298 195.756 160.491 191.856C160.333 192.562 160.238 192.921 160.164 193.29C158.049 203.367 155.956 213.445 153.82 223.523C153.43 225.378 152.978 225.61 151.063 225.367C150.484 225.294 149.884 225.23 149.306 225.251C148.948 225.273 148.601 225.473 148.043 225.663C148.506 226 148.716 226.19 148.958 226.337C152.115 228.161 155.377 229.848 158.407 231.871C159.807 232.799 160.701 232.24 161.816 231.724C162.921 231.218 162.364 230.269 162.437 229.51C162.5 228.846 162.416 228.161 162.406 227.486C162.353 224.651 163.531 222.447 165.836 220.835C166.899 220.086 167.982 219.359 169.024 218.568C171.854 216.439 174.58 214.183 176.41 211.073C177.841 208.649 179.188 206.182 180.714 203.473V203.462ZM127.736 245.744C130.619 244.859 133.165 243.889 135.806 243.33C138.363 242.792 140.951 241.96 143.655 242.539C142.908 243.003 142.14 243.288 141.341 243.393C137.237 243.92 133.291 245.038 129.451 246.545C129.051 246.703 128.704 246.977 128.335 247.188V247.547C128.83 247.715 129.303 248.021 129.787 248.032C130.955 248.063 132.144 248.032 133.302 247.884C136.711 247.41 140.099 246.83 143.508 246.366C143.982 246.303 144.508 246.693 145.013 246.872C144.529 247.083 144.055 247.399 143.55 247.483C141.151 247.863 138.731 248.147 136.332 248.527C135.785 248.611 135.28 248.98 134.764 249.223L134.922 249.845C143.119 249.887 151.126 247.41 159.617 247.937C157.587 242.94 155.65 238.186 158.87 233.221L149.979 228.667L149.779 228.846L152.22 231.587L152.01 231.871C150.726 231.566 149.442 231.25 148.159 230.965C142.519 229.721 136.911 229.658 131.376 231.545C130.534 231.829 129.777 232.409 128.988 232.841L129.135 233.347C129.861 233.421 130.587 233.579 131.303 233.569C133.817 233.537 136.343 233.4 138.857 233.4C140.709 233.4 142.193 234.096 143.035 235.898C143.161 236.172 143.634 236.32 143.982 236.457C144.329 236.605 144.718 236.668 145.086 236.763C144.75 237.005 144.455 237.364 144.087 237.49C141.488 238.323 138.773 238.86 136.3 239.967C133.607 241.169 131.124 242.856 128.588 244.405C128.199 244.637 128.051 245.259 127.757 245.755L127.736 245.744ZM57.7536 215.564L57.5747 215.964C58.2271 216.924 58.7321 218.062 59.5739 218.811C62.0781 221.035 64.6455 223.206 67.3392 225.188C68.5176 226.053 70.0749 226.411 71.4848 226.97C72.1898 227.244 72.7685 227.075 73.2315 226.411C75.1465 223.649 77.1246 220.919 79.0081 218.136C79.7972 216.976 80.155 215.659 79.913 214.014C72.4739 214.541 65.119 215.058 57.7536 215.574V215.564ZM141.951 220.561L141.825 220.898C143.203 222.163 144.56 223.449 145.97 224.682C146.17 224.851 146.686 224.872 146.928 224.735C147.591 224.345 148.18 223.839 148.78 223.354C148.79 223.354 148.517 222.816 148.306 222.743C146.202 221.994 144.076 221.288 141.961 220.561H141.951Z" fill="#9D4671"/>
<path d="M30.14 221.283C31.6563 216.362 33.2145 211.452 34.668 206.521C38.213 194.42 41.6326 182.287 45.2612 170.206C45.9305 167.988 45.9514 166.221 44.9789 164.055C42.5319 158.609 42.8456 153.121 45.6795 147.832C46.0769 147.097 46.4638 146.35 46.9344 145.656C48.4193 143.469 49.4651 141.125 50.2807 138.57C51.1801 135.742 52.6127 132.997 54.2441 130.495C60.7485 120.517 64.0948 109.52 65.5797 97.7759C66.5104 90.4477 65.6843 83.2036 65.3915 75.9175C65.151 70.1453 64.7536 64.3101 65.2765 58.5801C66.1549 48.9178 71.028 41.1585 78.1076 34.682C86.4316 27.0594 95.5608 24.515 100.737 23.7055C103.707 23.2429 110.222 22.2546 117.971 24.515C117.971 24.515 125.04 26.5758 131.565 31.8748C141.5 39.9389 159.047 83.498 174.44 145.425C171.136 129.465 167.727 116.228 165.029 106.523C149.552 50.6946 136.302 34.2719 123.21 27.6692C121.035 26.5758 119.278 25.9554 117.981 25.5664C101.208 20.5408 82.28 30.2977 73.6109 41.6947C70.2751 46.079 68.6228 50.4949 68.4241 51.0311C66.8974 55.1736 66.1967 59.5789 66.2804 64.2155C66.3954 70.7972 66.8137 77.3894 67.3889 83.9501C68.4764 96.3985 68.1313 108.689 64.2412 120.686C62.3798 126.416 59.4936 131.557 55.7081 136.236C53.1356 139.421 50.6049 142.681 48.3566 146.098C43.0025 154.235 43.8495 162.794 50.4899 169.891C51.6088 171.079 52.7591 172.235 53.8571 173.444C55.9381 175.747 57.1198 178.502 57.6218 181.54C58.0923 184.431 57.193 186.881 54.9133 188.7C53.0206 190.214 51.0128 191.581 49.0468 193C46.5266 194.83 44.5502 197.09 43.2221 199.95C41.8208 202.967 42.0613 205.764 44.3305 208.224C45.805 209.822 47.4259 211.284 49.0154 212.756C50.8141 214.417 52.2572 216.278 52.414 218.843C52.6755 223.112 49.8834 226.256 45.2717 227.065C41.3502 227.749 37.5438 227.181 33.7791 226.077C33.089 225.877 32.106 225.572 31.3112 224.689C30.2655 223.501 30.14 222.008 30.14 221.283ZM66.019 104.084C65.8412 104.337 65.7784 104.4 65.7575 104.473C65.6425 104.915 65.5275 105.367 65.4438 105.819C63.7393 114.651 60.4034 122.799 55.593 130.379C54.2022 132.566 53.0519 134.89 51.8075 137.171C51.5252 137.697 51.3474 138.296 51.1278 138.854C60.9263 129.402 64.9314 117.489 66.019 104.095V104.084Z" fill="#9D4671"/>
<path d="M98.3884 227.645C98.4798 227.668 98.5827 227.645 98.6512 227.702C101.13 229.558 102.444 229.18 105.095 227.095C105.483 226.785 106.077 226.74 106.58 226.579C106.454 227.141 106.477 227.839 106.157 228.252C104.318 230.658 101.485 231.185 99.3367 229.547C98.7883 229.134 98.4456 228.458 98 227.908L98.377 227.645H98.3884Z" fill="#9D4671"/>
<path d="M97.22 90.5365C97.5119 89.3672 97.6683 88.4428 97.9602 87.5741C98.3876 86.3157 99.2425 85.6586 100.514 85.3245C102.391 84.8345 104.163 84.6563 105.977 85.5473C107.103 86.1041 107.51 87.0062 107.312 88.2312C106.926 90.6145 105.592 92.2293 103.517 93.1314C101.484 94.0223 99.6804 93.3095 98.054 91.9843C97.6266 91.639 97.4493 90.9486 97.22 90.5365Z" fill="#9D4671"/>
<path d="M22.49 144.768C22.3194 144.779 23.1649 148.417 21.5422 151.072C20.1659 153.322 17.4589 154.155 15.476 154.51C16.2797 154.64 18.293 155.083 20.0256 156.802C22.6758 159.431 22.5242 162.926 22.49 163.488C22.4976 162.602 22.6341 160.539 24.0066 158.521C26.2208 155.266 29.8567 154.774 30.452 154.701C28.9278 154.766 26.7478 154.602 25.144 153.173C22.1298 150.491 22.7023 144.753 22.49 144.768Z" fill="#F0E7EC"/>
<path d="M228.222 170.089C228.31 169.126 228.304 167.582 227.637 165.901C227.245 164.92 226.772 163.682 225.883 163.508C224.684 163.275 223.385 165.112 222.958 165.901C220.595 170.232 225.619 177.297 226.467 178.464C228.596 177.453 232.766 175.066 234.071 170.687C234.246 170.101 234.942 167.762 234.071 167.098C232.796 166.129 229.029 169.383 228.222 170.089Z" fill="#D8B5C6"/>
<path d="M86.886 264.625C86.9737 263.662 86.9679 262.118 86.3011 260.437C85.9093 259.456 85.4355 258.218 84.5465 258.044C83.3476 257.811 82.0492 259.647 81.6222 260.437C79.2594 264.768 84.2833 271.833 85.1314 273C87.2603 271.989 91.4304 269.602 92.7346 265.223C92.9101 264.637 93.6061 262.298 92.7346 261.634C91.4596 260.664 87.6931 263.919 86.886 264.625Z" fill="#D8B5C6"/>
<path d="M195.462 90.5288C195.55 89.5657 195.544 88.0222 194.877 86.3412C194.485 85.3601 194.012 84.1218 193.123 83.9483C191.924 83.715 190.625 85.5515 190.198 86.3412C187.835 90.6724 192.859 97.7374 193.707 98.904C195.836 97.893 200.006 95.506 201.311 91.127C201.486 90.5408 202.182 88.2017 201.311 87.5377C200.036 86.5685 196.269 89.8229 195.462 90.5288Z" fill="#D8B5C6"/>
<path d="M49.4461 112.993C49.5338 112.03 49.5279 110.486 48.8612 108.805C48.4693 107.824 47.9956 106.586 47.1066 106.412C45.9076 106.179 44.6092 108.016 44.1823 108.805C41.8194 113.136 46.8434 120.201 47.6915 121.368C49.8204 120.357 53.9905 117.97 55.2947 113.591C55.4702 113.005 56.1662 110.666 55.2947 110.002C54.0197 109.033 50.2532 112.287 49.4461 112.993Z" fill="#D8B5C6"/>
<path d="M201.266 112.008C201.095 112.019 201.941 115.657 200.318 118.312C198.942 120.562 196.235 121.395 194.252 121.75C195.056 121.88 197.069 122.323 198.802 124.042C201.452 126.671 201.3 130.166 201.266 130.728C201.274 129.842 201.41 127.779 202.783 125.761C204.997 122.506 208.633 122.014 209.228 121.941C207.704 122.006 205.524 121.842 203.92 120.413C200.906 117.731 201.478 111.993 201.266 112.008Z" fill="#F0E7EC"/>
<path d="M166.634 34.32C166.464 34.3315 167.309 37.9685 165.686 40.6237C164.31 42.8739 161.603 43.7068 159.62 44.0621C160.424 44.192 162.437 44.6351 164.17 46.3543C166.82 48.9827 166.668 52.4784 166.634 53.04C166.642 52.1537 166.778 50.0907 168.151 48.0735C170.365 44.8185 174.001 44.3257 174.596 44.2531C173.072 44.318 170.892 44.1538 169.288 42.7249C166.274 40.043 166.847 34.3048 166.634 34.32Z" fill="#F0E7EC"/>
<path d="M100.178 0.624054C100.008 0.635515 100.853 4.27254 99.2303 6.92772C97.854 9.17793 95.147 10.0108 93.1641 10.3661C93.9678 10.496 95.9811 10.9391 97.7137 12.6583C100.364 15.2868 100.212 18.7824 100.178 19.344C100.186 18.4577 100.322 16.3947 101.695 14.3775C103.909 11.1225 107.545 10.6297 108.14 10.5571C106.616 10.622 104.436 10.4578 102.832 9.02894C99.818 6.34702 100.39 0.608772 100.178 0.624054Z" fill="#F0E7EC"/>
<path d="M159.146 252.408C158.976 252.419 159.821 256.056 158.198 258.712C156.822 260.962 154.115 261.795 152.132 262.15C152.936 262.28 154.949 262.723 156.682 264.442C159.332 267.071 159.18 270.566 159.146 271.128C159.154 270.242 159.29 268.179 160.663 266.161C162.877 262.906 166.513 262.414 167.108 262.341C165.584 262.406 163.404 262.242 161.8 260.813C158.786 258.131 159.358 252.393 159.146 252.408Z" fill="#F0E7EC"/>
<path d="M29.9781 61.464C29.8075 61.4755 30.6529 65.1125 29.0302 67.7677C27.6539 70.0179 24.9469 70.8507 22.964 71.206C23.7678 71.3359 25.781 71.7791 27.5137 73.4983C30.1638 76.1267 30.0122 79.6224 29.9781 80.184C29.9856 79.2977 30.1221 77.2346 31.4946 75.2175C33.7088 71.9625 37.3447 71.4697 37.94 71.3971C36.4158 71.462 34.2358 71.2977 32.632 69.8689C29.6179 67.187 30.1904 61.4487 29.9781 61.464Z" fill="#F0E7EC"/>
</svg>
