<svg width="215" height="250" viewBox="0 0 215 250" fill="none" xmlns="http://www.w3.org/2000/svg">
<path d="M21.4654 130.346C16.1256 134.158 10.9558 137.857 7.74068 142.657C0.885424 152.906 4.32722 166.204 6.36679 174.124C9.75193 187.253 16.4089 195.639 29.6945 212.425C43.3483 229.676 50.6143 234.095 55.0901 236.368C60.4865 239.107 67.2143 242.509 75.6842 241.845C92.5674 240.504 102.978 223.987 107.255 217.225C110.909 211.422 122.425 193.183 116.858 170.708C111.193 147.809 91.8733 136.897 83.9133 132.407C83.9133 132.407 66.3219 122.469 42.7393 122.836C40.7989 122.864 37.3571 122.949 33.1363 124.205C30.4168 125.01 26.9609 126.436 21.4654 130.36V130.346Z" fill="#F0E7EC"/>
<path d="M128.008 6.10352e-05C129.189 0.294845 130.381 0.53294 131.539 0.895751C134.661 1.88214 137.125 3.6962 138.419 6.81411C138.85 7.86853 139.168 8.99098 138.26 10.2948C138.01 9.81864 137.806 9.58055 137.749 9.30844C136.796 4.3538 133.299 2.51706 128.746 1.85947C121.866 0.873076 115.929 2.83452 110.797 7.42635C109.378 8.69619 107.913 9.92068 106.483 11.1792C102.521 14.6712 97.9907 17.1429 93.0634 19.0363C89.385 20.4422 85.718 21.9501 82.2553 23.8095C76.4084 26.9615 71.6969 31.3379 69.2673 37.7211C67.4849 42.3923 67.6552 47.2109 68.166 52.0635C68.8699 58.7188 69.9371 65.3741 70.1301 72.0408C70.5729 87.4829 63.0344 98.2766 49.5015 105.159C46.3567 106.757 42.9849 107.902 39.7379 109.286C36.2071 110.794 32.8465 112.608 30.1899 115.431C25.6487 120.261 23.9003 125.805 26.3412 132.267C26.432 132.517 26.5683 132.755 26.7045 133.05C26.8407 132.891 26.9543 132.812 26.9883 132.71C29.0546 126.825 33.664 123.662 39.1475 121.451C40.6575 120.839 42.2128 120.317 43.7455 119.796C50.0238 117.642 54.8261 113.537 58.7543 108.333C59.4355 107.426 59.9237 106.36 60.4913 105.374L60.9909 105.544C60.8319 106.213 60.7865 106.939 60.48 107.54C58.0391 112.324 54.2925 115.941 49.7286 118.605C47.2082 120.079 44.3586 120.986 41.6452 122.12C40.5553 122.574 39.454 122.993 38.3641 123.413C27.4197 127.608 24.888 140.941 29.1114 149.184C31.8588 154.546 35.7189 158.639 41.4862 160.805C42.8713 161.326 44.2451 162.018 45.4258 162.902C48.2641 165.045 48.7749 168.186 46.9244 171.202C46.0502 172.63 45.0284 173.968 44.1656 175.408C42.6556 177.902 41.702 180.544 42.3831 183.537C43.3141 187.653 47.9235 191.134 52.3285 189.58C54.0655 188.968 54.4061 189.285 55.0078 191.202C56.5745 196.27 61.6607 199.49 66.9399 198.73C67.3259 198.673 67.7006 198.514 68.1888 198.378C67.6552 197.109 67.1556 195.963 66.6674 194.796C63.761 187.789 62.1375 180.397 60.1962 173.106C59.549 170.657 58.9473 168.197 58.2207 165.771C57.9823 164.988 57.4828 164.229 56.9378 163.605C56.3248 162.891 55.5414 162.313 54.8034 161.712C46.141 154.784 45.9026 143.503 50.6369 135.998C52.4306 133.163 54.9397 130.771 57.1989 128.254C58.4364 126.871 59.8783 125.68 61.1725 124.342C62.8755 122.585 64.8736 121.247 67.201 120.51C72.1056 118.968 77.1577 118.084 82.278 117.732C83.9355 117.619 85.6044 117.71 87.5231 117.71C86.3197 116.78 85.2298 115.794 84.0036 115.034C82.8229 114.308 81.4946 113.832 80.0073 113.129C82.6413 111.973 87.7047 114.818 90.6906 118.753C93.3586 122.267 93.6424 126.304 93.0634 130.828C94.3917 129.172 94.914 127.585 95.0729 125.862C95.493 121.224 93.7673 117.392 90.3954 114.342C87.7729 111.973 84.9346 109.841 82.2212 107.574C77.9978 104.048 74.7395 99.8072 73.7858 94.3196C72.0602 84.433 74.8871 75.9977 82.4937 69.2857C82.8229 69.0022 83.277 68.8548 83.6744 68.6507L83.9923 69.0362C83.436 69.6371 82.9024 70.2721 82.3007 70.8276C78.1681 74.6485 76.011 79.4671 75.0574 84.9319C73.7745 92.3015 75.7159 98.6961 80.961 103.968C83.2543 106.27 85.9904 108.129 88.3973 110.329C90.3614 112.12 92.4503 113.9 93.9717 116.043C99.1827 123.367 96.7986 132.494 88.7038 136.44C86.3991 137.562 83.856 138.208 81.4605 139.138C79.3148 139.977 77.1123 140.759 75.0914 141.837C65.4186 147.007 63.2842 156.054 66.6107 165.091C69.5852 173.152 75.8067 177.642 84.2307 179.138C88.8968 179.966 93.4494 179.626 97.7977 177.585C98.1723 177.403 98.547 177.211 99.2054 176.882C97.582 176.723 96.2877 176.803 95.1183 176.451C89.2147 174.648 85.6271 170.476 84.2307 164.648C82.2098 156.202 84.9119 149.172 91.6102 143.753C93.6651 142.086 96.1174 140.907 98.3653 139.456C100.988 137.766 103.769 136.247 106.154 134.274C111.183 130.113 113.976 124.569 114.884 118.163C115.736 112.12 112.25 106.202 106.426 103.56C104.575 102.721 102.634 102.052 100.727 101.338C90.6111 97.5849 87.875 88.6054 88.4313 80.9637C88.9422 73.9342 92.6206 68.2426 96.6396 62.7777C99.4893 58.9115 103.077 55.7823 106.994 53.0272C108.629 51.8821 110.275 50.7483 111.876 49.5691C116.281 46.3265 118.369 42.1088 117.223 36.5873C116.462 32.8685 115.622 29.161 114.918 25.4309C114.725 24.3991 114.748 23.254 114.952 22.2109C116.042 16.8028 123.319 12.3356 128.406 13.8889C131.312 14.7846 132.777 17.3356 132.039 20.2495C131.971 20.5102 131.755 20.737 131.278 20.9411C131.199 20.4535 131.074 19.9774 131.04 19.4898C130.812 16.2359 129.041 14.6486 125.794 14.8413C123.422 14.9887 121.378 15.9071 119.573 17.5624C121.798 17.3243 123.671 17.7778 124.784 19.9547C124.216 19.6599 123.626 19.3764 123.07 19.0703C120.004 17.3696 116.394 19.0703 116.042 22.5624C115.872 24.2404 116.122 25.9864 116.417 27.6644C117.041 31.1792 117.859 34.6599 118.54 38.1633C119.255 41.8367 118.415 45.2041 115.792 47.8345C113.408 50.2267 110.774 52.4036 108.038 54.3877C102.089 58.6961 98.1496 64.2857 96.5034 71.4285C96.265 72.4489 96.1288 73.6507 96.4239 74.6258C97.9566 79.5918 99.4325 84.5918 101.34 89.4104C104.121 96.3945 109.525 100.34 116.905 101.769C124.761 103.277 131.936 101.825 138.499 97.2448C141.87 94.8979 143.993 91.8026 144.697 87.7324C144.936 86.3378 145.061 84.7732 146.991 84.4557C147.184 84.4217 147.388 83.8095 147.411 83.458C147.592 81.0657 147.774 78.6734 147.854 76.2698C147.91 74.5918 148.569 73.4467 150.158 72.7891C152.088 72.0068 153.541 70.6349 154.438 68.7868C156.618 64.263 157.231 59.5465 155.857 54.6598C155.176 52.2222 154.007 51.1564 152.156 51.0771C150.09 50.9864 148.126 52.3356 147.309 54.3877C147.15 54.7846 146.968 55.17 146.798 55.5555L146.389 55.5329C146.321 55.17 146.162 54.7846 146.207 54.4331C146.502 52.1655 148.535 50.1701 150.919 49.7619C153.519 49.3084 155.403 50.136 156.573 52.483C157.152 53.6394 157.594 54.9319 157.765 56.2018C158.344 60.5328 158.06 64.7845 156.062 68.7868C154.847 71.2358 153.053 73.0839 150.487 74.1043C149.625 74.4557 149.193 74.9319 149.148 75.8956C149.034 78.4126 148.853 80.9296 148.671 83.7981C149.681 83.1972 150.453 82.7664 151.203 82.3015C152.508 81.4852 153.78 80.6122 155.131 79.8752C155.619 79.6144 156.493 79.4104 156.811 79.6598C157.254 80.0113 157.674 80.9183 157.515 81.3945C156.97 82.9931 156.346 84.6258 155.392 85.9977C154.62 87.1088 153.371 87.9364 152.236 88.7414C150.953 89.6484 150.124 90.7822 149.999 92.4829C150.612 91.9274 151.259 91.4058 151.838 90.8276C153.394 89.2403 155.244 88.1859 157.345 87.4376C160.081 86.4739 162.737 85.3174 165.451 84.297C167.018 83.7188 168.641 82.9591 170.003 84.7959C170.128 84.9773 170.673 84.9206 171.002 84.8639C174.318 84.3537 177.599 84.5011 180.891 85.0566C183.411 85.4875 185.659 86.4512 187.669 88.0045C193.834 92.7437 197.557 99.0022 198.454 106.667C199.226 113.356 199.453 120.113 199.873 126.837C200.055 129.818 200.101 132.812 200.237 135.794C200.259 136.281 200.384 136.769 200.464 137.245V143.764C199.079 145.091 197.728 146.462 196.286 147.744C195.582 148.367 194.742 148.855 193.902 149.308C192.891 149.852 192.517 150.623 192.573 151.746C192.642 153.242 192.664 154.739 192.607 156.224C192.221 166.814 191.904 177.403 191.347 187.982C191.098 192.664 190.484 197.347 189.769 201.995C188.895 207.63 185.659 211.542 180.312 213.651C178.666 214.297 177.031 214.966 175.351 215.487C164.44 218.855 153.144 219.898 141.848 220.929C136.421 221.428 130.994 221.836 125.579 222.347C125.022 222.403 124.432 222.823 123.967 223.197C122.491 224.399 121.128 225.725 119.607 226.87C115.826 229.716 111.751 230.034 107.414 228.174C102.475 226.054 98.4334 222.755 94.8345 218.855C89.8845 213.492 86.1153 207.29 82.1985 201.202C81.9374 200.793 81.6535 200.408 81.4492 200.102C79.5532 200.782 77.8503 201.576 76.0565 201.995C73.6837 202.551 71.3676 202.369 69.6306 200.249C69.4376 200.011 68.8132 199.943 68.4612 200.056C66.3382 200.691 64.2379 200.589 62.1603 199.966C58.2434 198.809 55.0078 196.848 53.7362 192.641C53.566 192.086 53.4411 191.53 53.2708 190.907C52.7939 191.02 52.3966 191.1 52.0106 191.213C48.1959 192.245 44.8695 191.19 42.5194 188.004C39.6697 184.138 39.9195 180.045 42.0993 175.998C43.0416 174.251 44.2564 172.653 45.3463 170.986C47.458 167.766 46.7087 165 43.2233 163.322C41.9177 162.698 40.5439 162.211 39.1929 161.689C28.0669 157.381 22.992 143.798 26.046 135.725C26.239 135.227 26.2163 134.535 26.0233 134.025C25.2967 132.007 24.4566 130.023 23.6505 128.016C23.6505 126.927 23.6505 125.839 23.6505 124.75C23.7413 124.546 23.8662 124.354 23.9003 124.138C24.6269 119.977 26.591 116.485 29.645 113.594C32.5513 110.839 36.0027 108.968 39.6697 107.426C42.7237 106.145 45.8458 105.045 48.8204 103.617C57.6758 99.365 64.1357 92.8797 67.167 83.3673C69.3014 76.6326 68.7678 69.7845 67.9844 62.9138C67.3486 57.3923 66.6674 51.8481 66.429 46.3038C66.0884 38.5828 69.3014 32.2676 74.9893 27.1202C79.5419 23.0046 84.98 20.4195 90.6452 18.2767C95.8449 16.3039 100.874 14.0817 105.052 10.2608C106.96 8.51479 108.98 6.89347 110.933 5.20413C113.408 3.04994 116.246 1.58736 119.437 0.839062C120.754 0.53294 122.082 0.283507 123.399 0.0113989H128.031L128.008 6.10352e-05ZM158.185 96.9387L157.674 96.4058C160.308 91.7459 164.157 88.2199 168.596 85.204C167.574 84.6144 167.324 84.5691 166.348 85.204C164.804 86.2358 163.18 87.1995 161.818 88.4466C159.241 90.8049 156.845 93.3333 154.347 95.7822C154.007 96.1224 153.541 96.3378 153.133 96.6212L152.679 96.077C155.335 93.0952 158.117 90.238 161.171 87.6076C157.719 88.5033 154.552 89.8072 152.031 92.4035C151.055 93.4013 149.908 94.2403 148.807 95.1133C148.603 95.272 148.228 95.2834 147.944 95.2607C147.854 95.2607 147.695 94.8752 147.74 94.7051C148.523 91.814 149.205 88.8661 152.179 87.2562C154.052 86.2358 155.233 84.5804 156.05 82.6643C156.289 82.0974 156.289 81.4285 156.448 80.4308C155.483 80.9637 154.904 81.2698 154.325 81.6099C151.941 83.0045 149.556 84.3877 147.195 85.8049C146.888 85.9863 146.605 86.3605 146.502 86.7006C145.401 90.238 144.232 93.7641 143.324 97.3582C142.881 99.1156 142.665 101.043 142.858 102.846C143.449 108.197 144.493 113.492 144.97 118.855C145.379 123.515 146.253 128.277 143.88 132.778C143.04 134.365 142.631 136.19 141.78 137.778C133.446 153.367 124.546 168.617 113.136 182.233C109.026 187.131 107.584 192.812 108.004 199.047C108.118 200.771 108.39 202.471 108.629 204.478C108.311 204.127 108.163 204.013 108.084 203.877C107.936 203.594 107.788 203.31 107.709 203.004C106.698 199.478 106.199 195.918 106.96 192.279C107.232 190.975 106.869 190.022 105.813 189.195C104.996 188.56 104.167 187.846 103.622 186.995C102.486 185.227 101.226 184.728 98.9897 184.954C91.5307 185.703 85.5363 189.467 79.451 193.367C79.6213 193.685 79.7122 193.889 79.837 194.081C83.277 199.353 86.5581 204.739 90.2365 209.852C92.9726 213.662 96.0833 217.233 99.3076 220.646C102.123 223.628 105.62 225.793 109.582 227.086C112.318 227.982 114.907 227.743 117.427 226.247C120.651 224.319 123.342 221.87 125.102 218.537C126.805 215.295 128.655 212.086 129.916 208.662C132.958 200.442 135.785 192.131 138.521 183.798C141.836 173.707 145.14 163.605 148.092 153.401C149.942 147.007 152.077 140.839 155.994 135.363C156.857 134.15 157.526 132.596 157.685 131.134C157.98 128.367 158.276 125.476 157.799 122.766C156.153 113.503 158.117 105.068 162.908 97.1428C164.622 94.3196 166.439 91.5532 168.187 88.7528C168.516 88.2199 168.743 87.619 169.016 87.0407L168.709 86.8253C168.335 87.0521 167.903 87.2222 167.597 87.5169C164.815 90.2947 162.056 93.1065 159.286 95.8956C158.934 96.2471 158.559 96.5759 158.185 96.916V96.9387ZM126.021 220.68C126.453 220.68 126.759 220.703 127.066 220.68C130.858 220.351 134.673 220.09 138.453 219.66C147.547 218.617 156.664 217.641 165.723 216.326C171.139 215.533 176.475 214.127 181.402 211.564C184.604 209.898 186.704 207.369 187.612 203.877C187.987 202.437 188.373 200.975 188.52 199.501C189.054 194.331 189.553 189.149 189.962 183.957C190.802 173.435 191.415 162.902 191.132 152.347C191.132 151.973 191.052 151.598 190.995 151.145C184.547 153.809 177.939 155.215 171.354 156.678C168.823 157.245 168.948 157.267 168.596 159.864C167.585 167.347 166.529 174.818 165.36 182.279C164.895 185.249 164.111 188.163 163.453 191.236C163.895 191.179 164.202 191.145 164.497 191.088C170.196 190.034 174.874 191.825 178.53 196.258C179.256 197.143 179.688 198.276 180.187 199.342C180.301 199.592 180.119 199.988 180.074 200.317L179.71 200.351C179.517 200.022 179.324 199.694 179.131 199.365C176.441 194.58 172.399 192.131 166.859 192.403C163.248 192.585 160.001 194.002 156.845 195.657C149.602 199.456 142.177 202.778 134.309 205.102C133.662 205.295 132.992 206.02 132.686 206.666C130.574 210.963 128.565 215.317 126.521 219.648C126.373 219.966 126.226 220.283 126.033 220.703L126.021 220.68ZM95.8903 78.4126L95.5838 78.3673C95.7541 80.3628 95.7995 82.3809 96.106 84.365C97.3776 92.4716 101.374 98.8094 108.56 102.982C114.929 106.678 117.802 113.628 115.849 120.93C115.304 122.97 114.566 124.955 113.885 127.075C114.884 127.472 115.872 127.88 116.882 128.277C122.002 130.283 127.043 130.283 131.993 127.687C136.376 125.385 139.895 122.097 142.983 118.311C143.358 117.846 143.551 117.041 143.471 116.44C142.915 112.086 142.29 107.744 141.632 103.413C141.28 101.077 140.962 98.7527 141.882 96.4625C141.916 96.3831 141.814 96.2584 141.746 96.0883C141.541 96.2357 141.394 96.3264 141.269 96.4512C135.785 101.769 129.166 104.127 121.594 103.798C111.217 103.333 103.406 98.9115 99.4552 88.9342C98.0928 85.4988 97.0711 81.9387 95.9017 78.424L95.8903 78.4126ZM96.7645 65.5215C94.5507 68.2313 92.8023 71.2585 91.4172 74.5124C89.2715 79.5691 89.192 84.7165 90.9177 89.8752C92.8023 95.4874 96.9462 98.6507 102.702 100.419C92.5979 89.9772 92.5752 78.1405 96.7645 65.5215ZM56.5178 131.224C51.2953 136.179 48.4798 142.086 49.3426 149.32C49.967 154.558 52.6918 158.605 57.1195 161.553C54.6899 151.462 53.5205 141.394 56.5178 131.224ZM80.6999 198.753C79.837 197.392 79.065 196.179 78.0773 194.637L73.1387 200.249C76.0224 200.895 78.2476 199.796 80.6999 198.753Z" fill="#9D4671"/>
<path d="M118.345 85.7161C120.726 80.8335 126.989 79.056 131.483 82.2361C133.073 83.3604 133.596 85.5233 132.717 87.2686C131.227 90.2132 128.357 91.6694 124.997 90.695C123.151 90.1597 121.538 88.9069 119.825 87.9539C119.625 87.8361 119.536 87.5363 119.402 87.3329C119.113 86.8939 118.824 86.4442 118.345 85.7161ZM123.195 85.0629L123.262 85.427L128.079 84.9451L128.034 84.5918C126.332 83.9065 124.731 84.1849 123.195 85.0629Z" fill="#9D4671"/>
<path d="M85.0794 48.8272C84.649 44.015 89.8351 32.5432 93.192 31.0719C89.5123 36.5368 86.5211 42.3114 85.0794 48.8272Z" fill="#9D4671"/>
<path d="M150.523 15.5359C148.185 13.444 145.193 13.3053 142.341 12.7159C141.675 12.5772 140.494 11.8954 140.541 11.7682C140.903 10.6356 141.862 11.2482 142.528 11.3868C144.34 11.7798 146.175 12.1612 147.881 12.843C149.003 13.2938 149.903 14.2761 150.897 15.0158L150.534 15.5243L150.523 15.5359Z" fill="#9D4671"/>
<path d="M145.328 102.093C144.635 100.206 144.969 99.0386 146.367 98.394C146.652 99.7111 146.256 100.813 145.328 102.093Z" fill="#9D4671"/>
<path d="M44.5959 64.2412C44.6884 63.2251 44.6823 61.5969 43.9789 59.8236C43.5655 58.7887 43.0658 57.4823 42.128 57.2993C40.8632 57.0532 39.4935 58.9906 39.0431 59.8236C36.5505 64.3926 41.8503 71.8456 42.7449 73.0762C44.9907 72.0097 49.3898 69.4917 50.7657 64.8722C50.9508 64.2538 51.685 61.7863 50.7657 61.0858C49.4207 60.0634 45.4473 63.4965 44.5959 64.2412Z" fill="#D8B5C6"/>
<path d="M207.516 72.1404C207.609 71.1244 207.602 69.4962 206.899 67.7229C206.486 66.6879 205.986 65.3816 205.048 65.1986C203.783 64.9524 202.414 66.8898 201.963 67.7229C199.471 72.2918 204.77 79.7448 205.665 80.9754C207.911 79.9089 212.31 77.3909 213.686 72.7715C213.871 72.153 214.605 69.6855 213.686 68.985C212.341 67.9627 208.367 71.3957 207.516 72.1404Z" fill="#D8B5C6"/>
<path d="M111.739 240.985C111.831 239.969 111.825 238.341 111.122 236.567C110.708 235.532 110.209 234.226 109.271 234.043C108.006 233.797 106.636 235.734 106.186 236.567C103.693 241.136 108.993 248.589 109.888 249.82C112.134 248.753 116.533 246.235 117.908 241.616C118.094 240.997 118.828 238.53 117.908 237.829C116.563 236.807 112.59 240.24 111.739 240.985Z" fill="#D8B5C6"/>
<path d="M52.6935 10.8703C52.5135 10.8824 53.4054 14.7191 51.6936 17.5201C50.2418 19.8939 47.3861 20.7725 45.2943 21.1473C46.1422 21.2843 48.266 21.7518 50.0938 23.5654C52.8895 26.3381 52.7295 30.0257 52.6935 30.6182C52.7015 29.6832 52.8455 27.5069 54.2933 25.379C56.6291 21.9453 60.4647 21.4254 61.0926 21.3488C59.4848 21.4173 57.185 21.244 55.4932 19.7367C52.3136 16.9075 52.9175 10.8542 52.6935 10.8703Z" fill="#F0E7EC"/>
<path d="M182.042 19.7571C181.862 19.7691 182.754 23.6059 181.042 26.4068C179.59 28.7806 176.734 29.6592 174.643 30.034C175.491 30.171 177.614 30.6385 179.442 32.4521C182.238 35.2249 182.078 38.9125 182.042 39.5049C182.05 38.5699 182.194 36.3936 183.642 34.2657C185.977 30.832 189.813 30.3121 190.441 30.2355C188.833 30.304 186.533 30.1307 184.842 28.6234C181.662 25.7943 182.266 19.7409 182.042 19.7571Z" fill="#F0E7EC"/>
<path d="M158.345 219.211C158.165 219.223 159.057 223.06 157.345 225.861C155.893 228.234 153.037 229.113 150.946 229.488C151.793 229.625 153.917 230.092 155.745 231.906C158.541 234.679 158.381 238.366 158.345 238.959C158.353 238.024 158.497 235.847 159.945 233.719C162.28 230.286 166.116 229.766 166.744 229.689C165.136 229.758 162.836 229.584 161.144 228.077C157.965 225.248 158.569 219.195 158.345 219.211Z" fill="#F0E7EC"/>
<path d="M8.26066 104.673C8.08068 104.685 8.97258 108.522 7.26076 111.323C5.80892 113.696 2.95323 114.575 0.86145 114.95C1.70936 115.087 3.83313 115.554 5.66094 117.368C8.45664 120.141 8.29665 123.828 8.26066 124.421C8.26866 123.486 8.41264 121.309 9.86049 119.182C12.1962 115.748 16.0318 115.228 16.6598 115.151C15.0519 115.22 12.7522 115.047 11.0604 113.539C7.8807 110.71 8.48463 104.657 8.26066 104.673Z" fill="#F0E7EC"/>
</svg>
