<svg width="95" height="103" viewBox="0 0 95 103" fill="none" xmlns="http://www.w3.org/2000/svg">
<g opacity="0.3">
<path d="M63.9504 39.1669C60.9806 38.3268 59.6611 42.9473 62.6425 43.7907C65.6239 44.634 66.9318 40.0102 63.9504 39.1669Z" stroke="#8A4165" stroke-width="0.75" stroke-linecap="round" stroke-linejoin="round"/>
<path d="M67.2726 49.4825C64.3028 48.6424 62.9833 53.263 65.9647 54.1063C68.9461 54.9496 70.254 50.3258 67.2726 49.4825Z" stroke="#8A4165" stroke-width="0.75" stroke-linecap="round" stroke-linejoin="round"/>
<path d="M57.8405 50.9718C54.8707 50.1317 53.5512 54.7523 56.5326 55.5956C59.514 56.439 60.8219 51.8151 57.8405 50.9718Z" stroke="#8A4165" stroke-width="0.75" stroke-linecap="round" stroke-linejoin="round"/>
<path d="M52.5648 32.8252C49.595 31.9851 48.2755 36.6057 51.2569 37.449C54.2383 38.2924 55.5462 33.6685 52.5648 32.8252Z" stroke="#8A4165" stroke-width="0.75" stroke-linecap="round" stroke-linejoin="round"/>
<path d="M40.7858 36.4346C37.816 35.5946 36.4965 40.2151 39.4779 41.0584C42.4593 41.9018 43.7672 37.278 40.7858 36.4346Z" stroke="#8A4165" stroke-width="0.75" stroke-linecap="round" stroke-linejoin="round"/>
<path d="M48.5137 45.9116C45.5439 45.0715 44.2244 49.6921 47.2058 50.5354C50.1872 51.3788 51.4951 46.755 48.5137 45.9116Z" stroke="#8A4165" stroke-width="0.75" stroke-linecap="round" stroke-linejoin="round"/>
<path d="M34.2322 54.7059C31.2624 53.8658 29.9429 58.4864 32.9243 59.3297C35.9057 60.173 37.2136 55.5492 34.2322 54.7059Z" stroke="#8A4165" stroke-width="0.75" stroke-linecap="round" stroke-linejoin="round"/>
<path d="M30.8971 41.9647C27.9272 41.1246 26.6077 45.7452 29.5891 46.5885C32.5705 47.4319 33.8785 42.8081 30.8971 41.9647Z" stroke="#8A4165" stroke-width="0.75" stroke-linecap="round" stroke-linejoin="round"/>
<path d="M43.8568 55.0064C40.887 54.1663 39.5675 58.7869 42.5489 59.6302C45.5303 60.4736 46.8382 55.8497 43.8568 55.0064Z" stroke="#8A4165" stroke-width="0.75" stroke-linecap="round" stroke-linejoin="round"/>
<path d="M58.1441 64.5909C55.1742 63.7509 53.8547 68.3714 56.8361 69.2148C59.8175 70.0581 61.1255 65.4343 58.1441 64.5909Z" stroke="#8A4165" stroke-width="0.75" stroke-linecap="round" stroke-linejoin="round"/>
<path d="M70.0935 57.9084C67.1237 57.0684 65.8042 61.6889 68.7856 62.5323C71.767 63.3756 73.0749 58.7518 70.0935 57.9084Z" stroke="#8A4165" stroke-width="0.75" stroke-linecap="round" stroke-linejoin="round"/>
<path d="M62.373 25.4621C77.924 32.5202 86.4 50.0739 81.6064 67.0202C76.3224 85.7005 56.9009 96.5615 38.2267 91.2792C19.5525 85.9969 8.69789 66.5718 13.9819 47.8915C18.8638 30.6331 35.8116 20.0461 53.095 22.7003" stroke="#8A4165" stroke-width="0.75" stroke-linecap="round" stroke-linejoin="round"/>
<path d="M61.7784 27.7408C76.3663 34.2768 84.3412 50.69 79.8616 66.5266C74.9372 83.9354 56.8384 94.0469 39.4469 89.1274C22.0554 84.2079 11.9383 66.1025 16.8593 48.7054C21.3194 32.9381 36.5964 23.1396 52.3769 25.1064" stroke="#8A4165" stroke-width="0.75" stroke-linecap="round" stroke-linejoin="round"/>
<path d="M40.4498 85.8905C24.8841 81.4875 15.8027 65.2356 20.2071 49.6649C24.6116 34.0942 40.8605 25.0074 56.4261 29.4104C71.9918 33.8134 81.0732 50.0653 76.6688 65.636C72.2643 81.2068 56.0155 90.2935 40.4498 85.8905ZM56.1678 30.3236C41.1106 26.0645 25.3954 34.8527 21.1349 49.9148C16.8743 64.9769 25.6574 80.695 40.7146 84.9541C55.7719 89.2133 71.487 80.4251 75.7476 65.363C80.0082 50.3008 71.225 34.5828 56.1678 30.3236Z" stroke="#8A4165" stroke-width="0.75" stroke-linecap="round" stroke-linejoin="round"/>
<path d="M53.7504 20.3389L51.9782 26.6042L61.3037 29.242L63.076 22.9768" stroke="#8A4165" stroke-width="0.75" stroke-linecap="round" stroke-linejoin="round"/>
<path d="M74.7175 21.0887L44.8227 12.6324L43.4657 17.4297L73.3606 25.8859L74.7175 21.0887Z" stroke="#8A4165" stroke-width="0.75" stroke-linecap="round" stroke-linejoin="round"/>
<path d="M99.8057 24.4774L98.3997 29.448C98.1054 30.4883 87.8925 28.5608 73.6436 24.9297L74.7325 21.0804L44.8376 12.6241L43.752 16.4619C29.9121 12.135 20.3613 8.48461 20.6556 7.44425L22.0616 2.47363C21.6725 3.84922 38.7616 9.88168 60.2323 15.955C81.703 22.0284 99.4199 25.8414 99.809 24.4658L99.8057 24.4774Z" stroke="#8A4165" stroke-width="0.75" stroke-linecap="round" stroke-linejoin="round"/>
<path d="M99.8056 24.4775C99.4165 25.8531 81.6996 22.04 60.2289 15.9667C38.7582 9.89336 21.6691 3.8609 22.0582 2.48531C22.4473 1.10972 40.1643 4.92274 61.6349 10.9961C83.1056 17.0694 100.195 23.1019 99.8056 24.4775Z" stroke="#8A4165" stroke-width="0.75" stroke-linecap="round" stroke-linejoin="round"/>
</g>
</svg>
