<svg width="66" height="103" viewBox="0 0 66 103" fill="none" xmlns="http://www.w3.org/2000/svg">
<g opacity="0.3">
<path d="M38.5372 39.9724L26.3028 28.5313L40.7953 13.1376C40.7953 13.1376 50.7239 6.30433 57.6371 13.0695C57.6371 13.0695 58.6534 19.1589 53.5302 25.8968L39.4091 40.8959L38.5372 39.9724Z" fill="#8A4165"/>
<path d="M11.7137 75.2831C11.5658 75.1567 11.4048 75.0307 11.2367 74.8853C11.1157 74.7842 10.9813 74.6705 10.8468 74.5568C10.2758 74.0833 9.59049 73.5151 8.8375 72.8704C7.92312 72.0865 6.9006 71.188 5.8033 70.1934C5.56106 69.9782 5.31882 69.763 5.06984 69.5414L16.0885 58.2426L16.1462 58.1814C17.1087 59.0491 18.0099 59.8334 18.8165 60.5157C19.4755 61.0848 20.0799 61.5769 20.5968 61.9865C20.7046 62.088 20.8188 62.1827 20.9394 62.2706C21.9943 63.1482 22.6311 63.6194 22.6311 63.6194L11.7137 75.2831Z" stroke="#8A4165" stroke-width="0.75" stroke-linecap="round" stroke-linejoin="round"/>
<path d="M39.9039 42.7603L21.5852 61.5835L20.9384 62.2705C20.8178 62.1826 20.6969 62.0816 20.5891 61.9801C20.0854 61.57 19.4809 61.078 18.8219 60.5089C18.0154 59.8265 17.1141 59.0422 16.1452 58.1813C15.6877 57.7763 15.2163 57.3454 14.7383 56.9081L34.2487 36.8459C34.7069 37.2773 35.1591 37.7286 35.6044 38.1736C36.4747 39.0313 37.3122 39.8968 38.0891 40.7052C38.7517 41.4189 39.3676 42.1014 39.9167 42.7467L39.9039 42.7603Z" stroke="#8A4165" stroke-width="0.75" stroke-linecap="round" stroke-linejoin="round"/>
<path d="M16.1463 58.1813L16.0886 58.2426L5.06996 69.5414C4.78696 69.275 4.49082 69.009 4.20108 68.7362C3.43327 68.0262 2.63851 67.2908 1.83634 66.5228C1.04765 65.7674 0.29232 65.0306 -0.415848 64.3382L10.648 53.0049C11.282 53.6275 11.9501 54.295 12.658 54.9742C13.3722 55.6466 14.0595 56.2937 14.733 56.9149C15.211 57.3522 15.6888 57.7763 16.1463 58.1813Z" stroke="#8A4165" stroke-width="0.75" stroke-linecap="round" stroke-linejoin="round"/>
<path d="M49.0258 21.4884C47.134 21.5807 45.1038 21.145 43.4821 20.478C42.4584 20.0532 41.5902 19.5309 41.0505 18.9971C40.8281 18.7877 40.6519 18.5834 40.5087 18.3844C40.284 18.0831 40.1389 17.8052 40.0469 17.5519C39.99 17.3828 39.9466 17.2264 39.9294 17.0691L39.9227 17.0628C39.8016 15.9223 40.7645 15.2506 40.9455 15.1258C40.9523 15.1322 40.9651 15.1186 40.9715 15.1118C42.0283 14.7723 43.5013 14.5037 45.5279 14.5383C50.9559 14.6185 54.0508 17.096 54.3825 17.9857C53.5624 20.3959 51.4099 21.3591 49.0325 21.4947L49.0258 21.4884Z" stroke="#8A4165" stroke-width="0.75" stroke-linecap="round" stroke-linejoin="round"/>
<path d="M34.2435 36.8527L14.733 56.9149C14.0659 56.2869 13.3658 55.6534 12.6711 54.9737C11.9569 54.3013 11.2888 53.6339 10.6548 53.0113C10.2495 52.5912 9.83812 52.1911 9.46653 51.8028L9.87099 51.4137L28.9012 31.8617C29.5204 32.419 30.1737 33.0212 30.8471 33.6424C31.9515 34.6565 33.1105 35.7476 34.2566 36.8523L34.2435 36.8527Z" stroke="#8A4165" stroke-width="0.75" stroke-linecap="round" stroke-linejoin="round"/>
<path d="M-11.2983 102.494C-11.2983 102.494 -12.2915 101.712 -13.9107 100.368C-15.228 99.2558 -16.9692 97.7706 -18.9482 95.9844C-20.1058 94.9459 -21.3386 93.7982 -22.6191 92.5797C-23.549 91.7043 -24.4125 90.8529 -25.2021 90.0581C-29.7099 85.5576 -32.2271 82.5206 -32.2271 82.5206L-7.76505 56.4699C-7.76505 56.4699 -7.4733 56.8216 -6.90396 57.4859C-6.82277 57.5752 -6.73451 57.6839 -6.63984 57.7859C-5.6514 58.8961 -4.02085 60.6878 -1.83336 62.914C-1.40112 63.3595 -0.942263 63.8171 -0.469929 64.2875L-0.416023 64.3382C0.292145 65.0306 1.04748 65.7674 1.83617 66.5227C2.63833 67.2908 3.4331 68.0262 4.2009 68.7362C4.49064 69.009 4.78679 69.2749 5.06979 69.5414C5.31236 69.7697 5.561 69.9782 5.80324 70.1934C6.90054 71.188 7.92306 72.0865 8.83744 72.8703C9.59043 73.5151 10.2757 74.0833 10.8468 74.5567C10.9748 74.6773 11.1156 74.7842 11.2366 74.8852C11.4047 75.0307 11.5658 75.1566 11.7137 75.283C12.6274 76.0406 13.1573 76.4497 13.1573 76.4497L-11.2983 102.494Z" stroke="#8A4165" stroke-width="0.75" stroke-linecap="round" stroke-linejoin="round"/>
<path d="M10.6468 53.005L-0.417008 64.3383L-0.470914 64.2875C-0.943248 63.8172 -1.40211 63.3595 -1.83435 62.9141C-4.02183 60.6878 -5.65239 58.8961 -6.64083 57.7859L4.30887 46.1013C4.30887 46.1013 4.56018 46.4149 5.04833 46.99C5.86865 47.9547 7.36511 49.6459 9.45219 51.8033C9.83019 52.1848 10.2351 52.5917 10.6468 53.005Z" stroke="#8A4165" stroke-width="0.75" stroke-linecap="round" stroke-linejoin="round"/>
<path d="M28.8945 31.8554L9.86437 51.4074L9.45991 51.7965C7.37283 49.6391 5.87636 47.9479 5.04964 46.99L5.65803 46.3438L23.9834 27.5269C23.9834 27.5269 24.8439 28.26 26.1828 29.4435C26.9432 30.1209 27.8781 30.9369 28.8881 31.8622L28.8945 31.8554Z" stroke="#8A4165" stroke-width="0.75" stroke-linecap="round" stroke-linejoin="round"/>
<path d="M38.4037 40.3719L38.0771 40.7189C37.2998 39.8973 36.4627 39.045 35.5924 38.1872C35.1535 37.7354 34.6885 37.2977 34.2367 36.8596C33.097 35.7481 31.9448 34.6633 30.8273 33.6497C30.1602 33.0217 29.4941 32.4331 28.8813 31.869C27.8648 30.9505 26.9363 30.1277 26.1759 29.4503L38.671 16.4618C38.671 16.4618 39.217 15.6927 40.9391 15.1326C40.7645 15.2506 39.7952 15.9291 39.9227 17.0628L39.9294 17.0692C39.9402 17.2333 39.9836 17.3896 40.0405 17.5587C40.1392 17.8184 40.2776 18.0899 40.5023 18.3912C40.6519 18.5834 40.8281 18.7878 41.044 19.0039C41.5841 19.5508 42.452 20.06 43.4757 20.4848C45.0974 21.1519 47.1276 21.5876 49.0194 21.4952C51.3971 21.3728 53.556 20.4027 54.3693 17.9862C54.7011 18.8759 52.0606 26.0008 49.4187 28.9285C46.7835 31.8625 38.3973 40.3787 38.3973 40.3787L38.4037 40.3719Z" stroke="#8A4165" stroke-width="0.75" stroke-linecap="round" stroke-linejoin="round"/>
<path d="M8.48386 72.4484L-15.9927 98.447" stroke="#8A4165" stroke-width="0.75" stroke-linecap="round" stroke-linejoin="round"/>
<path d="M48.7846 23.4309C48.8083 24.6208 48.4023 25.7271 47.808 26.6689C47.2204 27.617 46.4516 28.4201 45.6828 29.2233C43.9146 31.0744 42.146 32.9124 40.3778 34.7636" stroke="#8A4165" stroke-width="0.75" stroke-linecap="round" stroke-linejoin="round"/>
</g>
</svg>
