<svg width="67" height="96" viewBox="0 0 67 96" fill="none" xmlns="http://www.w3.org/2000/svg">
<g opacity="0.3">
<path d="M38.5978 26.3259L27.6022 38.5791L12.1829 24.6488C12.1829 24.6488 5.26773 15.0305 11.7759 8.10063C11.7759 8.10063 17.7391 6.97901 24.4636 11.8773L39.4877 25.4505L38.5978 26.3259Z" fill="#8A4165"/>
<path d="M73.8373 51.9721C73.7161 52.12 73.5956 52.2807 73.4561 52.4489C73.3592 52.5698 73.2502 52.7042 73.1411 52.8386C72.6874 53.4093 72.1429 54.0941 71.5246 54.8471C70.7728 55.7614 69.9105 56.7844 68.9553 57.8827C68.7488 58.1251 68.5421 58.3675 68.3295 58.6166L57.0041 48.0173L56.9428 47.9619C57.776 46.9985 58.5285 46.0971 59.1828 45.2907C59.7287 44.6316 60.2 44.0278 60.592 43.5116C60.6896 43.4036 60.7803 43.2895 60.8643 43.1692C61.7054 42.1149 62.1555 41.4797 62.1555 41.4797L73.8373 51.9721Z" stroke="#8A4165" stroke-width="0.75" stroke-linecap="round" stroke-linejoin="round"/>
<path d="M41.3095 24.9267L60.1761 42.5474L60.8643 43.1692C60.7803 43.2895 60.6835 43.4104 60.5859 43.5183C60.1932 44.0216 59.7219 44.6254 59.176 45.2845C58.5217 46.0909 57.7692 46.9923 56.9428 47.9618C56.554 48.4196 56.1401 48.8914 55.7201 49.37L35.612 30.6032C36.0266 30.1442 36.461 29.6908 36.8893 29.2442C37.7146 28.3718 38.5481 27.5313 39.3268 26.7516C40.0147 26.086 40.6729 25.467 41.2959 24.9144L41.3095 24.9267Z" stroke="#8A4165" stroke-width="0.75" stroke-linecap="round" stroke-linejoin="round"/>
<path d="M56.9428 47.9619L57.0042 48.0173L68.3295 58.6166C68.0734 58.9001 67.818 59.1965 67.5558 59.4867C66.8736 60.2555 66.167 61.0513 65.4285 61.8551C64.7022 62.6454 63.9934 63.4025 63.3274 64.1123L51.9673 53.4693C52.5663 52.8337 53.2087 52.1637 53.8618 51.4544C54.5081 50.739 55.1301 50.0506 55.7269 49.3763C56.1469 48.8977 56.554 48.4196 56.9428 47.9619Z" stroke="#8A4165" stroke-width="0.75" stroke-linecap="round" stroke-linejoin="round"/>
<path d="M20.2226 16.3935C20.3515 18.2506 19.9644 20.2544 19.3416 21.8615C18.9449 22.8759 18.4492 23.7397 17.9355 24.2808C17.7343 24.5035 17.537 24.6808 17.3444 24.8255C17.0528 25.0524 16.7828 25.2006 16.5357 25.2961C16.3707 25.3554 16.2179 25.4013 16.0637 25.4213L16.0576 25.428C14.9393 25.57 14.2598 24.6374 14.1336 24.4621C14.1397 24.4553 14.126 24.443 14.1192 24.4369C13.7643 23.4052 13.4707 21.9632 13.4637 19.9711C13.4329 14.6356 15.8049 11.5444 16.6725 11.2005C19.0574 11.9577 20.0474 14.0533 20.2287 16.3868L20.2226 16.3935Z" stroke="#8A4165" stroke-width="0.75" stroke-linecap="round" stroke-linejoin="round"/>
<path d="M35.6189 30.6094L55.727 49.3763C55.1233 50.0444 54.515 50.7452 53.8611 51.4415C53.2148 52.157 52.5724 52.8269 51.9734 53.4625C51.5689 53.8693 51.184 54.2816 50.8099 54.6546L50.4194 54.265L30.8223 35.9598C31.3575 35.3401 31.936 34.686 32.5329 34.0116C33.507 32.9059 34.5558 31.7451 35.6182 30.5965L35.6189 30.6094Z" stroke="#8A4165" stroke-width="0.75" stroke-linecap="round" stroke-linejoin="round"/>
<path d="M101.041 74.0353C101.041 74.0353 100.293 75.0271 99.0043 76.6453C97.9383 77.9623 96.5139 79.7032 94.7987 81.6839C93.8016 82.8424 92.6987 84.077 91.5273 85.3599C90.6858 86.2913 89.8666 87.157 89.1015 87.9491C84.7702 92.4695 81.8366 95.0043 81.8366 95.0043L55.744 71.4927C55.744 71.4927 56.0836 71.199 56.7249 70.6261C56.811 70.5445 56.9161 70.4556 57.0144 70.3605C58.0854 69.3668 59.8131 67.7283 61.9565 65.5338C62.3855 65.1001 62.8259 64.64 63.2786 64.1663L63.3274 64.1123C63.9934 63.4025 64.7022 62.6454 65.4285 61.8551C66.167 61.0513 66.8736 60.2555 67.5558 59.4867C67.818 59.1965 68.0734 58.9001 68.3295 58.6166C68.549 58.3737 68.7488 58.1251 68.9554 57.8827C69.9105 56.7844 70.7728 55.7615 71.5246 54.8471C72.1429 54.0942 72.6874 53.4093 73.1412 52.8386C73.257 52.7103 73.3592 52.5698 73.4561 52.4489C73.5956 52.2808 73.7161 52.12 73.8374 51.9721C74.5633 51.0589 74.9546 50.5299 74.9546 50.5299L101.041 74.0353Z" stroke="#8A4165" stroke-width="0.75" stroke-linecap="round" stroke-linejoin="round"/>
<path d="M51.9673 53.4693L63.3274 64.1123L63.2786 64.1663C62.826 64.64 62.3855 65.1001 61.9565 65.5339C59.8131 67.7283 58.0854 69.3668 57.0144 70.3605L45.3114 59.8367C45.3114 59.8367 45.6145 59.5834 46.1697 59.0922C47.1012 58.2666 48.7328 56.7619 50.8106 54.6675C51.1778 54.2884 51.5695 53.8822 51.9673 53.4693Z" stroke="#8A4165" stroke-width="0.75" stroke-linecap="round" stroke-linejoin="round"/>
<path d="M30.8162 35.9665L50.4133 54.2717L50.8038 54.6613C48.726 56.7558 47.0944 58.2604 46.1697 59.0921L45.5225 58.5073L26.662 40.8799C26.662 40.8799 27.365 40.0195 28.5009 38.68C29.1512 37.9191 29.9342 36.9839 30.823 35.9727L30.8162 35.9665Z" stroke="#8A4165" stroke-width="0.75" stroke-linecap="round" stroke-linejoin="round"/>
<path d="M38.993 26.45L39.3405 26.764C38.5489 27.5443 37.7283 28.3842 36.9029 29.2566C36.4679 29.6971 36.0472 30.1628 35.6257 30.6156C34.5565 31.758 33.5138 32.9121 32.5404 34.0307C31.9367 34.6989 31.3718 35.3653 30.8298 35.9789C29.9478 36.9963 29.158 37.9253 28.5078 38.6862L15.4923 26.6702C15.4923 26.6702 14.7256 26.1492 14.1404 24.4683C14.2598 24.6374 14.9462 25.5762 16.0576 25.4281L16.0637 25.4213C16.2247 25.4075 16.3775 25.3616 16.5425 25.3023C16.7957 25.2001 17.0597 25.0586 17.3513 24.8317C17.5371 24.6808 17.7343 24.5035 17.9424 24.287C18.4689 23.7453 18.9517 22.8821 19.3485 21.8676C19.9712 20.2606 20.3584 18.2568 20.2294 16.3997C20.0611 14.0657 19.0642 11.9638 16.6732 11.2134C17.5408 10.8695 24.5954 13.3203 27.5257 15.8572C30.462 18.3874 38.9998 26.4562 38.9998 26.4562L38.993 26.45Z" stroke="#8A4165" stroke-width="0.75" stroke-linecap="round" stroke-linejoin="round"/>
<path d="M60.0991 67.3983L86.1408 90.9251" stroke="#8A4165" stroke-width="0.75" stroke-linecap="round" stroke-linejoin="round"/>
<path d="M22.1362 16.5901C23.305 16.5428 24.4003 16.9194 25.3377 17.4844C26.2813 18.0426 27.086 18.7819 27.8907 19.5212C29.7455 21.2213 31.5873 22.922 33.4421 24.6222" stroke="#8A4165" stroke-width="0.75" stroke-linecap="round" stroke-linejoin="round"/>
</g>
</svg>
