<svg width="106" height="97" viewBox="0 0 106 97" fill="none" xmlns="http://www.w3.org/2000/svg">
<g opacity="0.3">
<path d="M53.2188 82.6956C57.7306 84.4685 62.8259 82.2469 64.5994 77.7336C66.3728 73.2202 64.1529 68.1242 59.641 66.3513C55.1292 64.5784 50.0339 66.8 48.2604 71.3134C46.487 75.8267 48.7069 80.9227 53.2188 82.6956Z" fill="#8A4165"/>
<path d="M67.1235 64.286C71.5679 62.3482 73.6011 57.1738 71.6647 52.7288C69.7284 48.2838 64.5557 46.2512 60.1113 48.189C55.6669 50.1269 53.6338 55.3012 55.5701 59.7462C57.5065 64.1912 62.6791 66.2238 67.1235 64.286Z" fill="#8A4165"/>
<path d="M71.6873 90.5827C76.1992 92.3556 81.2944 90.134 83.0679 85.6206C84.8414 81.1073 82.6214 76.0113 78.1095 74.2384C73.5977 72.4655 68.5024 74.6871 66.7289 79.2005C64.9555 83.7138 67.1754 88.8098 71.6873 90.5827Z" fill="#8A4165"/>
<path d="M78.8739 72.2934C83.3857 74.0663 88.481 71.8447 90.2545 67.3313C92.0279 62.818 89.808 57.722 85.2961 55.9491C80.7843 54.1762 75.689 56.3978 73.9155 60.9112C72.142 65.4245 74.362 70.5205 78.8739 72.2934Z" fill="#8A4165"/>
<path d="M16.9549 67.692C21.4668 69.4648 26.5621 67.2432 28.3355 62.7299C30.109 58.2165 27.8891 53.1205 23.3772 51.3477C18.8653 49.5748 13.77 51.7964 11.9966 56.3097C10.2231 60.8231 12.443 65.9191 16.9549 67.692Z" fill="#8A4165"/>
<path d="M24.1415 49.4025C28.6534 51.1754 33.7486 48.9538 35.5221 44.4405C37.2956 39.9271 35.0756 34.8311 30.5638 33.0582C26.0519 31.2854 20.9566 33.5069 19.1832 38.0203C17.4097 42.5336 19.6296 47.6296 24.1415 49.4025Z" fill="#8A4165"/>
<path d="M35.4235 75.579C39.9354 77.3519 45.0306 75.1303 46.8041 70.617C48.5776 66.1036 46.3576 61.0076 41.8458 59.2347C37.3339 57.4619 32.2386 59.6835 30.4651 64.1968C28.6917 68.7102 30.9116 73.8062 35.4235 75.579Z" fill="#8A4165"/>
<path d="M42.61 57.2896C47.1219 59.0625 52.2172 56.8409 53.9906 52.3276C55.7641 47.8142 53.5442 42.7182 49.0323 40.9453C44.5204 39.1724 39.4251 41.394 37.6517 45.9074C35.8782 50.4207 38.0981 55.5167 42.61 57.2896Z" fill="#8A4165"/>
<path d="M54.7588 43.87L23.1799 31.4614L24.1224 29.0629L18.3584 26.798L3.08813 65.6599L34.5748 78.0321L34.892 77.2249L40.7482 79.526" stroke="#8A4165" stroke-width="0.75" stroke-linecap="round" stroke-linejoin="round"/>
<path d="M27.4602 49.572C31.5325 47.7964 33.3955 43.0553 31.6212 38.9824C29.847 34.9096 25.1075 33.0472 21.0352 34.8228C16.9629 36.5983 15.0999 41.3394 16.8742 45.4123C18.6484 49.4852 23.3879 51.3475 27.4602 49.572Z" stroke="white" stroke-width="0.75" stroke-linecap="round" stroke-linejoin="round"/>
<path d="M20.8558 66.3901C24.9281 64.6145 26.791 59.8734 25.0168 55.8006C23.2426 51.7277 18.503 49.8653 14.4307 51.6409C10.3584 53.4165 8.49549 58.1576 10.2697 62.2304C12.044 66.3033 16.7835 68.1657 20.8558 66.3901Z" stroke="white" stroke-width="0.75" stroke-linecap="round" stroke-linejoin="round"/>
<path d="M48.7669 53.814C51.2948 50.16 50.3832 45.1488 46.7307 42.621C43.0782 40.0932 38.068 41.0061 35.54 44.6601C33.012 48.314 33.9236 53.3253 37.5761 55.8531C41.2286 58.3809 46.2389 57.4679 48.7669 53.814Z" stroke="white" stroke-width="0.75" stroke-linecap="round" stroke-linejoin="round"/>
<path d="M42.1615 70.6233C44.6894 66.9694 43.7778 61.9581 40.1253 59.4303C36.4728 56.9025 31.4626 57.8155 28.9346 61.4694C26.4066 65.1233 27.3182 70.1346 30.9707 72.6624C34.6232 75.1902 39.6335 74.2772 42.1615 70.6233Z" stroke="white" stroke-width="0.75" stroke-linecap="round" stroke-linejoin="round"/>
<path d="M55.067 43.0859L23.488 30.6774" stroke="#8A4165" stroke-width="0.75" stroke-linecap="round" stroke-linejoin="round"/>
<path d="M19.419 27.2148L24.9277 2.22241L59.0889 15.6456L58.4273 17.3292L62.6696 18.9962L63.1227 17.843L64.7366 18.4772" stroke="#8A4165" stroke-width="0.75" stroke-linecap="round" stroke-linejoin="round"/>
<path d="M57.7494 36.2591L24.7026 23.2738L29.4238 5.56885L58.5511 17.014" stroke="#8A4165" stroke-width="0.75" stroke-linecap="round" stroke-linejoin="round"/>
<path d="M58.82 16.3299L25.704 3.31738L20.5271 25.5913L24.8232 27.2794L25.0981 26.5798L30.0321 28.5185L29.7572 29.2181L56.4021 39.6879" stroke="#8A4165" stroke-width="0.75" stroke-linecap="round" stroke-linejoin="round"/>
<path d="M29.4403 28.286L25.6745 26.8063L24.0674 30.8962L27.8332 32.3759L29.4403 28.286Z" stroke="#8A4165" stroke-width="0.75" stroke-linecap="round" stroke-linejoin="round"/>
<path d="M24.9276 2.22249L25.5439 0.654175L65.3981 16.7936" stroke="#8A4165" stroke-width="0.75" stroke-linecap="round" stroke-linejoin="round"/>
<path d="M54.7589 43.87L86.3378 56.2786L87.2803 53.88L93.0519 56.1479L77.7817 95.0097L46.2873 82.6344L46.6045 81.8272L40.7483 79.5261" stroke="#8A4165" stroke-width="0.75" stroke-linecap="round" stroke-linejoin="round"/>
<path d="M77.0963 71.3645C81.4926 71.9994 85.5718 68.9492 86.2076 64.5518C86.8433 60.1543 83.7947 56.0747 79.3984 55.4399C75.0021 54.805 70.9229 57.8551 70.2872 62.2526C69.6515 66.6501 72.7 70.7297 77.0963 71.3645Z" stroke="white" stroke-width="0.75" stroke-linecap="round" stroke-linejoin="round"/>
<path d="M70.494 88.179C74.8902 88.8139 78.9695 85.7637 79.6052 81.3662C80.2409 76.9687 77.1924 72.8892 72.7961 72.2543C68.3998 71.6194 64.3205 74.6696 63.6848 79.0671C63.0491 83.4646 66.0977 87.5441 70.494 88.179Z" stroke="white" stroke-width="0.75" stroke-linecap="round" stroke-linejoin="round"/>
<path d="M63.5534 63.7519C67.6257 61.9763 69.4887 57.2353 67.7144 53.1624C65.9402 49.0895 61.2007 47.2272 57.1284 49.0027C53.0561 50.7783 51.1931 55.5194 52.9674 59.5922C54.7416 63.6651 59.4811 65.5275 63.5534 63.7519Z" stroke="white" stroke-width="0.75" stroke-linecap="round" stroke-linejoin="round"/>
<path d="M56.9519 80.5622C61.0242 78.7866 62.8872 74.0456 61.1129 69.9727C59.3387 65.8998 54.5992 64.0375 50.5269 65.813C46.4546 67.5886 44.5916 72.3297 46.3659 76.4025C48.1401 80.4754 52.8796 82.3378 56.9519 80.5622Z" stroke="white" stroke-width="0.75" stroke-linecap="round" stroke-linejoin="round"/>
<path d="M55.067 43.0859L86.6459 55.4945" stroke="#8A4165" stroke-width="0.75" stroke-linecap="round" stroke-linejoin="round"/>
<path d="M91.9837 55.7281L104.97 33.6741L70.8013 20.2479L70.1397 21.9315L65.8974 20.2646L66.3505 19.1114L64.7366 18.4772" stroke="#8A4165" stroke-width="0.75" stroke-linecap="round" stroke-linejoin="round"/>
<path d="M57.7495 36.2591L90.7963 49.2444L99.3986 33.0645L70.2636 21.6163" stroke="#8A4165" stroke-width="0.75" stroke-linecap="round" stroke-linejoin="round"/>
<path d="M70.5324 20.9321L103.648 33.9446L92.2849 53.7875L87.9811 52.0964L88.256 51.3968L83.322 49.4581L83.0471 50.1577L56.4022 39.6879" stroke="#8A4165" stroke-width="0.75" stroke-linecap="round" stroke-linejoin="round"/>
<path d="M82.3037 53.7882L86.0695 55.2679L87.6765 51.178L83.9107 49.6983L82.3037 53.7882Z" stroke="#8A4165" stroke-width="0.75" stroke-linecap="round" stroke-linejoin="round"/>
<path d="M104.97 33.6742L105.586 32.1059L65.3982 16.7937" stroke="#8A4165" stroke-width="0.75" stroke-linecap="round" stroke-linejoin="round"/>
<path d="M27.4233 24.3429L56.3763 16.1595" stroke="#8A4165" stroke-width="0.75" stroke-linecap="round" stroke-linejoin="round"/>
<path d="M65.281 39.2185L94.2263 31.0321" stroke="#8A4165" stroke-width="0.75" stroke-linecap="round" stroke-linejoin="round"/>
<path d="M57.4805 36.1534L86.4334 27.97" stroke="#8A4165" stroke-width="0.75" stroke-linecap="round" stroke-linejoin="round"/>
<path d="M38.2365 28.5918L66.6001 20.5762" stroke="#8A4165" stroke-width="0.75" stroke-linecap="round" stroke-linejoin="round"/>
</g>
</svg>
