<svg width="19" height="94" viewBox="0 0 19 94" fill="none" xmlns="http://www.w3.org/2000/svg">
<g opacity="0.3">
<path d="M6.16538 51.8362L5.0452 51.854H4.80517L4.64514 47.945C5.00075 47.8739 5.5075 47.8206 6.0587 47.785L6.16538 51.8362Z" stroke="#8A4165" stroke-width="0.75" stroke-linecap="round" stroke-linejoin="round"/>
<path d="M6.06766 47.785C5.51646 47.8116 5.00971 47.865 4.6541 47.9449L4.52075 44.6044C4.87636 44.5245 5.40089 44.4712 5.97876 44.4268L6.06766 47.7939V47.785Z" stroke="#8A4165" stroke-width="0.75" stroke-linecap="round" stroke-linejoin="round"/>
<path d="M15.0557 47.8294L14.9846 51.7474H14.8779L14.0067 51.7652L11.633 51.7918L9.87267 51.8096L9.71265 47.6873C9.78377 47.6873 9.83711 47.6873 9.88156 47.6873H9.91713C10.1838 47.6873 10.8328 47.6606 11.5885 47.6606C12.3708 47.6606 13.2777 47.6606 14.0333 47.7228C14.4334 47.7495 14.7801 47.785 15.0557 47.8294Z" stroke="#8A4165" stroke-width="0.75" stroke-linecap="round" stroke-linejoin="round"/>
<path d="M15.1268 44.4889L15.0557 47.8294C14.7801 47.785 14.4245 47.7494 14.0333 47.7228C13.2776 47.6695 12.3708 47.6517 11.5885 47.6606C10.8328 47.6606 10.1838 47.6784 9.91708 47.6873H9.88152C9.88152 47.6873 9.79261 47.6873 9.7126 47.6873L9.58813 44.329C9.70371 44.329 9.8015 44.329 9.84595 44.329H9.88152C10.1482 44.329 10.7972 44.3024 11.5529 44.3024C12.353 44.3024 13.2865 44.3024 14.0511 44.3646C14.4778 44.3912 14.8512 44.4356 15.1268 44.4889Z" stroke="#8A4165" stroke-width="0.75" stroke-linecap="round" stroke-linejoin="round"/>
<path d="M17.3584 9.55625C17.3139 9.36968 16.336 5.2474 9.47267 5.31848C2.61824 5.38955 1.47139 9.53848 1.41805 9.72505C1.10689 8.17031 0.929087 6.83768 1.02688 6.05587C1.41805 3.06189 4.74302 1.04517 9.29486 1.00075C13.8556 0.956327 17.225 2.89309 17.6784 5.88707C17.794 6.66888 17.6517 8.0104 17.3673 9.56513L17.3584 9.55625Z" stroke="#8A4165" stroke-width="0.75" stroke-linecap="round" stroke-linejoin="round"/>
<path d="M17.3584 9.55628C16.5671 13.9629 14.6913 20.0752 14.6913 20.0752H13.5444L11.3041 20.1018L9.63271 20.1285H8.65477L5.57873 20.164H5.3298L4.29853 20.1818C4.29853 20.1818 2.3071 14.105 1.40918 9.72508C1.46252 9.52963 2.60937 5.38958 9.46379 5.30962C16.3182 5.23855 17.305 9.36083 17.3495 9.5474L17.3584 9.55628Z" stroke="#8A4165" stroke-width="0.75" stroke-linecap="round" stroke-linejoin="round"/>
<path d="M15.4825 88.2172C15.5091 91.0602 13.2243 93.3967 10.3883 93.4145C7.56121 93.4412 5.21417 91.1579 5.1875 88.3327L4.823 52.9025C4.823 52.5293 4.89412 52.174 5.04526 51.8541L6.16544 51.8364L6.54772 88.2706C6.54772 89.2922 7.3923 90.1096 8.42357 90.1007C8.93032 90.1007 9.39261 89.8875 9.72156 89.5499C10.0505 89.2123 10.255 88.7503 10.255 88.235L9.87269 51.8008L11.633 51.7831L14.0067 51.7564L14.8779 51.7386C15.0291 52.0585 15.118 52.4138 15.118 52.787L15.4825 88.2084V88.2172Z" stroke="#8A4165" stroke-width="0.75" stroke-linecap="round" stroke-linejoin="round"/>
<path d="M15.6158 20.0663L15.1268 44.489C14.8512 44.4357 14.4778 44.3913 14.0511 44.3646C13.2865 44.3113 12.353 44.2935 11.5529 44.3024C10.7972 44.3024 10.1482 44.3202 9.88153 44.3291H9.84597C9.80152 44.3291 9.71261 44.3291 9.58815 44.3291L8.65466 20.1462H9.6326L11.304 20.1196L13.5443 20.0929H14.6912L15.6158 20.0663Z" stroke="#8A4165" stroke-width="0.75" stroke-linecap="round" stroke-linejoin="round"/>
<path d="M10.2549 88.2348C10.2549 88.7412 10.0505 89.2121 9.72153 89.5497C9.39258 89.8873 8.93029 90.1005 8.42354 90.1005C7.40116 90.1005 6.55658 89.2921 6.54769 88.2704L6.16541 51.8362L9.86377 51.8007L10.2461 88.2348H10.2549Z" stroke="#8A4165" stroke-width="0.75" stroke-linecap="round" stroke-linejoin="round"/>
<path d="M9.87267 51.8007L6.17431 51.8363L6.06763 47.7851C7.44562 47.6874 9.14367 47.6785 9.72154 47.6785L9.88157 51.8007H9.87267Z" stroke="#8A4165" stroke-width="0.75" stroke-linecap="round" stroke-linejoin="round"/>
<path d="M9.71266 47.6785C9.14369 47.6785 7.44564 47.6785 6.05875 47.7852L5.96985 44.418C7.28561 44.3292 8.92143 44.3203 9.57931 44.3203L9.70377 47.6785H9.71266Z" stroke="#8A4165" stroke-width="0.75" stroke-linecap="round" stroke-linejoin="round"/>
<path d="M9.58819 44.3291C8.9303 44.3291 7.29449 44.3291 5.97873 44.4268L5.33862 20.1818H5.58755L8.66359 20.1462L9.59708 44.3291H9.58819Z" stroke="#8A4165" stroke-width="0.75" stroke-linecap="round" stroke-linejoin="round"/>
<path d="M5.97873 44.4268C5.39197 44.4712 4.86744 44.5245 4.52072 44.6045L3.51611 20.1906H4.30735L5.33863 20.1729L5.97873 44.4179V44.4268Z" stroke="#8A4165" stroke-width="0.75" stroke-linecap="round" stroke-linejoin="round"/>
<path d="M9.47266 5.31848V20.1374" stroke="#8A4165" stroke-width="0.75" stroke-linecap="round" stroke-linejoin="round"/>
<path d="M13.3043 5.83374L11.304 20.1107" stroke="#8A4165" stroke-width="0.75" stroke-linecap="round" stroke-linejoin="round"/>
<path d="M16.2647 7.64624L13.5443 20.093" stroke="#8A4165" stroke-width="0.75" stroke-linecap="round" stroke-linejoin="round"/>
<path d="M5.23193 6.047L7.25004 20.1907" stroke="#8A4165" stroke-width="0.75" stroke-linecap="round" stroke-linejoin="round"/>
<path d="M2.20923 8.22363L5.33862 20.1818" stroke="#8A4165" stroke-width="0.75" stroke-linecap="round" stroke-linejoin="round"/>
</g>
</svg>
