<svg width="90" height="109" viewBox="0 0 90 109" fill="none" xmlns="http://www.w3.org/2000/svg">
<g opacity="0.3">
<path d="M23.4972 128.64C57.8718 128.64 85.7379 100.793 85.7379 66.442C85.7379 32.0909 57.8718 4.2439 23.4972 4.2439C-10.8774 4.2439 -38.7435 32.0909 -38.7435 66.442C-38.7435 100.793 -10.8774 128.64 23.4972 128.64Z" stroke="#8A4165" stroke-width="0.75" stroke-linecap="round" stroke-linejoin="round"/>
<path d="M43.208 113.215C69.0505 102.338 81.1764 72.5848 70.292 46.76C59.4076 20.9352 29.6345 8.81754 3.792 19.6945C-22.0505 30.5715 -34.1764 60.3242 -23.292 86.149C-12.4076 111.974 17.3655 124.091 43.208 113.215Z" stroke="#8A4165" stroke-width="0.75" stroke-linecap="round" stroke-linejoin="round"/>
<path d="M41.0258 111.304C65.8176 101.629 78.0674 73.7028 68.3866 48.9279C58.7057 24.1531 30.76 11.9116 5.96821 21.5859C-18.8236 31.2601 -31.0734 59.1867 -21.3926 83.9615C-11.7117 108.736 16.234 120.978 41.0258 111.304Z" stroke="#8A4165" stroke-width="0.75" stroke-linecap="round" stroke-linejoin="round"/>
<path d="M44.0688 22.8771C40.4796 24.0143 36.1464 24.5173 33.0825 26.6824C30.0187 28.8694 27.5675 32.2593 27.5019 36.0209C27.4581 38.5797 28.4867 41.0291 28.8806 43.566C29.7342 49.2303 27.1736 55.004 23.2124 59.1374C19.2513 63.2709 14.0427 65.9609 8.72464 68.126C3.4066 70.2692 -2.08651 71.9532 -7.25135 74.4245C-12.4162 76.9177 -17.2965 80.3294 -20.3823 85.1408" stroke="#8A4165" stroke-width="0.75" stroke-linecap="round" stroke-linejoin="round"/>
<path d="M58.4471 33.7898C52.9102 35.7362 49.5181 42.4065 51.2251 48.0271C52.4944 52.248 56.0835 55.4629 57.4185 59.6619C58.7535 63.8828 57.5936 68.6067 55.1206 72.2809C52.6476 75.955 49.0147 78.6888 45.1849 80.9195C41.355 83.1502 37.2844 84.9436 33.4545 87.1524C23.3218 93.0136 14.9618 101.871 9.73129 112.325" stroke="#8A4165" stroke-width="0.75" stroke-linecap="round" stroke-linejoin="round"/>
</g>
</svg>
