<svg width="57" height="93" viewBox="0 0 57 93" fill="none" xmlns="http://www.w3.org/2000/svg">
<g opacity="0.3">
<path d="M14.991 20.3802C13.8879 20.3802 12.8079 20.4951 11.7278 20.6099C9.223 20.8854 6.78713 21.4366 4.37424 22.1944L2.352 15.3051L1.77751 13.2613C0.950228 10.5056 1.06513 7.52028 2.23711 4.8794C2.99544 3.15709 4.23636 1.57256 6.21263 1.11328C8.44168 0.585099 10.3031 1.98592 11.6819 3.61637C13.3364 5.61426 14.2556 8.14032 14.3935 10.7353L14.5543 13.1924L14.968 20.3573L14.991 20.3802Z" stroke="#8A4165" stroke-width="0.75" stroke-linecap="round" stroke-linejoin="round"/>
<path d="M24.7575 77.2626C23.7004 77.2626 22.5974 77.3774 21.4943 77.5381C20.6211 77.653 19.7249 77.8137 18.9206 77.9745C18.0473 78.1352 17.2201 78.3649 16.5307 78.5256C15.2668 78.8471 14.4395 79.0767 14.4395 79.0767L14.1178 79.1227L4.35132 22.1944C6.74123 21.4366 9.20008 20.8855 11.7049 20.6099C12.7849 20.4951 13.865 20.4032 14.968 20.3802L24.7345 77.2626H24.7575Z" stroke="#8A4165" stroke-width="0.75" stroke-linecap="round" stroke-linejoin="round"/>
<path d="M28.3192 98.1373L25.079 98.7114L22.5053 99.1707L20.1154 99.5611L17.7025 99.9745L15.7492 88.6072C15.7492 88.6072 16.6914 88.3316 18.1391 87.9642C18.8285 87.8035 19.6558 87.6197 20.529 87.459C21.3563 87.2982 22.2295 87.1605 23.1028 87.0456C24.2288 86.8849 25.3548 86.793 26.3889 86.816L28.3422 98.1603L28.3192 98.1373Z" stroke="#8A4165" stroke-width="0.75" stroke-linecap="round" stroke-linejoin="round"/>
<path d="M26.3889 86.7927C25.3548 86.7927 24.2288 86.8846 23.1028 87.0224C22.2295 87.1372 21.3793 87.2979 20.529 87.4357C19.6558 87.6194 18.8515 87.8031 18.1391 87.9409C16.7143 88.3083 15.7492 88.5839 15.7492 88.5839L14.1176 79.1227L14.4393 79.0767C14.4393 79.0767 15.2666 78.8471 16.5305 78.5256C17.2199 78.3649 18.0242 78.1352 18.9204 77.9745C19.7247 77.8137 20.5979 77.653 21.4942 77.5381C22.5972 77.3774 23.7002 77.2626 24.7573 77.2626L26.3889 86.7927Z" stroke="#8A4165" stroke-width="0.75" stroke-linecap="round" stroke-linejoin="round"/>
</g>
</svg>
